<?xml version="1.0" encoding="UTF-8"?>
<svg id="Layer_1" data-name="Layer 1" xmlns="http://www.w3.org/2000/svg" version="1.1" viewBox="0 0 1322 919.6">
  <defs>
    <style>
      .cls-1 {
        fill: #0acfb3;
      }

      .cls-1, .cls-2, .cls-3, .cls-4, .cls-5, .cls-6, .cls-7 {
        stroke-width: 0px;
      }

      .cls-2 {
        fill: #50eacd;
      }

      .cls-3 {
        fill: #000;
      }

      .cls-4 {
        fill: #5c2f96;
      }

      .cls-5 {
        fill: #7f5aaf;
      }

      .cls-6 {
        fill: #00af91;
      }

      .cls-7 {
        fill: #703da5;
      }
    </style>
  </defs>
  <rect class="cls-3" x="805.5" y="862.1" width="57.5" height="57.5"/>
  <rect class="cls-3" x="748" y="862.1" width="57.5" height="57.5"/>
  <rect class="cls-3" x="690.4" y="862.1" width="57.5" height="57.5"/>
  <rect class="cls-3" x="632.9" y="862.1" width="57.5" height="57.5"/>
  <rect class="cls-3" x="575.4" y="862.1" width="57.5" height="57.5"/>
  <rect class="cls-3" x="517.8" y="862.1" width="57.5" height="57.5"/>
  <rect class="cls-3" x="460.3" y="862.1" width="57.5" height="57.5"/>
  <rect class="cls-3" x="1035.6" y="804.6" width="57.5" height="57.5"/>
  <rect class="cls-3" x="978.1" y="804.6" width="57.5" height="57.5"/>
  <rect class="cls-3" x="920.5" y="804.6" width="57.5" height="57.5"/>
  <rect class="cls-3" x="863" y="804.6" width="57.5" height="57.5"/>
  <rect class="cls-4" x="805.5" y="804.6" width="57.5" height="57.5"/>
  <rect class="cls-4" x="748" y="804.6" width="57.5" height="57.5"/>
  <rect class="cls-4" x="690.4" y="804.6" width="57.5" height="57.5"/>
  <rect class="cls-4" x="632.9" y="804.6" width="57.5" height="57.5"/>
  <rect class="cls-4" x="575.4" y="804.6" width="57.5" height="57.5"/>
  <rect class="cls-4" x="517.8" y="804.6" width="57.5" height="57.5"/>
  <rect class="cls-4" x="460.3" y="804.6" width="57.5" height="57.5"/>
  <rect class="cls-3" x="402.8" y="804.6" width="57.5" height="57.5"/>
  <rect class="cls-3" x="345.3" y="804.6" width="57.5" height="57.5"/>
  <rect class="cls-3" x="287.7" y="804.6" width="57.5" height="57.5"/>
  <rect class="cls-3" x="230.2" y="804.6" width="57.5" height="57.5"/>
  <rect class="cls-3" x="1150.6" y="747.1" width="57.5" height="57.5"/>
  <rect class="cls-3" x="1093.1" y="747.1" width="57.5" height="57.5"/>
  <rect class="cls-4" x="1035.6" y="747.1" width="57.5" height="57.5"/>
  <rect class="cls-4" x="978.1" y="747.1" width="57.5" height="57.5"/>
  <rect class="cls-4" x="920.5" y="747.1" width="57.5" height="57.5"/>
  <rect class="cls-4" x="863" y="747.1" width="57.5" height="57.5"/>
  <rect class="cls-4" x="805.5" y="747.1" width="57.5" height="57.5"/>
  <rect class="cls-7" x="748" y="747.1" width="57.5" height="57.5"/>
  <rect class="cls-7" x="690.4" y="747.1" width="57.5" height="57.5"/>
  <rect class="cls-7" x="632.9" y="747.1" width="57.5" height="57.5"/>
  <rect class="cls-7" x="575.4" y="747.1" width="57.5" height="57.5"/>
  <rect class="cls-7" x="517.8" y="747.1" width="57.5" height="57.5"/>
  <rect class="cls-4" x="460.3" y="747.1" width="57.5" height="57.5"/>
  <rect class="cls-4" x="402.8" y="747.1" width="57.5" height="57.5"/>
  <rect class="cls-4" x="345.3" y="747.1" width="57.5" height="57.5"/>
  <rect class="cls-4" x="287.7" y="747.1" width="57.5" height="57.5"/>
  <rect class="cls-4" x="230.2" y="747.1" width="57.5" height="57.5"/>
  <rect class="cls-3" x="172.7" y="747.1" width="57.5" height="57.5"/>
  <rect class="cls-3" x="115.2" y="747.1" width="57.5" height="57.5"/>
  <rect class="cls-3" x="1208.2" y="689.5" width="57.5" height="57.5"/>
  <rect class="cls-4" x="1150.6" y="689.5" width="57.5" height="57.5"/>
  <rect class="cls-4" x="1093.1" y="689.5" width="57.5" height="57.5"/>
  <rect class="cls-4" x="1035.6" y="689.5" width="57.5" height="57.5"/>
  <rect class="cls-7" x="978.1" y="689.5" width="57.5" height="57.5"/>
  <rect class="cls-7" x="920.5" y="689.5" width="57.5" height="57.5"/>
  <rect class="cls-7" x="863" y="689.5" width="57.5" height="57.5"/>
  <rect class="cls-7" x="805.5" y="689.5" width="57.5" height="57.5"/>
  <rect class="cls-7" x="748" y="689.5" width="57.5" height="57.5"/>
  <rect class="cls-7" x="690.4" y="689.5" width="57.5" height="57.5"/>
  <rect class="cls-7" x="632.9" y="689.5" width="57.5" height="57.5"/>
  <rect class="cls-7" x="575.4" y="689.5" width="57.5" height="57.5"/>
  <rect class="cls-7" x="517.8" y="689.5" width="57.5" height="57.5"/>
  <rect class="cls-7" x="460.3" y="689.5" width="57.5" height="57.5"/>
  <rect class="cls-7" x="402.8" y="689.5" width="57.5" height="57.5"/>
  <rect class="cls-7" x="345.3" y="689.5" width="57.5" height="57.5"/>
  <rect class="cls-7" x="287.7" y="689.5" width="57.5" height="57.5"/>
  <rect class="cls-4" x="230.2" y="689.5" width="57.5" height="57.5"/>
  <rect class="cls-4" x="172.7" y="689.5" width="57.5" height="57.5"/>
  <rect class="cls-4" x="115.2" y="689.5" width="57.5" height="57.5"/>
  <rect class="cls-3" x="57.6" y="689.5" width="57.5" height="57.5"/>
  <rect class="cls-3" x="1265.7" y="632" width="57.5" height="57.5"/>
  <rect class="cls-4" x="1208.2" y="632" width="57.5" height="57.5"/>
  <rect class="cls-4" x="1150.6" y="632" width="57.5" height="57.5"/>
  <rect class="cls-4" x="1093.1" y="632" width="57.5" height="57.5"/>
  <rect class="cls-7" x="1035.6" y="632" width="57.5" height="57.5"/>
  <rect class="cls-7" x="978.1" y="632" width="57.5" height="57.5"/>
  <rect class="cls-7" x="920.5" y="632" width="57.5" height="57.5"/>
  <rect class="cls-7" x="863" y="632" width="57.5" height="57.5"/>
  <rect class="cls-7" x="805.5" y="632" width="57.5" height="57.5"/>
  <rect class="cls-1" x="748" y="632" width="57.5" height="57.5"/>
  <rect class="cls-1" x="690.4" y="632" width="57.5" height="57.5"/>
  <rect class="cls-1" x="632.9" y="632" width="57.5" height="57.5"/>
  <rect class="cls-1" x="575.4" y="632" width="57.5" height="57.5"/>
  <rect class="cls-1" x="517.8" y="632" width="57.5" height="57.5"/>
  <rect class="cls-7" x="460.3" y="632" width="57.5" height="57.5"/>
  <rect class="cls-7" x="402.8" y="632" width="57.5" height="57.5"/>
  <rect class="cls-7" x="345.3" y="632" width="57.5" height="57.5"/>
  <rect class="cls-7" x="287.7" y="632" width="57.5" height="57.5"/>
  <rect class="cls-7" x="230.2" y="632" width="57.5" height="57.5"/>
  <rect class="cls-7" x="172.7" y="632" width="57.5" height="57.5"/>
  <rect class="cls-7" x="115.2" y="632" width="57.5" height="57.5"/>
  <rect class="cls-7" x="57.6" y="632" width="57.5" height="57.5"/>
  <rect class="cls-3" x=".1" y="632" width="57.5" height="57.5"/>
  <rect class="cls-3" x="1265.7" y="574.5" width="57.5" height="57.5"/>
  <rect class="cls-4" x="1208.2" y="574.5" width="57.5" height="57.5"/>
  <rect class="cls-4" x="1150.6" y="574.5" width="57.5" height="57.5"/>
  <rect class="cls-4" x="1093.1" y="574.5" width="57.5" height="57.5"/>
  <rect class="cls-4" x="1035.6" y="574.5" width="57.5" height="57.5"/>
  <rect class="cls-7" x="978.1" y="574.5" width="57.5" height="57.5"/>
  <rect class="cls-1" x="920.5" y="574.5" width="57.5" height="57.5"/>
  <rect class="cls-1" x="863" y="574.5" width="57.5" height="57.5"/>
  <rect class="cls-1" x="805.5" y="574.5" width="57.5" height="57.5"/>
  <rect class="cls-1" x="748" y="574.5" width="57.5" height="57.5"/>
  <rect class="cls-1" x="690.4" y="574.5" width="57.5" height="57.5"/>
  <rect class="cls-1" x="632.9" y="574.5" width="57.5" height="57.5"/>
  <rect class="cls-1" x="575.4" y="574.5" width="57.5" height="57.5"/>
  <rect class="cls-1" x="517.8" y="574.5" width="57.5" height="57.5"/>
  <rect class="cls-1" x="460.3" y="574.5" width="57.5" height="57.5"/>
  <rect class="cls-1" x="402.8" y="574.5" width="57.5" height="57.5"/>
  <rect class="cls-1" x="345.3" y="574.5" width="57.5" height="57.5"/>
  <rect class="cls-7" x="287.7" y="574.5" width="57.5" height="57.5"/>
  <rect class="cls-7" x="230.2" y="574.5" width="57.5" height="57.5"/>
  <rect class="cls-7" x="172.7" y="574.5" width="57.5" height="57.5"/>
  <rect class="cls-7" x="115.2" y="574.5" width="57.5" height="57.5"/>
  <rect class="cls-5" x="57.6" y="574.5" width="57.5" height="57.5"/>
  <rect class="cls-3" x=".1" y="574.5" width="57.5" height="57.5"/>
  <rect class="cls-3" x="1265.7" y="517" width="57.5" height="57.5"/>
  <rect class="cls-4" x="1208.2" y="517" width="57.5" height="57.5"/>
  <rect class="cls-4" x="1150.6" y="517" width="57.5" height="57.5"/>
  <rect class="cls-4" x="1093.1" y="517" width="57.5" height="57.5"/>
  <rect class="cls-3" x="1035.6" y="517" width="57.5" height="57.5"/>
  <rect class="cls-6" x="978.1" y="517" width="57.5" height="57.5"/>
  <rect class="cls-1" x="920.5" y="517" width="57.5" height="57.5"/>
  <rect class="cls-1" x="863" y="517" width="57.5" height="57.5"/>
  <rect class="cls-1" x="805.5" y="517" width="57.5" height="57.5"/>
  <rect class="cls-1" x="748" y="517" width="57.5" height="57.5"/>
  <rect class="cls-7" x="690.4" y="517" width="57.5" height="57.5"/>
  <rect class="cls-7" x="632.9" y="517" width="57.5" height="57.5"/>
  <rect class="cls-7" x="575.4" y="517" width="57.5" height="57.5"/>
  <rect class="cls-1" x="517.8" y="517" width="57.5" height="57.5"/>
  <rect class="cls-1" x="460.3" y="517" width="57.5" height="57.5"/>
  <rect class="cls-1" x="402.8" y="517" width="57.5" height="57.5"/>
  <rect class="cls-1" x="345.3" y="517" width="57.5" height="57.5"/>
  <rect class="cls-2" x="287.7" y="517" width="57.5" height="57.5"/>
  <rect class="cls-3" x="230.2" y="517" width="57.5" height="57.5"/>
  <rect class="cls-5" x="172.7" y="517" width="57.5" height="57.5"/>
  <rect class="cls-5" x="115.2" y="517" width="57.5" height="57.5"/>
  <rect class="cls-5" x="57.6" y="517" width="57.5" height="57.5"/>
  <rect class="cls-3" x=".1" y="517" width="57.5" height="57.5"/>
  <rect class="cls-3" x="1208.2" y="459.4" width="57.5" height="57.5"/>
  <rect class="cls-3" x="1150.6" y="459.4" width="57.5" height="57.5"/>
  <rect class="cls-3" x="1093.1" y="459.4" width="57.5" height="57.5"/>
  <rect class="cls-3" x="1035.6" y="459.4" width="57.5" height="57.5"/>
  <rect class="cls-6" x="978.1" y="459.4" width="57.5" height="57.5"/>
  <rect class="cls-1" x="920.5" y="459.4" width="57.5" height="57.5"/>
  <rect class="cls-7" x="863" y="459.4" width="57.5" height="57.5"/>
  <rect class="cls-7" x="805.5" y="459.4" width="57.5" height="57.5"/>
  <rect class="cls-7" x="748" y="459.4" width="57.5" height="57.5"/>
  <rect class="cls-7" x="690.4" y="459.4" width="57.5" height="57.5"/>
  <rect class="cls-7" x="632.9" y="459.4" width="57.5" height="57.5"/>
  <rect class="cls-7" x="575.4" y="459.4" width="57.5" height="57.5"/>
  <rect class="cls-7" x="517.8" y="459.4" width="57.5" height="57.5"/>
  <rect class="cls-7" x="460.3" y="459.4" width="57.5" height="57.5"/>
  <rect class="cls-7" x="402.8" y="459.4" width="57.5" height="57.5"/>
  <rect class="cls-1" x="345.3" y="459.4" width="57.5" height="57.5"/>
  <rect class="cls-2" x="287.7" y="459.4" width="57.5" height="57.5"/>
  <rect class="cls-3" x="230.2" y="459.4" width="57.5" height="57.5"/>
  <rect class="cls-3" x="172.7" y="459.4" width="57.5" height="57.5"/>
  <rect class="cls-3" x="115.2" y="459.4" width="57.5" height="57.5"/>
  <rect class="cls-3" x="57.6" y="459.4" width="57.5" height="57.5"/>
  <rect class="cls-3" x="1035.6" y="401.9" width="57.5" height="57.5"/>
  <rect class="cls-6" x="978.1" y="401.9" width="57.5" height="57.5"/>
  <rect class="cls-7" x="920.5" y="401.9" width="57.5" height="57.5"/>
  <rect class="cls-7" x="863" y="401.9" width="57.5" height="57.5"/>
  <rect class="cls-7" x="805.5" y="401.9" width="57.5" height="57.5"/>
  <rect class="cls-7" x="748" y="401.9" width="57.5" height="57.5"/>
  <rect class="cls-7" x="690.4" y="401.9" width="57.5" height="57.5"/>
  <rect class="cls-7" x="632.9" y="401.9" width="57.5" height="57.5"/>
  <rect class="cls-7" x="575.4" y="401.9" width="57.5" height="57.5"/>
  <rect class="cls-7" x="517.8" y="401.9" width="57.5" height="57.5"/>
  <rect class="cls-7" x="460.3" y="401.9" width="57.5" height="57.5"/>
  <rect class="cls-7" x="402.8" y="401.9" width="57.5" height="57.5"/>
  <rect class="cls-7" x="345.3" y="401.9" width="57.5" height="57.5"/>
  <rect class="cls-2" x="287.7" y="401.9" width="57.5" height="57.5"/>
  <rect class="cls-3" x="230.2" y="401.9" width="57.5" height="57.5"/>
  <rect class="cls-3" x="1035.6" y="344.4" width="57.5" height="57.5"/>
  <rect class="cls-4" x="978.1" y="344.4" width="57.5" height="57.5"/>
  <rect class="cls-7" x="920.5" y="344.4" width="57.5" height="57.5"/>
  <rect class="cls-7" x="863" y="344.4" width="57.5" height="57.5"/>
  <rect class="cls-7" x="805.5" y="344.4" width="57.5" height="57.5"/>
  <rect class="cls-7" x="748" y="344.4" width="57.5" height="57.5"/>
  <rect class="cls-7" x="690.4" y="344.4" width="57.5" height="57.5"/>
  <rect class="cls-7" x="632.9" y="344.4" width="57.5" height="57.5"/>
  <rect class="cls-7" x="575.4" y="344.4" width="57.5" height="57.5"/>
  <rect class="cls-7" x="517.8" y="344.4" width="57.5" height="57.5"/>
  <rect class="cls-7" x="460.3" y="344.4" width="57.5" height="57.5"/>
  <rect class="cls-7" x="402.8" y="344.4" width="57.5" height="57.5"/>
  <rect class="cls-7" x="345.3" y="344.4" width="57.5" height="57.5"/>
  <rect class="cls-5" x="287.7" y="344.4" width="57.5" height="57.5"/>
  <rect class="cls-3" x="230.2" y="344.4" width="57.5" height="57.5"/>
  <rect class="cls-3" x="1035.6" y="286.9" width="57.5" height="57.5"/>
  <rect class="cls-4" x="978.1" y="286.9" width="57.5" height="57.5"/>
  <rect class="cls-4" x="920.5" y="286.9" width="57.5" height="57.5"/>
  <rect class="cls-7" x="863" y="286.9" width="57.5" height="57.5"/>
  <rect class="cls-7" x="805.5" y="286.9" width="57.5" height="57.5"/>
  <rect class="cls-7" x="748" y="286.9" width="57.5" height="57.5"/>
  <rect class="cls-7" x="690.4" y="286.9" width="57.5" height="57.5"/>
  <rect class="cls-7" x="632.9" y="286.9" width="57.5" height="57.5"/>
  <rect class="cls-7" x="575.4" y="286.9" width="57.5" height="57.5"/>
  <rect class="cls-7" x="517.8" y="286.9" width="57.5" height="57.5"/>
  <rect class="cls-7" x="460.3" y="286.9" width="57.5" height="57.5"/>
  <rect class="cls-7" x="402.8" y="286.9" width="57.5" height="57.5"/>
  <rect class="cls-7" x="345.3" y="286.9" width="57.5" height="57.5"/>
  <rect class="cls-5" x="287.7" y="286.9" width="57.5" height="57.5"/>
  <rect class="cls-3" x="230.2" y="286.9" width="57.5" height="57.5"/>
  <rect class="cls-3" x="978.1" y="229.3" width="57.5" height="57.5"/>
  <rect class="cls-4" x="920.5" y="229.3" width="57.5" height="57.5"/>
  <rect class="cls-7" x="863" y="229.3" width="57.5" height="57.5"/>
  <rect class="cls-7" x="805.5" y="229.3" width="57.5" height="57.5"/>
  <rect class="cls-7" x="748" y="229.3" width="57.5" height="57.5"/>
  <rect class="cls-7" x="690.4" y="229.3" width="57.5" height="57.5"/>
  <rect class="cls-7" x="632.9" y="229.3" width="57.5" height="57.5"/>
  <rect class="cls-7" x="575.4" y="229.3" width="57.5" height="57.5"/>
  <rect class="cls-7" x="517.8" y="229.3" width="57.5" height="57.5"/>
  <rect class="cls-7" x="460.3" y="229.3" width="57.5" height="57.5"/>
  <rect class="cls-7" x="402.8" y="229.3" width="57.5" height="57.5"/>
  <rect class="cls-5" x="345.3" y="229.3" width="57.5" height="57.5"/>
  <rect class="cls-3" x="287.7" y="229.3" width="57.5" height="57.5"/>
  <rect class="cls-3" x="978.1" y="171.8" width="57.5" height="57.5"/>
  <rect class="cls-4" x="920.5" y="171.8" width="57.5" height="57.5"/>
  <rect class="cls-4" x="863" y="171.8" width="57.5" height="57.5"/>
  <rect class="cls-7" x="805.5" y="171.8" width="57.5" height="57.5"/>
  <rect class="cls-5" x="748" y="171.8" width="57.5" height="57.5"/>
  <rect class="cls-5" x="690.4" y="171.8" width="57.5" height="57.5"/>
  <rect class="cls-5" x="632.9" y="171.8" width="57.5" height="57.5"/>
  <rect class="cls-7" x="575.4" y="171.8" width="57.5" height="57.5"/>
  <rect class="cls-7" x="517.8" y="171.8" width="57.5" height="57.5"/>
  <rect class="cls-7" x="460.3" y="171.8" width="57.5" height="57.5"/>
  <rect class="cls-5" x="402.8" y="171.8" width="57.5" height="57.5"/>
  <rect class="cls-5" x="345.3" y="171.8" width="57.5" height="57.5"/>
  <rect class="cls-3" x="287.7" y="171.8" width="57.5" height="57.5"/>
  <rect class="cls-3" x="920.5" y="114.3" width="57.5" height="57.5"/>
  <rect class="cls-4" x="863" y="114.3" width="57.5" height="57.5"/>
  <rect class="cls-7" x="805.5" y="114.3" width="57.5" height="57.5"/>
  <rect class="cls-5" x="748" y="114.3" width="57.5" height="57.5"/>
  <rect class="cls-3" x="690.4" y="114.3" width="57.5" height="57.5"/>
  <rect class="cls-3" x="632.9" y="114.3" width="57.5" height="57.5"/>
  <rect class="cls-3" x="575.4" y="114.3" width="57.5" height="57.5"/>
  <rect class="cls-7" x="517.8" y="114.3" width="57.5" height="57.5"/>
  <rect class="cls-7" x="460.3" y="114.3" width="57.5" height="57.5"/>
  <rect class="cls-5" x="402.8" y="114.3" width="57.5" height="57.5"/>
  <rect class="cls-3" x="345.3" y="114.3" width="57.5" height="57.5"/>
  <rect class="cls-3" x="920.5" y="56.8" width="57.5" height="57.5"/>
  <rect class="cls-5" x="863" y="56.8" width="57.5" height="57.5"/>
  <rect class="cls-5" x="805.5" y="56.8" width="57.5" height="57.5"/>
  <rect class="cls-5" x="748" y="56.8" width="57.5" height="57.5"/>
  <rect class="cls-3" x="690.4" y="56.8" width="57.5" height="57.5"/>
  <rect class="cls-3" x="575.4" y="56.8" width="57.5" height="57.5"/>
  <rect class="cls-5" x="517.8" y="56.8" width="57.5" height="57.5"/>
  <rect class="cls-5" x="460.3" y="56.8" width="57.5" height="57.5"/>
  <rect class="cls-5" x="402.8" y="56.8" width="57.5" height="57.5"/>
  <rect class="cls-3" x="345.3" y="56.8" width="57.5" height="57.5"/>
  <rect class="cls-3" x="863" y="-.8" width="57.5" height="57.5"/>
  <rect class="cls-3" x="805.5" y="-.8" width="57.5" height="57.5"/>
  <rect class="cls-3" x="748" y="-.8" width="57.5" height="57.5"/>
  <rect class="cls-3" x="517.8" y="-.8" width="57.5" height="57.5"/>
  <rect class="cls-3" x="460.3" y="-.8" width="57.5" height="57.5"/>
  <rect class="cls-3" x="402.8" y="-.8" width="57.5" height="57.5"/>
</svg>