<?xml version="1.0" encoding="UTF-8"?>
<svg id="Layer_1" data-name="Layer 1" xmlns="http://www.w3.org/2000/svg" version="1.1" viewBox="0 0 240.8 114.1">
  <defs>
    <style>
      .cls-1 {
        fill: #cfbf5f;
      }

      .cls-1, .cls-2, .cls-3, .cls-4, .cls-5, .cls-6, .cls-7, .cls-8, .cls-9, .cls-10, .cls-11, .cls-12 {
        stroke-width: 0px;
      }

      .cls-2 {
        fill: #e6da78;
      }

      .cls-3 {
        fill: #eaeaea;
      }

      .cls-4 {
        fill: #191919;
      }

      .cls-5 {
        fill: #2d2d2d;
      }

      .cls-6 {
        fill: #fecccb;
      }

      .cls-7 {
        fill: #f3e897;
      }

      .cls-8 {
        fill: #000;
      }

      .cls-9 {
        fill: #fab6b5;
      }

      .cls-10 {
        fill: #ccc;
      }

      .cls-11 {
        fill: #f38a84;
      }

      .cls-12 {
        fill: #fff;
      }
    </style>
  </defs>
  <g>
    <rect class="cls-8" x="206" y="102.7" width="11.4" height="11.4"/>
    <rect class="cls-8" x="194.6" y="102.7" width="11.4" height="11.4"/>
    <rect class="cls-8" x="183.2" y="102.7" width="11.4" height="11.4"/>
    <rect class="cls-8" x="171.7" y="102.7" width="11.4" height="11.4"/>
    <rect class="cls-8" x="160.3" y="102.7" width="11.4" height="11.4"/>
    <rect class="cls-8" x="148.9" y="102.7" width="11.4" height="11.4"/>
    <rect class="cls-8" x="137.5" y="102.7" width="11.4" height="11.4"/>
    <rect class="cls-8" x="126.1" y="102.7" width="11.4" height="11.4"/>
    <rect class="cls-8" x="114.7" y="102.7" width="11.4" height="11.4"/>
    <rect class="cls-8" x="103.3" y="102.7" width="11.4" height="11.4"/>
    <rect class="cls-8" x="91.9" y="102.7" width="11.4" height="11.4"/>
    <rect class="cls-8" x="80.5" y="102.7" width="11.4" height="11.4"/>
    <rect class="cls-8" x="69.1" y="102.7" width="11.4" height="11.4"/>
    <rect class="cls-8" x="57.6" y="102.7" width="11.4" height="11.4"/>
    <rect class="cls-8" x="46.2" y="102.7" width="11.4" height="11.4"/>
    <rect class="cls-8" x="34.8" y="102.7" width="11.4" height="11.4"/>
    <rect class="cls-8" x="23.4" y="102.7" width="11.4" height="11.4"/>
    <rect class="cls-8" x="217.4" y="91.3" width="11.4" height="11.4"/>
    <rect class="cls-10" x="206" y="91.3" width="11.4" height="11.4"/>
    <rect class="cls-10" x="194.6" y="91.3" width="11.4" height="11.4"/>
    <rect class="cls-10" x="183.2" y="91.3" width="11.4" height="11.4"/>
    <rect class="cls-10" x="171.7" y="91.3" width="11.4" height="11.4"/>
    <rect class="cls-10" x="160.3" y="91.3" width="11.4" height="11.4"/>
    <rect class="cls-10" x="148.9" y="91.3" width="11.4" height="11.4"/>
    <rect class="cls-10" x="137.5" y="91.3" width="11.4" height="11.4"/>
    <rect class="cls-10" x="126.1" y="91.3" width="11.4" height="11.4"/>
    <rect class="cls-10" x="114.7" y="91.3" width="11.4" height="11.4"/>
    <rect class="cls-10" x="103.3" y="91.3" width="11.4" height="11.4"/>
    <rect class="cls-10" x="91.9" y="91.3" width="11.4" height="11.4"/>
    <rect class="cls-10" x="80.5" y="91.3" width="11.4" height="11.4"/>
    <rect class="cls-10" x="69.1" y="91.3" width="11.4" height="11.4"/>
    <rect class="cls-10" x="57.6" y="91.3" width="11.4" height="11.4"/>
    <rect class="cls-10" x="46.2" y="91.3" width="11.4" height="11.4"/>
    <rect class="cls-10" x="34.8" y="91.3" width="11.4" height="11.4"/>
    <rect class="cls-10" x="23.4" y="91.3" width="11.4" height="11.4"/>
    <rect class="cls-8" x="12" y="91.3" width="11.4" height="11.4"/>
    <rect class="cls-8" x="228.8" y="79.9" width="11.4" height="11.4"/>
    <rect class="cls-10" x="217.4" y="79.9" width="11.4" height="11.4"/>
    <rect class="cls-3" x="206" y="79.9" width="11.4" height="11.4"/>
    <rect class="cls-3" x="194.6" y="79.9" width="11.4" height="11.4"/>
    <rect class="cls-3" x="183.2" y="79.9" width="11.4" height="11.4"/>
    <rect class="cls-3" x="171.7" y="79.9" width="11.4" height="11.4"/>
    <rect class="cls-3" x="160.3" y="79.9" width="11.4" height="11.4"/>
    <rect class="cls-3" x="148.9" y="79.9" width="11.4" height="11.4"/>
    <rect class="cls-3" x="137.5" y="79.9" width="11.4" height="11.4"/>
    <rect class="cls-3" x="126.1" y="79.9" width="11.4" height="11.4"/>
    <rect class="cls-3" x="114.7" y="79.9" width="11.4" height="11.4"/>
    <rect class="cls-3" x="103.3" y="79.9" width="11.4" height="11.4"/>
    <rect class="cls-3" x="91.9" y="79.9" width="11.4" height="11.4"/>
    <rect class="cls-3" x="80.5" y="79.9" width="11.4" height="11.4"/>
    <rect class="cls-3" x="69.1" y="79.9" width="11.4" height="11.4"/>
    <rect class="cls-3" x="57.6" y="79.9" width="11.4" height="11.4"/>
    <rect class="cls-3" x="46.2" y="79.9" width="11.4" height="11.4"/>
    <rect class="cls-3" x="34.8" y="79.9" width="11.4" height="11.4"/>
    <rect class="cls-3" x="23.4" y="79.9" width="11.4" height="11.4"/>
    <rect class="cls-12" x="12" y="79.9" width="11.4" height="11.4"/>
    <rect class="cls-8" x=".6" y="79.9" width="11.4" height="11.4"/>
    <rect class="cls-8" x="228.8" y="68.5" width="11.4" height="11.4"/>
    <rect class="cls-10" x="217.4" y="68.5" width="11.4" height="11.4"/>
    <rect class="cls-3" x="206" y="68.5" width="11.4" height="11.4"/>
    <rect class="cls-3" x="194.6" y="68.5" width="11.4" height="11.4"/>
    <rect class="cls-3" x="183.2" y="68.5" width="11.4" height="11.4"/>
    <rect class="cls-3" x="171.7" y="68.5" width="11.4" height="11.4"/>
    <rect class="cls-3" x="160.3" y="68.5" width="11.4" height="11.4"/>
    <rect class="cls-3" x="148.9" y="68.5" width="11.4" height="11.4"/>
    <rect class="cls-3" x="137.5" y="68.5" width="11.4" height="11.4"/>
    <rect class="cls-3" x="126.1" y="68.5" width="11.4" height="11.4"/>
    <rect class="cls-3" x="114.7" y="68.5" width="11.4" height="11.4"/>
    <rect class="cls-3" x="103.3" y="68.5" width="11.4" height="11.4"/>
    <rect class="cls-3" x="91.9" y="68.5" width="11.4" height="11.4"/>
    <rect class="cls-3" x="80.5" y="68.5" width="11.4" height="11.4"/>
    <rect class="cls-3" x="69.1" y="68.5" width="11.4" height="11.4"/>
    <rect class="cls-3" x="57.6" y="68.5" width="11.4" height="11.4"/>
    <rect class="cls-3" x="46.2" y="68.5" width="11.4" height="11.4"/>
    <rect class="cls-3" x="34.8" y="68.5" width="11.4" height="11.4"/>
    <rect class="cls-3" x="23.4" y="68.5" width="11.4" height="11.4"/>
    <rect class="cls-12" x="12" y="68.5" width="11.4" height="11.4"/>
    <rect class="cls-8" x=".6" y="68.5" width="11.4" height="11.4"/>
    <rect class="cls-8" x="228.8" y="57" width="11.4" height="11.4"/>
    <rect class="cls-10" x="217.4" y="57" width="11.4" height="11.4"/>
    <rect class="cls-3" x="206" y="57" width="11.4" height="11.4"/>
    <rect class="cls-3" x="194.6" y="57" width="11.4" height="11.4"/>
    <rect class="cls-3" x="183.2" y="57" width="11.4" height="11.4"/>
    <rect class="cls-3" x="171.7" y="57" width="11.4" height="11.4"/>
    <rect class="cls-3" x="160.3" y="57" width="11.4" height="11.4"/>
    <rect class="cls-3" x="148.9" y="57" width="11.4" height="11.4"/>
    <rect class="cls-3" x="137.5" y="57" width="11.4" height="11.4"/>
    <rect class="cls-3" x="126.1" y="57" width="11.4" height="11.4"/>
    <rect class="cls-3" x="114.7" y="57" width="11.4" height="11.4"/>
    <rect class="cls-3" x="103.3" y="57" width="11.4" height="11.4"/>
    <rect class="cls-3" x="91.9" y="57" width="11.4" height="11.4"/>
    <rect class="cls-3" x="80.5" y="57" width="11.4" height="11.4"/>
    <rect class="cls-3" x="69.1" y="57" width="11.4" height="11.4"/>
    <rect class="cls-3" x="57.6" y="57" width="11.4" height="11.4"/>
    <rect class="cls-3" x="46.2" y="57" width="11.4" height="11.4"/>
    <rect class="cls-3" x="34.8" y="57" width="11.4" height="11.4"/>
    <rect class="cls-3" x="23.4" y="57" width="11.4" height="11.4"/>
    <rect class="cls-12" x="12" y="57" width="11.4" height="11.4"/>
    <rect class="cls-8" x=".6" y="57" width="11.4" height="11.4"/>
    <rect class="cls-8" x="228.8" y="45.6" width="11.4" height="11.4"/>
    <rect class="cls-10" x="217.4" y="45.6" width="11.4" height="11.4"/>
    <rect class="cls-3" x="206" y="45.6" width="11.4" height="11.4"/>
    <rect class="cls-3" x="194.6" y="45.6" width="11.4" height="11.4"/>
    <rect class="cls-3" x="183.2" y="45.6" width="11.4" height="11.4"/>
    <rect class="cls-3" x="171.7" y="45.6" width="11.4" height="11.4"/>
    <rect class="cls-3" x="160.3" y="45.6" width="11.4" height="11.4"/>
    <rect class="cls-3" x="148.9" y="45.6" width="11.4" height="11.4"/>
    <rect class="cls-3" x="137.5" y="45.6" width="11.4" height="11.4"/>
    <rect class="cls-3" x="126.1" y="45.6" width="11.4" height="11.4"/>
    <rect class="cls-3" x="114.7" y="45.6" width="11.4" height="11.4"/>
    <rect class="cls-3" x="103.3" y="45.6" width="11.4" height="11.4"/>
    <rect class="cls-3" x="91.9" y="45.6" width="11.4" height="11.4"/>
    <rect class="cls-3" x="80.5" y="45.6" width="11.4" height="11.4"/>
    <rect class="cls-3" x="69.1" y="45.6" width="11.4" height="11.4"/>
    <rect class="cls-3" x="57.6" y="45.6" width="11.4" height="11.4"/>
    <rect class="cls-3" x="46.2" y="45.6" width="11.4" height="11.4"/>
    <rect class="cls-3" x="34.8" y="45.6" width="11.4" height="11.4"/>
    <rect class="cls-3" x="23.4" y="45.6" width="11.4" height="11.4"/>
    <rect class="cls-12" x="12" y="45.6" width="11.4" height="11.4"/>
    <rect class="cls-8" x=".6" y="45.6" width="11.4" height="11.4"/>
    <rect class="cls-8" x="228.8" y="34.2" width="11.4" height="11.4"/>
    <rect class="cls-10" x="217.4" y="34.2" width="11.4" height="11.4"/>
    <rect class="cls-3" x="206" y="34.2" width="11.4" height="11.4"/>
    <rect class="cls-3" x="194.6" y="34.2" width="11.4" height="11.4"/>
    <rect class="cls-3" x="183.2" y="34.2" width="11.4" height="11.4"/>
    <rect class="cls-3" x="171.7" y="34.2" width="11.4" height="11.4"/>
    <rect class="cls-3" x="160.3" y="34.2" width="11.4" height="11.4"/>
    <rect class="cls-3" x="148.9" y="34.2" width="11.4" height="11.4"/>
    <rect class="cls-3" x="137.5" y="34.2" width="11.4" height="11.4"/>
    <rect class="cls-3" x="126.1" y="34.2" width="11.4" height="11.4"/>
    <rect class="cls-3" x="114.7" y="34.2" width="11.4" height="11.4"/>
    <rect class="cls-3" x="103.3" y="34.2" width="11.4" height="11.4"/>
    <rect class="cls-3" x="91.9" y="34.2" width="11.4" height="11.4"/>
    <rect class="cls-3" x="80.5" y="34.2" width="11.4" height="11.4"/>
    <rect class="cls-3" x="69.1" y="34.2" width="11.4" height="11.4"/>
    <rect class="cls-3" x="57.6" y="34.2" width="11.4" height="11.4"/>
    <rect class="cls-3" x="46.2" y="34.2" width="11.4" height="11.4"/>
    <rect class="cls-3" x="34.8" y="34.2" width="11.4" height="11.4"/>
    <rect class="cls-3" x="23.4" y="34.2" width="11.4" height="11.4"/>
    <rect class="cls-12" x="12" y="34.2" width="11.4" height="11.4"/>
    <rect class="cls-8" x=".6" y="34.2" width="11.4" height="11.4"/>
    <rect class="cls-8" x="228.8" y="22.8" width="11.4" height="11.4"/>
    <rect class="cls-10" x="217.4" y="22.8" width="11.4" height="11.4"/>
    <rect class="cls-3" x="206" y="22.8" width="11.4" height="11.4"/>
    <rect class="cls-3" x="194.6" y="22.8" width="11.4" height="11.4"/>
    <rect class="cls-3" x="183.2" y="22.8" width="11.4" height="11.4"/>
    <rect class="cls-3" x="171.7" y="22.8" width="11.4" height="11.4"/>
    <rect class="cls-3" x="160.3" y="22.8" width="11.4" height="11.4"/>
    <rect class="cls-3" x="148.9" y="22.8" width="11.4" height="11.4"/>
    <rect class="cls-3" x="137.5" y="22.8" width="11.4" height="11.4"/>
    <rect class="cls-3" x="126.1" y="22.8" width="11.4" height="11.4"/>
    <rect class="cls-3" x="114.7" y="22.8" width="11.4" height="11.4"/>
    <rect class="cls-3" x="103.3" y="22.8" width="11.4" height="11.4"/>
    <rect class="cls-3" x="91.9" y="22.8" width="11.4" height="11.4"/>
    <rect class="cls-3" x="80.5" y="22.8" width="11.4" height="11.4"/>
    <rect class="cls-3" x="69.1" y="22.8" width="11.4" height="11.4"/>
    <rect class="cls-3" x="57.6" y="22.8" width="11.4" height="11.4"/>
    <rect class="cls-3" x="46.2" y="22.8" width="11.4" height="11.4"/>
    <rect class="cls-3" x="34.8" y="22.8" width="11.4" height="11.4"/>
    <rect class="cls-3" x="23.4" y="22.8" width="11.4" height="11.4"/>
    <rect class="cls-12" x="12" y="22.8" width="11.4" height="11.4"/>
    <rect class="cls-8" x=".6" y="22.8" width="11.4" height="11.4"/>
    <rect class="cls-8" x="217.4" y="11.4" width="11.4" height="11.4"/>
    <rect class="cls-12" x="206" y="11.4" width="11.4" height="11.4"/>
    <rect class="cls-12" x="194.6" y="11.4" width="11.4" height="11.4"/>
    <rect class="cls-12" x="183.2" y="11.4" width="11.4" height="11.4"/>
    <rect class="cls-12" x="171.7" y="11.4" width="11.4" height="11.4"/>
    <rect class="cls-12" x="160.3" y="11.4" width="11.4" height="11.4"/>
    <rect class="cls-12" x="148.9" y="11.4" width="11.4" height="11.4"/>
    <rect class="cls-12" x="137.5" y="11.4" width="11.4" height="11.4"/>
    <rect class="cls-12" x="126.1" y="11.4" width="11.4" height="11.4"/>
    <rect class="cls-12" x="114.7" y="11.4" width="11.4" height="11.4"/>
    <rect class="cls-12" x="103.3" y="11.4" width="11.4" height="11.4"/>
    <rect class="cls-12" x="91.9" y="11.4" width="11.4" height="11.4"/>
    <rect class="cls-12" x="80.5" y="11.4" width="11.4" height="11.4"/>
    <rect class="cls-12" x="69.1" y="11.4" width="11.4" height="11.4"/>
    <rect class="cls-12" x="57.6" y="11.4" width="11.4" height="11.4"/>
    <rect class="cls-12" x="46.2" y="11.4" width="11.4" height="11.4"/>
    <rect class="cls-12" x="34.8" y="11.4" width="11.4" height="11.4"/>
    <rect class="cls-12" x="23.4" y="11.4" width="11.4" height="11.4"/>
    <rect class="cls-8" x="12" y="11.4" width="11.4" height="11.4"/>
    <rect class="cls-8" x="206" width="11.4" height="11.4"/>
    <rect class="cls-8" x="194.6" width="11.4" height="11.4"/>
    <rect class="cls-8" x="183.2" width="11.4" height="11.4"/>
    <rect class="cls-8" x="171.7" width="11.4" height="11.4"/>
    <rect class="cls-8" x="160.3" width="11.4" height="11.4"/>
    <rect class="cls-8" x="148.9" width="11.4" height="11.4"/>
    <rect class="cls-8" x="137.5" width="11.4" height="11.4"/>
    <rect class="cls-8" x="126.1" width="11.4" height="11.4"/>
    <rect class="cls-8" x="114.7" width="11.4" height="11.4"/>
    <rect class="cls-8" x="103.3" width="11.4" height="11.4"/>
    <rect class="cls-8" x="91.9" width="11.4" height="11.4"/>
    <rect class="cls-8" x="80.5" width="11.4" height="11.4"/>
    <rect class="cls-8" x="69.1" width="11.4" height="11.4"/>
    <rect class="cls-8" x="57.6" width="11.4" height="11.4"/>
    <rect class="cls-8" x="46.2" width="11.4" height="11.4"/>
    <rect class="cls-8" x="34.8" width="11.4" height="11.4"/>
    <rect class="cls-8" x="23.4" width="11.4" height="11.4"/>
  </g>
  <g>
    <rect class="cls-8" x="86.3" y="70.1" width="2.6" height="2.6"/>
    <rect class="cls-8" x="83.7" y="70.1" width="2.6" height="2.6"/>
    <rect class="cls-8" x="81.1" y="70.1" width="2.6" height="2.6"/>
    <rect class="cls-8" x="78.4" y="70.1" width="2.6" height="2.6"/>
    <rect class="cls-8" x="75.8" y="70.1" width="2.6" height="2.6"/>
    <rect class="cls-8" x="70.5" y="70.1" width="2.6" height="2.6"/>
    <rect class="cls-8" x="67.9" y="70.1" width="2.6" height="2.6"/>
    <rect class="cls-8" x="65.3" y="70.1" width="2.6" height="2.6"/>
    <rect class="cls-8" x="62.6" y="70.1" width="2.6" height="2.6"/>
    <rect class="cls-8" x="60" y="70.1" width="2.6" height="2.6"/>
    <rect class="cls-8" x="57.4" y="70.1" width="2.6" height="2.6"/>
    <rect class="cls-8" x="86.3" y="67.5" width="2.6" height="2.6"/>
    <rect class="cls-9" x="83.7" y="67.5" width="2.6" height="2.6"/>
    <rect class="cls-8" x="81.1" y="67.5" width="2.6" height="2.6"/>
    <rect class="cls-9" x="78.4" y="67.5" width="2.6" height="2.6"/>
    <rect class="cls-8" x="75.8" y="67.5" width="2.6" height="2.6"/>
    <rect class="cls-8" x="70.5" y="67.5" width="2.6" height="2.6"/>
    <rect class="cls-9" x="67.9" y="67.5" width="2.6" height="2.6"/>
    <rect class="cls-8" x="65.3" y="67.5" width="2.6" height="2.6"/>
    <rect class="cls-9" x="62.6" y="67.5" width="2.6" height="2.6"/>
    <rect class="cls-9" x="60" y="67.5" width="2.6" height="2.6"/>
    <rect class="cls-8" x="57.4" y="67.5" width="2.6" height="2.6"/>
    <rect class="cls-8" x="89" y="64.9" width="2.6" height="2.6"/>
    <rect class="cls-11" x="86.3" y="64.9" width="2.6" height="2.6"/>
    <rect class="cls-9" x="83.7" y="64.9" width="2.6" height="2.6"/>
    <rect class="cls-9" x="81.1" y="64.9" width="2.6" height="2.6"/>
    <rect class="cls-9" x="78.4" y="64.9" width="2.6" height="2.6"/>
    <rect class="cls-9" x="75.8" y="64.9" width="2.6" height="2.6"/>
    <rect class="cls-8" x="73.2" y="64.9" width="2.6" height="2.6"/>
    <rect class="cls-8" x="70.5" y="64.9" width="2.6" height="2.6"/>
    <rect class="cls-11" x="67.9" y="64.9" width="2.6" height="2.6"/>
    <rect class="cls-9" x="65.3" y="64.9" width="2.6" height="2.6"/>
    <rect class="cls-9" x="62.6" y="64.9" width="2.6" height="2.6"/>
    <rect class="cls-9" x="60" y="64.9" width="2.6" height="2.6"/>
    <rect class="cls-11" x="57.4" y="64.9" width="2.6" height="2.6"/>
    <rect class="cls-8" x="54.7" y="64.9" width="2.6" height="2.6"/>
    <rect class="cls-1" x="52.1" y="72.8" width="2.6" height="2.6"/>
    <rect class="cls-2" x="54.7" y="72.8" width="2.6" height="2.6"/>
    <rect class="cls-7" x="57.4" y="72.8" width="2.6" height="2.6"/>
    <rect class="cls-8" x="46.8" y="72.8" width="2.6" height="2.6"/>
    <rect class="cls-8" x="49.5" y="70.1" width="2.6" height="2.6"/>
    <rect class="cls-8" x="91.6" y="70" width="2.6" height="2.6"/>
    <rect class="cls-8" x="94.2" y="67.4" width="2.6" height="2.6"/>
    <rect class="cls-8" x="96.9" y="67.4" width="2.6" height="2.6"/>
    <rect class="cls-8" x="94.2" y="72.6" width="2.6" height="2.6"/>
    <rect class="cls-8" x="96.9" y="72.6" width="2.6" height="2.6"/>
    <rect class="cls-8" x="99.5" y="70" width="2.6" height="2.6"/>
    <rect class="cls-11" x="96.9" y="70" width="2.6" height="2.6"/>
    <rect class="cls-9" x="94.2" y="70" width="2.6" height="2.6"/>
    <rect class="cls-8" x="99.5" y="72.6" width="2.6" height="2.6"/>
    <rect class="cls-8" x="46.8" y="67.5" width="2.6" height="2.6"/>
    <rect class="cls-8" x="41.6" y="72.8" width="2.6" height="2.6"/>
    <rect class="cls-8" x="38.9" y="70.1" width="2.6" height="2.6"/>
    <rect class="cls-9" x="41.6" y="70.1" width="2.6" height="2.6"/>
    <rect class="cls-9" x="44.2" y="70.1" width="2.6" height="2.6"/>
    <rect class="cls-11" x="46.8" y="70.1" width="2.6" height="2.6"/>
    <rect class="cls-8" x="44.2" y="67.5" width="2.6" height="2.6"/>
    <rect class="cls-8" x="41.6" y="64.9" width="2.6" height="2.6"/>
    <rect class="cls-8" x="38.9" y="67.5" width="2.6" height="2.6"/>
    <rect class="cls-11" x="41.6" y="67.5" width="2.6" height="2.6"/>
    <rect class="cls-8" x="44.2" y="72.8" width="2.6" height="2.6"/>
    <rect class="cls-8" x="94.2" y="62.2" width="2.6" height="2.6"/>
    <rect class="cls-8" x="91.6" y="62.2" width="2.6" height="2.6"/>
    <rect class="cls-8" x="89" y="62.2" width="2.6" height="2.6"/>
    <rect class="cls-8" x="86.3" y="62.2" width="2.6" height="2.6"/>
    <rect class="cls-9" x="83.7" y="62.2" width="2.6" height="2.6"/>
    <rect class="cls-9" x="81.1" y="62.2" width="2.6" height="2.6"/>
    <rect class="cls-9" x="78.4" y="62.2" width="2.6" height="2.6"/>
    <rect class="cls-9" x="75.8" y="62.2" width="2.6" height="2.6"/>
    <rect class="cls-9" x="73.2" y="62.2" width="2.6" height="2.6"/>
    <rect class="cls-9" x="70.5" y="62.2" width="2.6" height="2.6"/>
    <rect class="cls-9" x="67.9" y="62.2" width="2.6" height="2.6"/>
    <rect class="cls-9" x="65.3" y="62.2" width="2.6" height="2.6"/>
    <rect class="cls-9" x="62.6" y="62.2" width="2.6" height="2.6"/>
    <rect class="cls-8" x="60" y="62.2" width="2.6" height="2.6"/>
    <rect class="cls-8" x="57.4" y="62.2" width="2.6" height="2.6"/>
    <rect class="cls-9" x="54.7" y="62.2" width="2.6" height="2.6"/>
    <rect class="cls-8" x="52.1" y="62.2" width="2.6" height="2.6"/>
    <rect class="cls-8" x="96.9" y="59.6" width="2.6" height="2.6"/>
    <rect class="cls-11" x="94.2" y="59.6" width="2.6" height="2.6"/>
    <rect class="cls-11" x="91.6" y="59.6" width="2.6" height="2.6"/>
    <rect class="cls-11" x="89" y="59.6" width="2.6" height="2.6"/>
    <rect class="cls-11" x="86.3" y="59.6" width="2.6" height="2.6"/>
    <rect class="cls-8" x="83.7" y="59.6" width="2.6" height="2.6"/>
    <rect class="cls-9" x="81.1" y="59.6" width="2.6" height="2.6"/>
    <rect class="cls-9" x="78.4" y="59.6" width="2.6" height="2.6"/>
    <rect class="cls-9" x="75.8" y="59.6" width="2.6" height="2.6"/>
    <rect class="cls-9" x="73.2" y="59.6" width="2.6" height="2.6"/>
    <rect class="cls-9" x="70.5" y="59.6" width="2.6" height="2.6"/>
    <rect class="cls-9" x="67.9" y="59.6" width="2.6" height="2.6"/>
    <rect class="cls-9" x="65.3" y="59.6" width="2.6" height="2.6"/>
    <rect class="cls-8" x="62.6" y="59.6" width="2.6" height="2.6"/>
    <rect class="cls-1" x="60" y="59.6" width="2.6" height="2.6"/>
    <rect class="cls-8" x="57.4" y="59.6" width="2.6" height="2.6"/>
    <rect class="cls-9" x="54.7" y="59.6" width="2.6" height="2.6"/>
    <rect class="cls-6" x="52.1" y="59.6" width="2.6" height="2.6"/>
    <rect class="cls-8" x="49.5" y="59.6" width="2.6" height="2.6"/>
    <rect class="cls-8" x="96.9" y="57" width="2.6" height="2.6"/>
    <rect class="cls-8" x="94.2" y="57" width="2.6" height="2.6"/>
    <rect class="cls-11" x="91.6" y="57" width="2.6" height="2.6"/>
    <rect class="cls-8" x="89" y="57" width="2.6" height="2.6"/>
    <rect class="cls-11" x="86.3" y="57" width="2.6" height="2.6"/>
    <rect class="cls-8" x="83.7" y="57" width="2.6" height="2.6"/>
    <rect class="cls-9" x="81.1" y="57" width="2.6" height="2.6"/>
    <rect class="cls-9" x="78.4" y="57" width="2.6" height="2.6"/>
    <rect class="cls-9" x="75.8" y="57" width="2.6" height="2.6"/>
    <rect class="cls-9" x="73.2" y="57" width="2.6" height="2.6"/>
    <rect class="cls-9" x="70.5" y="57" width="2.6" height="2.6"/>
    <rect class="cls-9" x="67.9" y="57" width="2.6" height="2.6"/>
    <rect class="cls-8" x="65.3" y="57" width="2.6" height="2.6"/>
    <rect class="cls-2" x="62.6" y="57" width="2.6" height="2.6"/>
    <rect class="cls-8" x="60" y="57" width="2.6" height="2.6"/>
    <rect class="cls-9" x="57.4" y="57" width="2.6" height="2.6"/>
    <rect class="cls-9" x="54.7" y="57" width="2.6" height="2.6"/>
    <rect class="cls-6" x="52.1" y="57" width="2.6" height="2.6"/>
    <rect class="cls-8" x="49.5" y="57" width="2.6" height="2.6"/>
    <rect class="cls-8" x="96.9" y="54.3" width="2.6" height="2.6"/>
    <rect class="cls-11" x="94.2" y="54.3" width="2.6" height="2.6"/>
    <rect class="cls-11" x="91.6" y="54.3" width="2.6" height="2.6"/>
    <rect class="cls-11" x="89" y="54.3" width="2.6" height="2.6"/>
    <rect class="cls-8" x="86.3" y="54.3" width="2.6" height="2.6"/>
    <rect class="cls-9" x="83.7" y="54.3" width="2.6" height="2.6"/>
    <rect class="cls-9" x="81.1" y="54.3" width="2.6" height="2.6"/>
    <rect class="cls-9" x="78.4" y="54.3" width="2.6" height="2.6"/>
    <rect class="cls-9" x="75.8" y="54.3" width="2.6" height="2.6"/>
    <rect class="cls-9" x="73.2" y="54.3" width="2.6" height="2.6"/>
    <rect class="cls-9" x="70.5" y="54.3" width="2.6" height="2.6"/>
    <rect class="cls-8" x="67.9" y="54.3" width="2.6" height="2.6"/>
    <rect class="cls-2" x="65.3" y="54.3" width="2.6" height="2.6"/>
    <rect class="cls-4" x="62.6" y="54.3" width="2.6" height="2.6"/>
    <rect class="cls-7" x="60" y="54.3" width="2.6" height="2.6"/>
    <rect class="cls-8" x="57.4" y="54.3" width="2.6" height="2.6"/>
    <rect class="cls-9" x="54.7" y="54.3" width="2.6" height="2.6"/>
    <rect class="cls-6" x="52.1" y="54.3" width="2.6" height="2.6"/>
    <rect class="cls-8" x="49.5" y="54.3" width="2.6" height="2.6"/>
    <rect class="cls-8" x="94.2" y="51.7" width="2.6" height="2.6"/>
    <rect class="cls-8" x="91.6" y="51.7" width="2.6" height="2.6"/>
    <rect class="cls-8" x="89" y="51.7" width="2.6" height="2.6"/>
    <rect class="cls-9" x="86.3" y="51.7" width="2.6" height="2.6"/>
    <rect class="cls-9" x="83.7" y="51.7" width="2.6" height="2.6"/>
    <rect class="cls-9" x="81.1" y="51.7" width="2.6" height="2.6"/>
    <rect class="cls-9" x="78.4" y="51.7" width="2.6" height="2.6"/>
    <rect class="cls-9" x="75.8" y="51.7" width="2.6" height="2.6"/>
    <rect class="cls-9" x="73.2" y="51.7" width="2.6" height="2.6"/>
    <rect class="cls-9" x="70.5" y="51.7" width="2.6" height="2.6"/>
    <rect class="cls-9" x="67.9" y="51.7" width="2.6" height="2.6"/>
    <rect class="cls-8" x="65.3" y="51.7" width="2.6" height="2.6"/>
    <rect class="cls-5" x="62.6" y="51.7" width="2.6" height="2.6"/>
    <rect class="cls-4" x="60" y="51.7" width="2.6" height="2.6"/>
    <rect class="cls-4" x="57.4" y="51.7" width="2.6" height="2.6"/>
    <rect class="cls-8" x="54.7" y="51.7" width="2.6" height="2.6"/>
    <rect class="cls-6" x="52.1" y="51.7" width="2.6" height="2.6"/>
    <rect class="cls-8" x="49.5" y="51.7" width="2.6" height="2.6"/>
    <rect class="cls-8" x="94.2" y="49.1" width="2.6" height="2.6"/>
    <rect class="cls-9" x="91.6" y="49.1" width="2.6" height="2.6"/>
    <rect class="cls-9" x="89" y="49.1" width="2.6" height="2.6"/>
    <rect class="cls-8" x="86.3" y="49.1" width="2.6" height="2.6"/>
    <rect class="cls-9" x="83.7" y="49.1" width="2.6" height="2.6"/>
    <rect class="cls-8" x="81.1" y="49.1" width="2.6" height="2.6"/>
    <rect class="cls-6" x="78.4" y="49.1" width="2.6" height="2.6"/>
    <rect class="cls-9" x="75.8" y="49.1" width="2.6" height="2.6"/>
    <rect class="cls-9" x="73.2" y="49.1" width="2.6" height="2.6"/>
    <rect class="cls-9" x="70.5" y="49.1" width="2.6" height="2.6"/>
    <rect class="cls-8" x="67.9" y="49.1" width="2.6" height="2.6"/>
    <rect class="cls-5" x="65.3" y="49.1" width="2.6" height="2.6"/>
    <rect class="cls-4" x="62.6" y="49.1" width="2.6" height="2.6"/>
    <rect class="cls-4" x="60" y="49.1" width="2.6" height="2.6"/>
    <rect class="cls-8" x="57.4" y="49.1" width="2.6" height="2.6"/>
    <rect class="cls-9" x="54.7" y="49.1" width="2.6" height="2.6"/>
    <rect class="cls-6" x="52.1" y="49.1" width="2.6" height="2.6"/>
    <rect class="cls-8" x="49.5" y="49.1" width="2.6" height="2.6"/>
    <rect class="cls-8" x="46.8" y="49.1" width="2.6" height="2.6"/>
    <rect class="cls-8" x="94.2" y="46.4" width="2.6" height="2.6"/>
    <rect class="cls-9" x="91.6" y="46.4" width="2.6" height="2.6"/>
    <rect class="cls-9" x="89" y="46.4" width="2.6" height="2.6"/>
    <rect class="cls-9" x="86.3" y="46.4" width="2.6" height="2.6"/>
    <rect class="cls-9" x="83.7" y="46.4" width="2.6" height="2.6"/>
    <rect class="cls-9" x="81.1" y="46.4" width="2.6" height="2.6"/>
    <rect class="cls-9" x="78.4" y="46.4" width="2.6" height="2.6"/>
    <rect class="cls-9" x="75.8" y="46.4" width="2.6" height="2.6"/>
    <rect class="cls-11" x="73.2" y="46.4" width="2.6" height="2.6"/>
    <rect class="cls-8" x="70.5" y="46.4" width="2.6" height="2.6"/>
    <rect class="cls-5" x="67.9" y="46.4" width="2.6" height="2.6"/>
    <rect class="cls-4" x="65.3" y="46.4" width="2.6" height="2.6"/>
    <rect class="cls-4" x="62.6" y="46.4" width="2.6" height="2.6"/>
    <rect class="cls-8" x="60" y="46.4" width="2.6" height="2.6"/>
    <rect class="cls-9" x="57.4" y="46.4" width="2.6" height="2.6"/>
    <rect class="cls-6" x="54.7" y="46.4" width="2.6" height="2.6"/>
    <rect class="cls-8" x="52.1" y="46.4" width="2.6" height="2.6"/>
    <rect class="cls-8" x="44.2" y="46.4" width="2.6" height="2.6"/>
    <rect class="cls-8" x="91.6" y="43.8" width="2.6" height="2.6"/>
    <rect class="cls-9" x="89" y="43.8" width="2.6" height="2.6"/>
    <rect class="cls-9" x="86.3" y="43.8" width="2.6" height="2.6"/>
    <rect class="cls-9" x="83.7" y="43.8" width="2.6" height="2.6"/>
    <rect class="cls-9" x="81.1" y="43.8" width="2.6" height="2.6"/>
    <rect class="cls-9" x="78.4" y="43.8" width="2.6" height="2.6"/>
    <rect class="cls-6" x="75.8" y="43.8" width="2.6" height="2.6"/>
    <rect class="cls-8" x="73.2" y="43.8" width="2.6" height="2.6"/>
    <rect class="cls-8" x="67.9" y="43.8" width="2.6" height="2.6"/>
    <rect class="cls-4" x="65.3" y="43.8" width="2.6" height="2.6"/>
    <rect class="cls-8" x="62.6" y="43.8" width="2.6" height="2.6"/>
    <rect class="cls-6" x="60" y="43.8" width="2.6" height="2.6"/>
    <rect class="cls-6" x="57.4" y="43.8" width="2.6" height="2.6"/>
    <rect class="cls-8" x="54.7" y="43.8" width="2.6" height="2.6"/>
    <rect class="cls-8" x="46.8" y="43.8" width="2.6" height="2.6"/>
    <rect class="cls-8" x="91.6" y="41.2" width="2.6" height="2.6"/>
    <rect class="cls-9" x="89" y="41.2" width="2.6" height="2.6"/>
    <rect class="cls-6" x="86.3" y="41.2" width="2.6" height="2.6"/>
    <rect class="cls-8" x="83.7" y="41.2" width="2.6" height="2.6"/>
    <rect class="cls-8" x="81.1" y="41.2" width="2.6" height="2.6"/>
    <rect class="cls-9" x="78.4" y="41.2" width="2.6" height="2.6"/>
    <rect class="cls-8" x="75.8" y="41.2" width="2.6" height="2.6"/>
    <rect class="cls-8" x="73.2" y="41.2" width="2.6" height="2.6"/>
    <rect class="cls-8" x="65.3" y="41.2" width="2.6" height="2.6"/>
    <rect class="cls-8" x="62.6" y="41.2" width="2.6" height="2.6"/>
    <rect class="cls-8" x="60" y="41.2" width="2.6" height="2.6"/>
    <rect class="cls-8" x="57.4" y="41.2" width="2.6" height="2.6"/>
    <rect class="cls-8" x="91.6" y="38.6" width="2.6" height="2.6"/>
    <rect class="cls-6" x="89" y="38.6" width="2.6" height="2.6"/>
    <rect class="cls-8" x="86.3" y="38.6" width="2.6" height="2.6"/>
    <rect class="cls-8" x="81.1" y="38.6" width="2.6" height="2.6"/>
    <rect class="cls-6" x="78.4" y="38.6" width="2.6" height="2.6"/>
    <rect class="cls-8" x="75.8" y="38.6" width="2.6" height="2.6"/>
    <rect class="cls-8" x="89" y="35.9" width="2.6" height="2.6"/>
    <rect class="cls-8" x="86.3" y="35.9" width="2.6" height="2.6"/>
    <rect class="cls-8" x="78.4" y="35.9" width="2.6" height="2.6"/>
    <rect class="cls-8" x="75.8" y="35.9" width="2.6" height="2.6"/>
  </g>
</svg>