<?xml version="1.0" encoding="UTF-8"?>
<svg id="Layer_1" data-name="Layer 1" xmlns="http://www.w3.org/2000/svg" version="1.1" viewBox="0 0 240.8 114.1">
  <defs>
    <style>
      .cls-1 {
        fill: #cfbf5f;
      }

      .cls-1, .cls-2, .cls-3, .cls-4, .cls-5, .cls-6, .cls-7, .cls-8 {
        stroke-width: 0px;
      }

      .cls-2 {
        fill: #e6da78;
      }

      .cls-3 {
        fill: #eaeaea;
      }

      .cls-4 {
        fill: #000;
      }

      .cls-5 {
        fill: #fff9d9;
      }

      .cls-6 {
        fill: #ccc;
      }

      .cls-7 {
        fill: #fff;
      }

      .cls-8 {
        fill: #8e7b28;
      }
    </style>
  </defs>
  <g>
    <rect class="cls-4" x="206.2" y="102.8" width="11.4" height="11.4"/>
    <rect class="cls-4" x="194.7" y="102.8" width="11.4" height="11.4"/>
    <rect class="cls-4" x="183.3" y="102.8" width="11.4" height="11.4"/>
    <rect class="cls-4" x="171.8" y="102.8" width="11.4" height="11.4"/>
    <rect class="cls-4" x="160.4" y="102.8" width="11.4" height="11.4"/>
    <rect class="cls-4" x="149" y="102.8" width="11.4" height="11.4"/>
    <rect class="cls-4" x="137.5" y="102.8" width="11.4" height="11.4"/>
    <rect class="cls-4" x="126.1" y="102.8" width="11.4" height="11.4"/>
    <rect class="cls-4" x="114.7" y="102.8" width="11.4" height="11.4"/>
    <rect class="cls-4" x="103.2" y="102.8" width="11.4" height="11.4"/>
    <rect class="cls-4" x="91.8" y="102.8" width="11.4" height="11.4"/>
    <rect class="cls-4" x="80.4" y="102.8" width="11.4" height="11.4"/>
    <rect class="cls-4" x="68.9" y="102.8" width="11.4" height="11.4"/>
    <rect class="cls-4" x="57.5" y="102.8" width="11.4" height="11.4"/>
    <rect class="cls-4" x="46.1" y="102.8" width="11.4" height="11.4"/>
    <rect class="cls-4" x="34.6" y="102.8" width="11.4" height="11.4"/>
    <rect class="cls-4" x="23.2" y="102.8" width="11.4" height="11.4"/>
    <rect class="cls-4" x="217.6" y="91.3" width="11.4" height="11.4"/>
    <rect class="cls-6" x="206.2" y="91.3" width="11.4" height="11.4"/>
    <rect class="cls-6" x="194.7" y="91.3" width="11.4" height="11.4"/>
    <rect class="cls-6" x="183.3" y="91.3" width="11.4" height="11.4"/>
    <rect class="cls-6" x="171.8" y="91.3" width="11.4" height="11.4"/>
    <rect class="cls-6" x="160.4" y="91.3" width="11.4" height="11.4"/>
    <rect class="cls-6" x="149" y="91.3" width="11.4" height="11.4"/>
    <rect class="cls-6" x="137.5" y="91.3" width="11.4" height="11.4"/>
    <rect class="cls-6" x="126.1" y="91.3" width="11.4" height="11.4"/>
    <rect class="cls-6" x="114.7" y="91.3" width="11.4" height="11.4"/>
    <rect class="cls-6" x="103.2" y="91.3" width="11.4" height="11.4"/>
    <rect class="cls-6" x="91.8" y="91.3" width="11.4" height="11.4"/>
    <rect class="cls-6" x="80.4" y="91.3" width="11.4" height="11.4"/>
    <rect class="cls-6" x="68.9" y="91.3" width="11.4" height="11.4"/>
    <rect class="cls-6" x="57.5" y="91.3" width="11.4" height="11.4"/>
    <rect class="cls-6" x="46.1" y="91.3" width="11.4" height="11.4"/>
    <rect class="cls-6" x="34.6" y="91.3" width="11.4" height="11.4"/>
    <rect class="cls-6" x="23.2" y="91.3" width="11.4" height="11.4"/>
    <rect class="cls-4" x="11.7" y="91.3" width="11.4" height="11.4"/>
    <rect class="cls-4" x="229" y="79.9" width="11.4" height="11.4"/>
    <rect class="cls-6" x="217.6" y="79.9" width="11.4" height="11.4"/>
    <rect class="cls-3" x="206.2" y="79.9" width="11.4" height="11.4"/>
    <rect class="cls-3" x="194.7" y="79.9" width="11.4" height="11.4"/>
    <rect class="cls-3" x="183.3" y="79.9" width="11.4" height="11.4"/>
    <rect class="cls-3" x="171.8" y="79.9" width="11.4" height="11.4"/>
    <rect class="cls-3" x="160.4" y="79.9" width="11.4" height="11.4"/>
    <rect class="cls-3" x="149" y="79.9" width="11.4" height="11.4"/>
    <rect class="cls-3" x="137.5" y="79.9" width="11.4" height="11.4"/>
    <rect class="cls-3" x="126.1" y="79.9" width="11.4" height="11.4"/>
    <rect class="cls-3" x="114.7" y="79.9" width="11.4" height="11.4"/>
    <rect class="cls-3" x="103.2" y="79.9" width="11.4" height="11.4"/>
    <rect class="cls-3" x="91.8" y="79.9" width="11.4" height="11.4"/>
    <rect class="cls-3" x="80.4" y="79.9" width="11.4" height="11.4"/>
    <rect class="cls-3" x="68.9" y="79.9" width="11.4" height="11.4"/>
    <rect class="cls-3" x="57.5" y="79.9" width="11.4" height="11.4"/>
    <rect class="cls-3" x="46.1" y="79.9" width="11.4" height="11.4"/>
    <rect class="cls-3" x="34.6" y="79.9" width="11.4" height="11.4"/>
    <rect class="cls-3" x="23.2" y="79.9" width="11.4" height="11.4"/>
    <rect class="cls-7" x="11.7" y="79.9" width="11.4" height="11.4"/>
    <rect class="cls-4" x=".3" y="79.9" width="11.4" height="11.4"/>
    <rect class="cls-4" x="229" y="68.5" width="11.4" height="11.4"/>
    <rect class="cls-6" x="217.6" y="68.5" width="11.4" height="11.4"/>
    <rect class="cls-3" x="206.2" y="68.5" width="11.4" height="11.4"/>
    <rect class="cls-3" x="194.7" y="68.5" width="11.4" height="11.4"/>
    <rect class="cls-3" x="183.3" y="68.5" width="11.4" height="11.4"/>
    <rect class="cls-3" x="171.8" y="68.5" width="11.4" height="11.4"/>
    <rect class="cls-3" x="160.4" y="68.5" width="11.4" height="11.4"/>
    <rect class="cls-3" x="149" y="68.5" width="11.4" height="11.4"/>
    <rect class="cls-3" x="137.5" y="68.5" width="11.4" height="11.4"/>
    <rect class="cls-3" x="126.1" y="68.5" width="11.4" height="11.4"/>
    <rect class="cls-3" x="114.7" y="68.5" width="11.4" height="11.4"/>
    <rect class="cls-3" x="103.2" y="68.5" width="11.4" height="11.4"/>
    <rect class="cls-3" x="91.8" y="68.5" width="11.4" height="11.4"/>
    <rect class="cls-3" x="80.4" y="68.5" width="11.4" height="11.4"/>
    <rect class="cls-3" x="68.9" y="68.5" width="11.4" height="11.4"/>
    <rect class="cls-3" x="57.5" y="68.5" width="11.4" height="11.4"/>
    <rect class="cls-3" x="46.1" y="68.5" width="11.4" height="11.4"/>
    <rect class="cls-3" x="34.6" y="68.5" width="11.4" height="11.4"/>
    <rect class="cls-3" x="23.2" y="68.5" width="11.4" height="11.4"/>
    <rect class="cls-7" x="11.7" y="68.5" width="11.4" height="11.4"/>
    <rect class="cls-4" x=".3" y="68.5" width="11.4" height="11.4"/>
    <rect class="cls-4" x="229" y="57" width="11.4" height="11.4"/>
    <rect class="cls-6" x="217.6" y="57" width="11.4" height="11.4"/>
    <rect class="cls-3" x="206.2" y="57" width="11.4" height="11.4"/>
    <rect class="cls-3" x="194.7" y="57" width="11.4" height="11.4"/>
    <rect class="cls-3" x="183.3" y="57" width="11.4" height="11.4"/>
    <rect class="cls-3" x="171.8" y="57" width="11.4" height="11.4"/>
    <rect class="cls-3" x="160.4" y="57" width="11.4" height="11.4"/>
    <rect class="cls-3" x="149" y="57" width="11.4" height="11.4"/>
    <rect class="cls-3" x="137.5" y="57" width="11.4" height="11.4"/>
    <rect class="cls-3" x="126.1" y="57" width="11.4" height="11.4"/>
    <rect class="cls-3" x="114.7" y="57" width="11.4" height="11.4"/>
    <rect class="cls-3" x="103.2" y="57" width="11.4" height="11.4"/>
    <rect class="cls-3" x="91.8" y="57" width="11.4" height="11.4"/>
    <rect class="cls-3" x="80.4" y="57" width="11.4" height="11.4"/>
    <rect class="cls-3" x="68.9" y="57" width="11.4" height="11.4"/>
    <rect class="cls-3" x="57.5" y="57" width="11.4" height="11.4"/>
    <rect class="cls-3" x="46.1" y="57" width="11.4" height="11.4"/>
    <rect class="cls-3" x="34.6" y="57" width="11.4" height="11.4"/>
    <rect class="cls-3" x="23.2" y="57" width="11.4" height="11.4"/>
    <rect class="cls-7" x="11.7" y="57" width="11.4" height="11.4"/>
    <rect class="cls-4" x=".3" y="57" width="11.4" height="11.4"/>
    <rect class="cls-4" x="229" y="45.6" width="11.4" height="11.4"/>
    <rect class="cls-6" x="217.6" y="45.6" width="11.4" height="11.4"/>
    <rect class="cls-3" x="206.2" y="45.6" width="11.4" height="11.4"/>
    <rect class="cls-3" x="194.7" y="45.6" width="11.4" height="11.4"/>
    <rect class="cls-3" x="183.3" y="45.6" width="11.4" height="11.4"/>
    <rect class="cls-3" x="171.8" y="45.6" width="11.4" height="11.4"/>
    <rect class="cls-3" x="160.4" y="45.6" width="11.4" height="11.4"/>
    <rect class="cls-3" x="149" y="45.6" width="11.4" height="11.4"/>
    <rect class="cls-3" x="137.5" y="45.6" width="11.4" height="11.4"/>
    <rect class="cls-3" x="126.1" y="45.6" width="11.4" height="11.4"/>
    <rect class="cls-3" x="114.7" y="45.6" width="11.4" height="11.4"/>
    <rect class="cls-3" x="103.2" y="45.6" width="11.4" height="11.4"/>
    <rect class="cls-3" x="91.8" y="45.6" width="11.4" height="11.4"/>
    <rect class="cls-3" x="80.4" y="45.6" width="11.4" height="11.4"/>
    <rect class="cls-3" x="68.9" y="45.6" width="11.4" height="11.4"/>
    <rect class="cls-3" x="57.5" y="45.6" width="11.4" height="11.4"/>
    <rect class="cls-3" x="46.1" y="45.6" width="11.4" height="11.4"/>
    <rect class="cls-3" x="34.6" y="45.6" width="11.4" height="11.4"/>
    <rect class="cls-3" x="23.2" y="45.6" width="11.4" height="11.4"/>
    <rect class="cls-7" x="11.7" y="45.6" width="11.4" height="11.4"/>
    <rect class="cls-4" x=".3" y="45.6" width="11.4" height="11.4"/>
    <rect class="cls-4" x="229" y="34.2" width="11.4" height="11.4"/>
    <rect class="cls-6" x="217.6" y="34.2" width="11.4" height="11.4"/>
    <rect class="cls-3" x="206.2" y="34.2" width="11.4" height="11.4"/>
    <rect class="cls-3" x="194.7" y="34.2" width="11.4" height="11.4"/>
    <rect class="cls-3" x="183.3" y="34.2" width="11.4" height="11.4"/>
    <rect class="cls-3" x="171.8" y="34.2" width="11.4" height="11.4"/>
    <rect class="cls-3" x="160.4" y="34.2" width="11.4" height="11.4"/>
    <rect class="cls-3" x="149" y="34.2" width="11.4" height="11.4"/>
    <rect class="cls-3" x="137.5" y="34.2" width="11.4" height="11.4"/>
    <rect class="cls-3" x="126.1" y="34.2" width="11.4" height="11.4"/>
    <rect class="cls-3" x="114.7" y="34.2" width="11.4" height="11.4"/>
    <rect class="cls-3" x="103.2" y="34.2" width="11.4" height="11.4"/>
    <rect class="cls-3" x="91.8" y="34.2" width="11.4" height="11.4"/>
    <rect class="cls-3" x="80.4" y="34.2" width="11.4" height="11.4"/>
    <rect class="cls-3" x="68.9" y="34.2" width="11.4" height="11.4"/>
    <rect class="cls-3" x="57.5" y="34.2" width="11.4" height="11.4"/>
    <rect class="cls-3" x="46.1" y="34.2" width="11.4" height="11.4"/>
    <rect class="cls-3" x="34.6" y="34.2" width="11.4" height="11.4"/>
    <rect class="cls-3" x="23.2" y="34.2" width="11.4" height="11.4"/>
    <rect class="cls-7" x="11.7" y="34.2" width="11.4" height="11.4"/>
    <rect class="cls-4" x=".3" y="34.2" width="11.4" height="11.4"/>
    <rect class="cls-4" x="229" y="22.7" width="11.4" height="11.4"/>
    <rect class="cls-6" x="217.6" y="22.7" width="11.4" height="11.4"/>
    <rect class="cls-3" x="206.2" y="22.7" width="11.4" height="11.4"/>
    <rect class="cls-3" x="194.7" y="22.7" width="11.4" height="11.4"/>
    <rect class="cls-3" x="183.3" y="22.7" width="11.4" height="11.4"/>
    <rect class="cls-3" x="171.8" y="22.7" width="11.4" height="11.4"/>
    <rect class="cls-3" x="160.4" y="22.7" width="11.4" height="11.4"/>
    <rect class="cls-3" x="149" y="22.7" width="11.4" height="11.4"/>
    <rect class="cls-3" x="137.5" y="22.7" width="11.4" height="11.4"/>
    <rect class="cls-3" x="126.1" y="22.7" width="11.4" height="11.4"/>
    <rect class="cls-3" x="114.7" y="22.7" width="11.4" height="11.4"/>
    <rect class="cls-3" x="103.2" y="22.7" width="11.4" height="11.4"/>
    <rect class="cls-3" x="91.8" y="22.7" width="11.4" height="11.4"/>
    <rect class="cls-3" x="80.4" y="22.7" width="11.4" height="11.4"/>
    <rect class="cls-3" x="68.9" y="22.7" width="11.4" height="11.4"/>
    <rect class="cls-3" x="57.5" y="22.7" width="11.4" height="11.4"/>
    <rect class="cls-3" x="46.1" y="22.7" width="11.4" height="11.4"/>
    <rect class="cls-3" x="34.6" y="22.7" width="11.4" height="11.4"/>
    <rect class="cls-3" x="23.2" y="22.7" width="11.4" height="11.4"/>
    <rect class="cls-7" x="11.7" y="22.7" width="11.4" height="11.4"/>
    <rect class="cls-4" x=".3" y="22.7" width="11.4" height="11.4"/>
    <rect class="cls-4" x="217.6" y="11.3" width="11.4" height="11.4"/>
    <rect class="cls-7" x="206.2" y="11.3" width="11.4" height="11.4"/>
    <rect class="cls-7" x="194.7" y="11.3" width="11.4" height="11.4"/>
    <rect class="cls-7" x="183.3" y="11.3" width="11.4" height="11.4"/>
    <rect class="cls-7" x="171.8" y="11.3" width="11.4" height="11.4"/>
    <rect class="cls-7" x="160.4" y="11.3" width="11.4" height="11.4"/>
    <rect class="cls-7" x="149" y="11.3" width="11.4" height="11.4"/>
    <rect class="cls-7" x="137.5" y="11.3" width="11.4" height="11.4"/>
    <rect class="cls-7" x="126.1" y="11.3" width="11.4" height="11.4"/>
    <rect class="cls-7" x="114.7" y="11.3" width="11.4" height="11.4"/>
    <rect class="cls-7" x="103.2" y="11.3" width="11.4" height="11.4"/>
    <rect class="cls-7" x="91.8" y="11.3" width="11.4" height="11.4"/>
    <rect class="cls-7" x="80.4" y="11.3" width="11.4" height="11.4"/>
    <rect class="cls-7" x="68.9" y="11.3" width="11.4" height="11.4"/>
    <rect class="cls-7" x="57.5" y="11.3" width="11.4" height="11.4"/>
    <rect class="cls-7" x="46.1" y="11.3" width="11.4" height="11.4"/>
    <rect class="cls-7" x="34.6" y="11.3" width="11.4" height="11.4"/>
    <rect class="cls-7" x="23.2" y="11.3" width="11.4" height="11.4"/>
    <rect class="cls-4" x="11.7" y="11.3" width="11.4" height="11.4"/>
    <rect class="cls-4" x="206.2" y="-.1" width="11.4" height="11.4"/>
    <rect class="cls-4" x="194.7" y="-.1" width="11.4" height="11.4"/>
    <rect class="cls-4" x="183.3" y="-.1" width="11.4" height="11.4"/>
    <rect class="cls-4" x="171.8" y="-.1" width="11.4" height="11.4"/>
    <rect class="cls-4" x="160.4" y="-.1" width="11.4" height="11.4"/>
    <rect class="cls-4" x="149" y="-.1" width="11.4" height="11.4"/>
    <rect class="cls-4" x="137.5" y="-.1" width="11.4" height="11.4"/>
    <rect class="cls-4" x="126.1" y="-.1" width="11.4" height="11.4"/>
    <rect class="cls-4" x="114.7" y="-.1" width="11.4" height="11.4"/>
    <rect class="cls-4" x="103.2" y="-.1" width="11.4" height="11.4"/>
    <rect class="cls-4" x="91.8" y="-.1" width="11.4" height="11.4"/>
    <rect class="cls-4" x="80.4" y="-.1" width="11.4" height="11.4"/>
    <rect class="cls-4" x="68.9" y="-.1" width="11.4" height="11.4"/>
    <rect class="cls-4" x="57.5" y="-.1" width="11.4" height="11.4"/>
    <rect class="cls-4" x="46.1" y="-.1" width="11.4" height="11.4"/>
    <rect class="cls-4" x="34.6" y="-.1" width="11.4" height="11.4"/>
    <rect class="cls-4" x="23.2" y="-.1" width="11.4" height="11.4"/>
  </g>
  <g>
    <rect class="cls-4" x="83.7" y="83" width="3.1" height="3.1"/>
    <rect class="cls-4" x="80.7" y="83" width="3.1" height="3.1"/>
    <rect class="cls-4" x="77.6" y="83" width="3.1" height="3.1"/>
    <rect class="cls-4" x="74.6" y="83" width="3.1" height="3.1"/>
    <rect class="cls-4" x="71.5" y="83" width="3.1" height="3.1"/>
    <rect class="cls-4" x="68.5" y="83" width="3.1" height="3.1"/>
    <rect class="cls-4" x="65.4" y="83" width="3.1" height="3.1"/>
    <rect class="cls-4" x="62.4" y="83" width="3.1" height="3.1"/>
    <rect class="cls-4" x="59.3" y="83" width="3.1" height="3.1"/>
    <rect class="cls-4" x="86.8" y="79.9" width="3.1" height="3.1"/>
    <rect class="cls-1" x="83.7" y="79.9" width="3.1" height="3.1"/>
    <rect class="cls-1" x="80.7" y="79.9" width="3.1" height="3.1"/>
    <rect class="cls-1" x="77.6" y="79.9" width="3.1" height="3.1"/>
    <rect class="cls-2" x="74.6" y="79.9" width="3.1" height="3.1"/>
    <rect class="cls-2" x="71.5" y="79.9" width="3.1" height="3.1"/>
    <rect class="cls-2" x="68.5" y="79.9" width="3.1" height="3.1"/>
    <rect class="cls-2" x="65.4" y="79.9" width="3.1" height="3.1"/>
    <rect class="cls-2" x="62.4" y="79.9" width="3.1" height="3.1"/>
    <rect class="cls-2" x="59.3" y="79.9" width="3.1" height="3.1"/>
    <rect class="cls-4" x="56.3" y="79.9" width="3.1" height="3.1"/>
    <rect class="cls-4" x="89.8" y="76.9" width="3.1" height="3.1"/>
    <rect class="cls-1" x="86.8" y="76.9" width="3.1" height="3.1"/>
    <rect class="cls-1" x="83.7" y="76.9" width="3.1" height="3.1"/>
    <rect class="cls-2" x="80.7" y="76.9" width="3.1" height="3.1"/>
    <rect class="cls-2" x="77.6" y="76.9" width="3.1" height="3.1"/>
    <rect class="cls-2" x="74.6" y="76.9" width="3.1" height="3.1"/>
    <rect class="cls-2" x="71.5" y="76.9" width="3.1" height="3.1"/>
    <rect class="cls-2" x="68.5" y="76.9" width="3.1" height="3.1"/>
    <rect class="cls-2" x="65.4" y="76.9" width="3.1" height="3.1"/>
    <rect class="cls-2" x="62.4" y="76.9" width="3.1" height="3.1"/>
    <rect class="cls-2" x="59.3" y="76.9" width="3.1" height="3.1"/>
    <rect class="cls-2" x="56.3" y="76.9" width="3.1" height="3.1"/>
    <rect class="cls-4" x="53.2" y="76.9" width="3.1" height="3.1"/>
    <rect class="cls-4" x="92.9" y="73.8" width="3.1" height="3.1"/>
    <rect class="cls-1" x="89.8" y="73.8" width="3.1" height="3.1"/>
    <rect class="cls-1" x="86.8" y="73.8" width="3.1" height="3.1"/>
    <rect class="cls-2" x="83.7" y="73.8" width="3.1" height="3.1"/>
    <rect class="cls-2" x="80.7" y="73.8" width="3.1" height="3.1"/>
    <rect class="cls-1" x="77.6" y="73.8" width="3.1" height="3.1"/>
    <rect class="cls-1" x="74.6" y="73.8" width="3.1" height="3.1"/>
    <rect class="cls-1" x="71.5" y="73.8" width="3.1" height="3.1"/>
    <rect class="cls-1" x="68.5" y="73.8" width="3.1" height="3.1"/>
    <rect class="cls-1" x="65.4" y="73.8" width="3.1" height="3.1"/>
    <rect class="cls-2" x="62.4" y="73.8" width="3.1" height="3.1"/>
    <rect class="cls-2" x="59.3" y="73.8" width="3.1" height="3.1"/>
    <rect class="cls-2" x="56.3" y="73.8" width="3.1" height="3.1"/>
    <rect class="cls-2" x="53.2" y="73.8" width="3.1" height="3.1"/>
    <rect class="cls-4" x="50.1" y="73.8" width="3.1" height="3.1"/>
    <rect class="cls-4" x="96" y="70.8" width="3.1" height="3.1"/>
    <rect class="cls-1" x="92.9" y="70.8" width="3.1" height="3.1"/>
    <rect class="cls-1" x="89.8" y="70.8" width="3.1" height="3.1"/>
    <rect class="cls-2" x="86.8" y="70.8" width="3.1" height="3.1"/>
    <rect class="cls-2" x="83.7" y="70.8" width="3.1" height="3.1"/>
    <rect class="cls-1" x="80.7" y="70.8" width="3.1" height="3.1"/>
    <rect class="cls-5" x="77.6" y="70.8" width="3.1" height="3.1"/>
    <rect class="cls-5" x="74.6" y="70.8" width="3.1" height="3.1"/>
    <rect class="cls-2" x="71.5" y="70.8" width="3.1" height="3.1"/>
    <rect class="cls-2" x="68.5" y="70.8" width="3.1" height="3.1"/>
    <rect class="cls-2" x="65.4" y="70.8" width="3.1" height="3.1"/>
    <rect class="cls-1" x="62.4" y="70.8" width="3.1" height="3.1"/>
    <rect class="cls-2" x="59.3" y="70.8" width="3.1" height="3.1"/>
    <rect class="cls-2" x="56.3" y="70.8" width="3.1" height="3.1"/>
    <rect class="cls-2" x="53.2" y="70.8" width="3.1" height="3.1"/>
    <rect class="cls-2" x="50.1" y="70.8" width="3.1" height="3.1"/>
    <rect class="cls-4" x="47.1" y="70.8" width="3.1" height="3.1"/>
    <rect class="cls-4" x="99" y="67.7" width="3.1" height="3.1"/>
    <rect class="cls-1" x="96" y="67.7" width="3.1" height="3.1"/>
    <rect class="cls-1" x="92.9" y="67.7" width="3.1" height="3.1"/>
    <rect class="cls-2" x="89.8" y="67.7" width="3.1" height="3.1"/>
    <rect class="cls-2" x="86.8" y="67.7" width="3.1" height="3.1"/>
    <rect class="cls-1" x="83.7" y="67.7" width="3.1" height="3.1"/>
    <rect class="cls-5" x="80.7" y="67.7" width="3.1" height="3.1"/>
    <rect class="cls-5" x="77.6" y="67.7" width="3.1" height="3.1"/>
    <rect class="cls-2" x="74.6" y="67.7" width="3.1" height="3.1"/>
    <rect class="cls-2" x="71.5" y="67.7" width="3.1" height="3.1"/>
    <rect class="cls-2" x="68.5" y="67.7" width="3.1" height="3.1"/>
    <rect class="cls-2" x="65.4" y="67.7" width="3.1" height="3.1"/>
    <rect class="cls-2" x="62.4" y="67.7" width="3.1" height="3.1"/>
    <rect class="cls-1" x="59.3" y="67.7" width="3.1" height="3.1"/>
    <rect class="cls-2" x="56.3" y="67.7" width="3.1" height="3.1"/>
    <rect class="cls-2" x="53.2" y="67.7" width="3.1" height="3.1"/>
    <rect class="cls-2" x="50.1" y="67.7" width="3.1" height="3.1"/>
    <rect class="cls-5" x="47.1" y="67.7" width="3.1" height="3.1"/>
    <rect class="cls-4" x="44" y="67.7" width="3.1" height="3.1"/>
    <rect class="cls-4" x="99" y="64.7" width="3.1" height="3.1"/>
    <rect class="cls-1" x="96" y="64.7" width="3.1" height="3.1"/>
    <rect class="cls-2" x="92.9" y="64.7" width="3.1" height="3.1"/>
    <rect class="cls-2" x="89.8" y="64.7" width="3.1" height="3.1"/>
    <rect class="cls-1" x="86.8" y="64.7" width="3.1" height="3.1"/>
    <rect class="cls-5" x="83.7" y="64.7" width="3.1" height="3.1"/>
    <rect class="cls-5" x="80.7" y="64.7" width="3.1" height="3.1"/>
    <rect class="cls-2" x="77.6" y="64.7" width="3.1" height="3.1"/>
    <rect class="cls-2" x="74.6" y="64.7" width="3.1" height="3.1"/>
    <rect class="cls-2" x="71.5" y="64.7" width="3.1" height="3.1"/>
    <rect class="cls-2" x="68.5" y="64.7" width="3.1" height="3.1"/>
    <rect class="cls-2" x="65.4" y="64.7" width="3.1" height="3.1"/>
    <rect class="cls-2" x="62.4" y="64.7" width="3.1" height="3.1"/>
    <rect class="cls-5" x="59.3" y="64.7" width="3.1" height="3.1"/>
    <rect class="cls-1" x="56.3" y="64.7" width="3.1" height="3.1"/>
    <rect class="cls-2" x="53.2" y="64.7" width="3.1" height="3.1"/>
    <rect class="cls-2" x="50.1" y="64.7" width="3.1" height="3.1"/>
    <rect class="cls-5" x="47.1" y="64.7" width="3.1" height="3.1"/>
    <rect class="cls-4" x="44" y="64.7" width="3.1" height="3.1"/>
    <rect class="cls-4" x="99" y="61.6" width="3.1" height="3.1"/>
    <rect class="cls-1" x="96" y="61.6" width="3.1" height="3.1"/>
    <rect class="cls-2" x="92.9" y="61.6" width="3.1" height="3.1"/>
    <rect class="cls-1" x="89.8" y="61.6" width="3.1" height="3.1"/>
    <rect class="cls-5" x="86.8" y="61.6" width="3.1" height="3.1"/>
    <rect class="cls-5" x="83.7" y="61.6" width="3.1" height="3.1"/>
    <rect class="cls-2" x="80.7" y="61.6" width="3.1" height="3.1"/>
    <rect class="cls-2" x="77.6" y="61.6" width="3.1" height="3.1"/>
    <rect class="cls-2" x="74.6" y="61.6" width="3.1" height="3.1"/>
    <rect class="cls-2" x="71.5" y="61.6" width="3.1" height="3.1"/>
    <rect class="cls-2" x="68.5" y="61.6" width="3.1" height="3.1"/>
    <rect class="cls-2" x="65.4" y="61.6" width="3.1" height="3.1"/>
    <rect class="cls-5" x="62.4" y="61.6" width="3.1" height="3.1"/>
    <rect class="cls-5" x="59.3" y="61.6" width="3.1" height="3.1"/>
    <rect class="cls-2" x="56.3" y="61.6" width="3.1" height="3.1"/>
    <rect class="cls-1" x="53.2" y="61.6" width="3.1" height="3.1"/>
    <rect class="cls-2" x="50.1" y="61.6" width="3.1" height="3.1"/>
    <rect class="cls-5" x="47.1" y="61.6" width="3.1" height="3.1"/>
    <rect class="cls-4" x="44" y="61.6" width="3.1" height="3.1"/>
    <rect class="cls-4" x="99" y="58.6" width="3.1" height="3.1"/>
    <rect class="cls-1" x="96" y="58.6" width="3.1" height="3.1"/>
    <rect class="cls-2" x="92.9" y="58.6" width="3.1" height="3.1"/>
    <rect class="cls-1" x="89.8" y="58.6" width="3.1" height="3.1"/>
    <rect class="cls-5" x="86.8" y="58.6" width="3.1" height="3.1"/>
    <rect class="cls-2" x="83.7" y="58.6" width="3.1" height="3.1"/>
    <rect class="cls-2" x="80.7" y="58.6" width="3.1" height="3.1"/>
    <rect class="cls-2" x="77.6" y="58.6" width="3.1" height="3.1"/>
    <rect class="cls-2" x="74.6" y="58.6" width="3.1" height="3.1"/>
    <rect class="cls-2" x="71.5" y="58.6" width="3.1" height="3.1"/>
    <rect class="cls-2" x="68.5" y="58.6" width="3.1" height="3.1"/>
    <rect class="cls-5" x="65.4" y="58.6" width="3.1" height="3.1"/>
    <rect class="cls-5" x="62.4" y="58.6" width="3.1" height="3.1"/>
    <rect class="cls-2" x="59.3" y="58.6" width="3.1" height="3.1"/>
    <rect class="cls-2" x="56.3" y="58.6" width="3.1" height="3.1"/>
    <rect class="cls-1" x="53.2" y="58.6" width="3.1" height="3.1"/>
    <rect class="cls-2" x="50.1" y="58.6" width="3.1" height="3.1"/>
    <rect class="cls-5" x="47.1" y="58.6" width="3.1" height="3.1"/>
    <rect class="cls-4" x="44" y="58.6" width="3.1" height="3.1"/>
    <rect class="cls-4" x="99" y="55.5" width="3.1" height="3.1"/>
    <rect class="cls-1" x="96" y="55.5" width="3.1" height="3.1"/>
    <rect class="cls-2" x="92.9" y="55.5" width="3.1" height="3.1"/>
    <rect class="cls-1" x="89.8" y="55.5" width="3.1" height="3.1"/>
    <rect class="cls-2" x="86.8" y="55.5" width="3.1" height="3.1"/>
    <rect class="cls-2" x="83.7" y="55.5" width="3.1" height="3.1"/>
    <rect class="cls-2" x="80.7" y="55.5" width="3.1" height="3.1"/>
    <rect class="cls-2" x="77.6" y="55.5" width="3.1" height="3.1"/>
    <rect class="cls-2" x="74.6" y="55.5" width="3.1" height="3.1"/>
    <rect class="cls-2" x="71.5" y="55.5" width="3.1" height="3.1"/>
    <rect class="cls-5" x="68.5" y="55.5" width="3.1" height="3.1"/>
    <rect class="cls-5" x="65.4" y="55.5" width="3.1" height="3.1"/>
    <rect class="cls-2" x="62.4" y="55.5" width="3.1" height="3.1"/>
    <rect class="cls-2" x="59.3" y="55.5" width="3.1" height="3.1"/>
    <rect class="cls-2" x="56.3" y="55.5" width="3.1" height="3.1"/>
    <rect class="cls-1" x="53.2" y="55.5" width="3.1" height="3.1"/>
    <rect class="cls-2" x="50.1" y="55.5" width="3.1" height="3.1"/>
    <rect class="cls-5" x="47.1" y="55.5" width="3.1" height="3.1"/>
    <rect class="cls-4" x="44" y="55.5" width="3.1" height="3.1"/>
    <rect class="cls-4" x="99" y="52.5" width="3.1" height="3.1"/>
    <rect class="cls-1" x="96" y="52.5" width="3.1" height="3.1"/>
    <rect class="cls-2" x="92.9" y="52.5" width="3.1" height="3.1"/>
    <rect class="cls-1" x="89.8" y="52.5" width="3.1" height="3.1"/>
    <rect class="cls-2" x="86.8" y="52.5" width="3.1" height="3.1"/>
    <rect class="cls-2" x="83.7" y="52.5" width="3.1" height="3.1"/>
    <rect class="cls-2" x="80.7" y="52.5" width="3.1" height="3.1"/>
    <rect class="cls-2" x="77.6" y="52.5" width="3.1" height="3.1"/>
    <rect class="cls-2" x="74.6" y="52.5" width="3.1" height="3.1"/>
    <rect class="cls-5" x="71.5" y="52.5" width="3.1" height="3.1"/>
    <rect class="cls-5" x="68.5" y="52.5" width="3.1" height="3.1"/>
    <rect class="cls-2" x="65.4" y="52.5" width="3.1" height="3.1"/>
    <rect class="cls-2" x="62.4" y="52.5" width="3.1" height="3.1"/>
    <rect class="cls-2" x="59.3" y="52.5" width="3.1" height="3.1"/>
    <rect class="cls-2" x="56.3" y="52.5" width="3.1" height="3.1"/>
    <rect class="cls-1" x="53.2" y="52.5" width="3.1" height="3.1"/>
    <rect class="cls-2" x="50.1" y="52.5" width="3.1" height="3.1"/>
    <rect class="cls-5" x="47.1" y="52.5" width="3.1" height="3.1"/>
    <rect class="cls-4" x="44" y="52.5" width="3.1" height="3.1"/>
    <rect class="cls-4" x="99" y="49.4" width="3.1" height="3.1"/>
    <rect class="cls-1" x="96" y="49.4" width="3.1" height="3.1"/>
    <rect class="cls-2" x="92.9" y="49.4" width="3.1" height="3.1"/>
    <rect class="cls-1" x="89.8" y="49.4" width="3.1" height="3.1"/>
    <rect class="cls-2" x="86.8" y="49.4" width="3.1" height="3.1"/>
    <rect class="cls-2" x="83.7" y="49.4" width="3.1" height="3.1"/>
    <rect class="cls-2" x="80.7" y="49.4" width="3.1" height="3.1"/>
    <rect class="cls-2" x="77.6" y="49.4" width="3.1" height="3.1"/>
    <rect class="cls-5" x="74.6" y="49.4" width="3.1" height="3.1"/>
    <rect class="cls-5" x="71.5" y="49.4" width="3.1" height="3.1"/>
    <rect class="cls-2" x="68.5" y="49.4" width="3.1" height="3.1"/>
    <rect class="cls-2" x="65.4" y="49.4" width="3.1" height="3.1"/>
    <rect class="cls-2" x="62.4" y="49.4" width="3.1" height="3.1"/>
    <rect class="cls-2" x="59.3" y="49.4" width="3.1" height="3.1"/>
    <rect class="cls-2" x="56.3" y="49.4" width="3.1" height="3.1"/>
    <rect class="cls-1" x="53.2" y="49.4" width="3.1" height="3.1"/>
    <rect class="cls-2" x="50.1" y="49.4" width="3.1" height="3.1"/>
    <rect class="cls-5" x="47.1" y="49.4" width="3.1" height="3.1"/>
    <rect class="cls-4" x="44" y="49.4" width="3.1" height="3.1"/>
    <rect class="cls-4" x="99" y="46.3" width="3.1" height="3.1"/>
    <rect class="cls-1" x="96" y="46.3" width="3.1" height="3.1"/>
    <rect class="cls-2" x="92.9" y="46.3" width="3.1" height="3.1"/>
    <rect class="cls-2" x="89.8" y="46.3" width="3.1" height="3.1"/>
    <rect class="cls-1" x="86.8" y="46.3" width="3.1" height="3.1"/>
    <rect class="cls-2" x="83.7" y="46.3" width="3.1" height="3.1"/>
    <rect class="cls-2" x="80.7" y="46.3" width="3.1" height="3.1"/>
    <rect class="cls-5" x="77.6" y="46.3" width="3.1" height="3.1"/>
    <rect class="cls-5" x="74.6" y="46.3" width="3.1" height="3.1"/>
    <rect class="cls-2" x="71.5" y="46.3" width="3.1" height="3.1"/>
    <rect class="cls-2" x="68.5" y="46.3" width="3.1" height="3.1"/>
    <rect class="cls-2" x="65.4" y="46.3" width="3.1" height="3.1"/>
    <rect class="cls-2" x="62.4" y="46.3" width="3.1" height="3.1"/>
    <rect class="cls-2" x="59.3" y="46.3" width="3.1" height="3.1"/>
    <rect class="cls-1" x="56.3" y="46.3" width="3.1" height="3.1"/>
    <rect class="cls-2" x="53.2" y="46.3" width="3.1" height="3.1"/>
    <rect class="cls-2" x="50.1" y="46.3" width="3.1" height="3.1"/>
    <rect class="cls-5" x="47.1" y="46.3" width="3.1" height="3.1"/>
    <rect class="cls-4" x="44" y="46.3" width="3.1" height="3.1"/>
    <rect class="cls-4" x="99" y="43.3" width="3.1" height="3.1"/>
    <rect class="cls-1" x="96" y="43.3" width="3.1" height="3.1"/>
    <rect class="cls-2" x="92.9" y="43.3" width="3.1" height="3.1"/>
    <rect class="cls-2" x="89.8" y="43.3" width="3.1" height="3.1"/>
    <rect class="cls-2" x="86.8" y="43.3" width="3.1" height="3.1"/>
    <rect class="cls-1" x="83.7" y="43.3" width="3.1" height="3.1"/>
    <rect class="cls-5" x="80.7" y="43.3" width="3.1" height="3.1"/>
    <rect class="cls-5" x="77.6" y="43.3" width="3.1" height="3.1"/>
    <rect class="cls-2" x="74.6" y="43.3" width="3.1" height="3.1"/>
    <rect class="cls-2" x="71.5" y="43.3" width="3.1" height="3.1"/>
    <rect class="cls-2" x="68.5" y="43.3" width="3.1" height="3.1"/>
    <rect class="cls-2" x="65.4" y="43.3" width="3.1" height="3.1"/>
    <rect class="cls-2" x="62.4" y="43.3" width="3.1" height="3.1"/>
    <rect class="cls-1" x="59.3" y="43.3" width="3.1" height="3.1"/>
    <rect class="cls-2" x="56.3" y="43.3" width="3.1" height="3.1"/>
    <rect class="cls-2" x="53.2" y="43.3" width="3.1" height="3.1"/>
    <rect class="cls-5" x="50.1" y="43.3" width="3.1" height="3.1"/>
    <rect class="cls-5" x="47.1" y="43.3" width="3.1" height="3.1"/>
    <rect class="cls-4" x="44" y="43.3" width="3.1" height="3.1"/>
    <rect class="cls-4" x="96" y="40.2" width="3.1" height="3.1"/>
    <rect class="cls-1" x="92.9" y="40.2" width="3.1" height="3.1"/>
    <rect class="cls-2" x="89.8" y="40.2" width="3.1" height="3.1"/>
    <rect class="cls-2" x="86.8" y="40.2" width="3.1" height="3.1"/>
    <rect class="cls-2" x="83.7" y="40.2" width="3.1" height="3.1"/>
    <rect class="cls-1" x="80.7" y="40.2" width="3.1" height="3.1"/>
    <rect class="cls-2" x="77.6" y="40.2" width="3.1" height="3.1"/>
    <rect class="cls-2" x="74.6" y="40.2" width="3.1" height="3.1"/>
    <rect class="cls-2" x="71.5" y="40.2" width="3.1" height="3.1"/>
    <rect class="cls-2" x="68.5" y="40.2" width="3.1" height="3.1"/>
    <rect class="cls-2" x="65.4" y="40.2" width="3.1" height="3.1"/>
    <rect class="cls-1" x="62.4" y="40.2" width="3.1" height="3.1"/>
    <rect class="cls-2" x="59.3" y="40.2" width="3.1" height="3.1"/>
    <rect class="cls-2" x="56.3" y="40.2" width="3.1" height="3.1"/>
    <rect class="cls-5" x="53.2" y="40.2" width="3.1" height="3.1"/>
    <rect class="cls-5" x="50.1" y="40.2" width="3.1" height="3.1"/>
    <rect class="cls-4" x="47.1" y="40.2" width="3.1" height="3.1"/>
    <rect class="cls-4" x="92.9" y="37.2" width="3.1" height="3.1"/>
    <rect class="cls-5" x="89.8" y="37.2" width="3.1" height="3.1"/>
    <rect class="cls-5" x="86.8" y="37.2" width="3.1" height="3.1"/>
    <rect class="cls-2" x="83.7" y="37.2" width="3.1" height="3.1"/>
    <rect class="cls-2" x="80.7" y="37.2" width="3.1" height="3.1"/>
    <rect class="cls-1" x="77.6" y="37.2" width="3.1" height="3.1"/>
    <rect class="cls-1" x="74.6" y="37.2" width="3.1" height="3.1"/>
    <rect class="cls-1" x="71.5" y="37.2" width="3.1" height="3.1"/>
    <rect class="cls-1" x="68.5" y="37.2" width="3.1" height="3.1"/>
    <rect class="cls-1" x="65.4" y="37.2" width="3.1" height="3.1"/>
    <rect class="cls-2" x="62.4" y="37.2" width="3.1" height="3.1"/>
    <rect class="cls-2" x="59.3" y="37.2" width="3.1" height="3.1"/>
    <rect class="cls-5" x="56.3" y="37.2" width="3.1" height="3.1"/>
    <rect class="cls-5" x="53.2" y="37.2" width="3.1" height="3.1"/>
    <rect class="cls-4" x="50.1" y="37.2" width="3.1" height="3.1"/>
    <rect class="cls-4" x="89.8" y="34.1" width="3.1" height="3.1"/>
    <rect class="cls-5" x="86.8" y="34.1" width="3.1" height="3.1"/>
    <rect class="cls-5" x="83.7" y="34.1" width="3.1" height="3.1"/>
    <rect class="cls-2" x="80.7" y="34.1" width="3.1" height="3.1"/>
    <rect class="cls-2" x="77.6" y="34.1" width="3.1" height="3.1"/>
    <rect class="cls-2" x="74.6" y="34.1" width="3.1" height="3.1"/>
    <rect class="cls-2" x="71.5" y="34.1" width="3.1" height="3.1"/>
    <rect class="cls-2" x="68.5" y="34.1" width="3.1" height="3.1"/>
    <rect class="cls-2" x="65.4" y="34.1" width="3.1" height="3.1"/>
    <rect class="cls-2" x="62.4" y="34.1" width="3.1" height="3.1"/>
    <rect class="cls-5" x="59.3" y="34.1" width="3.1" height="3.1"/>
    <rect class="cls-5" x="56.3" y="34.1" width="3.1" height="3.1"/>
    <rect class="cls-4" x="53.2" y="34.1" width="3.1" height="3.1"/>
    <rect class="cls-4" x="86.8" y="31.1" width="3.1" height="3.1"/>
    <rect class="cls-5" x="83.7" y="31.1" width="3.1" height="3.1"/>
    <rect class="cls-5" x="80.7" y="31.1" width="3.1" height="3.1"/>
    <rect class="cls-5" x="77.6" y="31.1" width="3.1" height="3.1"/>
    <rect class="cls-5" x="74.6" y="31.1" width="3.1" height="3.1"/>
    <rect class="cls-5" x="71.5" y="31.1" width="3.1" height="3.1"/>
    <rect class="cls-5" x="68.5" y="31.1" width="3.1" height="3.1"/>
    <rect class="cls-5" x="65.4" y="31.1" width="3.1" height="3.1"/>
    <rect class="cls-5" x="62.4" y="31.1" width="3.1" height="3.1"/>
    <rect class="cls-5" x="59.3" y="31.1" width="3.1" height="3.1"/>
    <rect class="cls-4" x="56.3" y="31.1" width="3.1" height="3.1"/>
    <rect class="cls-4" x="83.7" y="28" width="3.1" height="3.1"/>
    <rect class="cls-4" x="80.7" y="28" width="3.1" height="3.1"/>
    <rect class="cls-4" x="77.6" y="28" width="3.1" height="3.1"/>
    <rect class="cls-4" x="74.6" y="28" width="3.1" height="3.1"/>
    <rect class="cls-4" x="71.5" y="28" width="3.1" height="3.1"/>
    <rect class="cls-4" x="68.5" y="28" width="3.1" height="3.1"/>
    <rect class="cls-4" x="65.4" y="28" width="3.1" height="3.1"/>
    <rect class="cls-4" x="62.4" y="28" width="3.1" height="3.1"/>
    <rect class="cls-4" x="59.3" y="28" width="3.1" height="3.1"/>
    <g>
      <polygon class="cls-8" points="74.6 46.4 74.6 43.4 71.5 43.4 71.5 46.4 68.5 46.4 68.5 49.4 71.5 49.4 71.5 55.5 68.5 55.5 68.5 58.6 71.5 58.6 71.5 64.6 68.5 64.6 68.5 67.7 71.5 67.7 71.5 70.7 74.6 70.7 74.6 67.7 77.6 67.7 77.6 64.6 74.6 64.6 74.6 58.6 77.6 58.6 77.6 55.5 74.6 55.5 74.6 49.4 77.6 49.4 77.6 46.4 74.6 46.4"/>
      <rect class="cls-8" x="65.5" y="49.4" width="3" height="6.1"/>
      <rect class="cls-8" x="77.6" y="49.4" width="3" height="3"/>
      <rect class="cls-8" x="65.5" y="61.6" width="3" height="3"/>
      <rect class="cls-8" x="77.6" y="58.6" width="3" height="6.1"/>
    </g>
  </g>
</svg>