<?xml version="1.0" encoding="UTF-8"?>
<svg id="Layer_1" data-name="Layer 1" xmlns="http://www.w3.org/2000/svg" version="1.1" viewBox="0 0 240.8 114.1">
  <defs>
    <style>
      .cls-1 {
        fill: #eaeaea;
      }

      .cls-1, .cls-2, .cls-3, .cls-4, .cls-5, .cls-6, .cls-7, .cls-8, .cls-9, .cls-10 {
        stroke-width: 0px;
      }

      .cls-2 {
        fill: #0acfb3;
      }

      .cls-3 {
        fill: #50eacd;
      }

      .cls-4 {
        fill: #000;
      }

      .cls-5 {
        fill: #5c2f96;
      }

      .cls-6 {
        fill: #7f5aaf;
      }

      .cls-7 {
        fill: #00af91;
      }

      .cls-8 {
        fill: #ccc;
      }

      .cls-9 {
        fill: #fff;
      }

      .cls-10 {
        fill: #703da5;
      }
    </style>
  </defs>
  <g>
    <rect class="cls-4" x="206.3" y="102.6" width="11.5" height="11.5"/>
    <rect class="cls-4" x="194.9" y="102.6" width="11.5" height="11.5"/>
    <rect class="cls-4" x="183.4" y="102.6" width="11.5" height="11.5"/>
    <rect class="cls-4" x="171.9" y="102.6" width="11.5" height="11.5"/>
    <rect class="cls-4" x="160.5" y="102.6" width="11.5" height="11.5"/>
    <rect class="cls-4" x="149" y="102.6" width="11.5" height="11.5"/>
    <rect class="cls-4" x="137.6" y="102.6" width="11.5" height="11.5"/>
    <rect class="cls-4" x="126.1" y="102.6" width="11.5" height="11.5"/>
    <rect class="cls-4" x="114.7" y="102.6" width="11.5" height="11.5"/>
    <rect class="cls-4" x="103.2" y="102.6" width="11.5" height="11.5"/>
    <rect class="cls-4" x="91.8" y="102.6" width="11.5" height="11.5"/>
    <rect class="cls-4" x="80.3" y="102.6" width="11.5" height="11.5"/>
    <rect class="cls-4" x="68.9" y="102.6" width="11.5" height="11.5"/>
    <rect class="cls-4" x="57.4" y="102.6" width="11.5" height="11.5"/>
    <rect class="cls-4" x="45.9" y="102.6" width="11.5" height="11.5"/>
    <rect class="cls-4" x="34.5" y="102.6" width="11.5" height="11.5"/>
    <rect class="cls-4" x="23" y="102.6" width="11.5" height="11.5"/>
    <rect class="cls-4" x="217.8" y="91.2" width="11.5" height="11.5"/>
    <rect class="cls-8" x="206.3" y="91.2" width="11.5" height="11.5"/>
    <rect class="cls-8" x="194.9" y="91.2" width="11.5" height="11.5"/>
    <rect class="cls-8" x="183.4" y="91.2" width="11.5" height="11.5"/>
    <rect class="cls-8" x="171.9" y="91.2" width="11.5" height="11.5"/>
    <rect class="cls-8" x="160.5" y="91.2" width="11.5" height="11.5"/>
    <rect class="cls-8" x="149" y="91.2" width="11.5" height="11.5"/>
    <rect class="cls-8" x="137.6" y="91.2" width="11.5" height="11.5"/>
    <rect class="cls-8" x="126.1" y="91.2" width="11.5" height="11.5"/>
    <rect class="cls-8" x="114.7" y="91.2" width="11.5" height="11.5"/>
    <rect class="cls-8" x="103.2" y="91.2" width="11.5" height="11.5"/>
    <rect class="cls-8" x="91.8" y="91.2" width="11.5" height="11.5"/>
    <rect class="cls-8" x="80.3" y="91.2" width="11.5" height="11.5"/>
    <rect class="cls-8" x="68.9" y="91.2" width="11.5" height="11.5"/>
    <rect class="cls-8" x="57.4" y="91.2" width="11.5" height="11.5"/>
    <rect class="cls-8" x="45.9" y="91.2" width="11.5" height="11.5"/>
    <rect class="cls-8" x="34.5" y="91.2" width="11.5" height="11.5"/>
    <rect class="cls-8" x="23" y="91.2" width="11.5" height="11.5"/>
    <rect class="cls-4" x="11.6" y="91.2" width="11.5" height="11.5"/>
    <rect class="cls-4" x="229.2" y="79.7" width="11.5" height="11.5"/>
    <rect class="cls-8" x="217.8" y="79.7" width="11.5" height="11.5"/>
    <rect class="cls-1" x="206.3" y="79.7" width="11.5" height="11.5"/>
    <rect class="cls-1" x="194.9" y="79.7" width="11.5" height="11.5"/>
    <rect class="cls-1" x="183.4" y="79.7" width="11.5" height="11.5"/>
    <rect class="cls-1" x="171.9" y="79.7" width="11.5" height="11.5"/>
    <rect class="cls-1" x="160.5" y="79.7" width="11.5" height="11.5"/>
    <rect class="cls-1" x="149" y="79.7" width="11.5" height="11.5"/>
    <rect class="cls-1" x="137.6" y="79.7" width="11.5" height="11.5"/>
    <rect class="cls-1" x="126.1" y="79.7" width="11.5" height="11.5"/>
    <rect class="cls-1" x="114.7" y="79.7" width="11.5" height="11.5"/>
    <rect class="cls-1" x="103.2" y="79.7" width="11.5" height="11.5"/>
    <rect class="cls-1" x="91.8" y="79.7" width="11.5" height="11.5"/>
    <rect class="cls-1" x="80.3" y="79.7" width="11.5" height="11.5"/>
    <rect class="cls-1" x="68.9" y="79.7" width="11.5" height="11.5"/>
    <rect class="cls-1" x="57.4" y="79.7" width="11.5" height="11.5"/>
    <rect class="cls-1" x="45.9" y="79.7" width="11.5" height="11.5"/>
    <rect class="cls-1" x="34.5" y="79.7" width="11.5" height="11.5"/>
    <rect class="cls-1" x="23" y="79.7" width="11.5" height="11.5"/>
    <rect class="cls-9" x="11.6" y="79.7" width="11.5" height="11.5"/>
    <rect class="cls-4" x=".1" y="79.7" width="11.5" height="11.5"/>
    <rect class="cls-4" x="229.2" y="68.3" width="11.5" height="11.5"/>
    <rect class="cls-8" x="217.8" y="68.3" width="11.5" height="11.5"/>
    <rect class="cls-1" x="206.3" y="68.3" width="11.5" height="11.5"/>
    <rect class="cls-1" x="194.9" y="68.3" width="11.5" height="11.5"/>
    <rect class="cls-1" x="183.4" y="68.3" width="11.5" height="11.5"/>
    <rect class="cls-1" x="171.9" y="68.3" width="11.5" height="11.5"/>
    <rect class="cls-1" x="160.5" y="68.3" width="11.5" height="11.5"/>
    <rect class="cls-1" x="149" y="68.3" width="11.5" height="11.5"/>
    <rect class="cls-1" x="137.6" y="68.3" width="11.5" height="11.5"/>
    <rect class="cls-1" x="126.1" y="68.3" width="11.5" height="11.5"/>
    <rect class="cls-1" x="114.7" y="68.3" width="11.5" height="11.5"/>
    <rect class="cls-1" x="103.2" y="68.3" width="11.5" height="11.5"/>
    <rect class="cls-1" x="91.8" y="68.3" width="11.5" height="11.5"/>
    <rect class="cls-1" x="80.3" y="68.3" width="11.5" height="11.5"/>
    <rect class="cls-1" x="68.9" y="68.3" width="11.5" height="11.5"/>
    <rect class="cls-1" x="57.4" y="68.3" width="11.5" height="11.5"/>
    <rect class="cls-1" x="45.9" y="68.3" width="11.5" height="11.5"/>
    <rect class="cls-1" x="34.5" y="68.3" width="11.5" height="11.5"/>
    <rect class="cls-1" x="23" y="68.3" width="11.5" height="11.5"/>
    <rect class="cls-9" x="11.6" y="68.3" width="11.5" height="11.5"/>
    <rect class="cls-4" x=".1" y="68.3" width="11.5" height="11.5"/>
    <rect class="cls-4" x="229.2" y="56.8" width="11.5" height="11.5"/>
    <rect class="cls-8" x="217.8" y="56.8" width="11.5" height="11.5"/>
    <rect class="cls-1" x="206.3" y="56.8" width="11.5" height="11.5"/>
    <rect class="cls-1" x="194.9" y="56.8" width="11.5" height="11.5"/>
    <rect class="cls-1" x="183.4" y="56.8" width="11.5" height="11.5"/>
    <rect class="cls-1" x="171.9" y="56.8" width="11.5" height="11.5"/>
    <rect class="cls-1" x="160.5" y="56.8" width="11.5" height="11.5"/>
    <rect class="cls-1" x="149" y="56.8" width="11.5" height="11.5"/>
    <rect class="cls-1" x="137.6" y="56.8" width="11.5" height="11.5"/>
    <rect class="cls-1" x="126.1" y="56.8" width="11.5" height="11.5"/>
    <rect class="cls-1" x="114.7" y="56.8" width="11.5" height="11.5"/>
    <rect class="cls-1" x="103.2" y="56.8" width="11.5" height="11.5"/>
    <rect class="cls-1" x="91.8" y="56.8" width="11.5" height="11.5"/>
    <rect class="cls-1" x="80.3" y="56.8" width="11.5" height="11.5"/>
    <rect class="cls-1" x="68.9" y="56.8" width="11.5" height="11.5"/>
    <rect class="cls-1" x="57.4" y="56.8" width="11.5" height="11.5"/>
    <rect class="cls-1" x="45.9" y="56.8" width="11.5" height="11.5"/>
    <rect class="cls-1" x="34.5" y="56.8" width="11.5" height="11.5"/>
    <rect class="cls-1" x="23" y="56.8" width="11.5" height="11.5"/>
    <rect class="cls-9" x="11.6" y="56.8" width="11.5" height="11.5"/>
    <rect class="cls-4" x=".1" y="56.8" width="11.5" height="11.5"/>
    <rect class="cls-4" x="229.2" y="45.4" width="11.5" height="11.5"/>
    <rect class="cls-8" x="217.8" y="45.4" width="11.5" height="11.5"/>
    <rect class="cls-1" x="206.3" y="45.4" width="11.5" height="11.5"/>
    <rect class="cls-1" x="194.9" y="45.4" width="11.5" height="11.5"/>
    <rect class="cls-1" x="183.4" y="45.4" width="11.5" height="11.5"/>
    <rect class="cls-1" x="171.9" y="45.4" width="11.5" height="11.5"/>
    <rect class="cls-1" x="160.5" y="45.4" width="11.5" height="11.5"/>
    <rect class="cls-1" x="149" y="45.4" width="11.5" height="11.5"/>
    <rect class="cls-1" x="137.6" y="45.4" width="11.5" height="11.5"/>
    <rect class="cls-1" x="126.1" y="45.4" width="11.5" height="11.5"/>
    <rect class="cls-1" x="114.7" y="45.4" width="11.5" height="11.5"/>
    <rect class="cls-1" x="103.2" y="45.4" width="11.5" height="11.5"/>
    <rect class="cls-1" x="91.8" y="45.4" width="11.5" height="11.5"/>
    <rect class="cls-1" x="80.3" y="45.4" width="11.5" height="11.5"/>
    <rect class="cls-1" x="68.9" y="45.4" width="11.5" height="11.5"/>
    <rect class="cls-1" x="57.4" y="45.4" width="11.5" height="11.5"/>
    <rect class="cls-1" x="45.9" y="45.4" width="11.5" height="11.5"/>
    <rect class="cls-1" x="34.5" y="45.4" width="11.5" height="11.5"/>
    <rect class="cls-1" x="23" y="45.4" width="11.5" height="11.5"/>
    <rect class="cls-9" x="11.6" y="45.4" width="11.5" height="11.5"/>
    <rect class="cls-4" x=".1" y="45.4" width="11.5" height="11.5"/>
    <rect class="cls-4" x="229.2" y="33.9" width="11.5" height="11.5"/>
    <rect class="cls-8" x="217.8" y="33.9" width="11.5" height="11.5"/>
    <rect class="cls-1" x="206.3" y="33.9" width="11.5" height="11.5"/>
    <rect class="cls-1" x="194.9" y="33.9" width="11.5" height="11.5"/>
    <rect class="cls-1" x="183.4" y="33.9" width="11.5" height="11.5"/>
    <rect class="cls-1" x="171.9" y="33.9" width="11.5" height="11.5"/>
    <rect class="cls-1" x="160.5" y="33.9" width="11.5" height="11.5"/>
    <rect class="cls-1" x="149" y="33.9" width="11.5" height="11.5"/>
    <rect class="cls-1" x="137.6" y="33.9" width="11.5" height="11.5"/>
    <rect class="cls-1" x="126.1" y="33.9" width="11.5" height="11.5"/>
    <rect class="cls-1" x="114.7" y="33.9" width="11.5" height="11.5"/>
    <rect class="cls-1" x="103.2" y="33.9" width="11.5" height="11.5"/>
    <rect class="cls-1" x="91.8" y="33.9" width="11.5" height="11.5"/>
    <rect class="cls-1" x="80.3" y="33.9" width="11.5" height="11.5"/>
    <rect class="cls-1" x="68.9" y="33.9" width="11.5" height="11.5"/>
    <rect class="cls-1" x="57.4" y="33.9" width="11.5" height="11.5"/>
    <rect class="cls-1" x="45.9" y="33.9" width="11.5" height="11.5"/>
    <rect class="cls-1" x="34.5" y="33.9" width="11.5" height="11.5"/>
    <rect class="cls-1" x="23" y="33.9" width="11.5" height="11.5"/>
    <rect class="cls-9" x="11.6" y="33.9" width="11.5" height="11.5"/>
    <rect class="cls-4" x=".1" y="33.9" width="11.5" height="11.5"/>
    <rect class="cls-4" x="229.2" y="22.5" width="11.5" height="11.5"/>
    <rect class="cls-8" x="217.8" y="22.5" width="11.5" height="11.5"/>
    <rect class="cls-1" x="206.3" y="22.5" width="11.5" height="11.5"/>
    <rect class="cls-1" x="194.9" y="22.5" width="11.5" height="11.5"/>
    <rect class="cls-1" x="183.4" y="22.5" width="11.5" height="11.5"/>
    <rect class="cls-1" x="171.9" y="22.5" width="11.5" height="11.5"/>
    <rect class="cls-1" x="160.5" y="22.5" width="11.5" height="11.5"/>
    <rect class="cls-1" x="149" y="22.5" width="11.5" height="11.5"/>
    <rect class="cls-1" x="137.6" y="22.5" width="11.5" height="11.5"/>
    <rect class="cls-1" x="126.1" y="22.5" width="11.5" height="11.5"/>
    <rect class="cls-1" x="114.7" y="22.5" width="11.5" height="11.5"/>
    <rect class="cls-1" x="103.2" y="22.5" width="11.5" height="11.5"/>
    <rect class="cls-1" x="91.8" y="22.5" width="11.5" height="11.5"/>
    <rect class="cls-1" x="80.3" y="22.5" width="11.5" height="11.5"/>
    <rect class="cls-1" x="68.9" y="22.5" width="11.5" height="11.5"/>
    <rect class="cls-1" x="57.4" y="22.5" width="11.5" height="11.5"/>
    <rect class="cls-1" x="45.9" y="22.5" width="11.5" height="11.5"/>
    <rect class="cls-1" x="34.5" y="22.5" width="11.5" height="11.5"/>
    <rect class="cls-1" x="23" y="22.5" width="11.5" height="11.5"/>
    <rect class="cls-9" x="11.6" y="22.5" width="11.5" height="11.5"/>
    <rect class="cls-4" x=".1" y="22.5" width="11.5" height="11.5"/>
    <rect class="cls-4" x="217.8" y="11" width="11.5" height="11.5"/>
    <rect class="cls-9" x="206.3" y="11" width="11.5" height="11.5"/>
    <rect class="cls-9" x="194.9" y="11" width="11.5" height="11.5"/>
    <rect class="cls-9" x="183.4" y="11" width="11.5" height="11.5"/>
    <rect class="cls-9" x="171.9" y="11" width="11.5" height="11.5"/>
    <rect class="cls-9" x="160.5" y="11" width="11.5" height="11.5"/>
    <rect class="cls-9" x="149" y="11" width="11.5" height="11.5"/>
    <rect class="cls-9" x="137.6" y="11" width="11.5" height="11.5"/>
    <rect class="cls-9" x="126.1" y="11" width="11.5" height="11.5"/>
    <rect class="cls-9" x="114.7" y="11" width="11.5" height="11.5"/>
    <rect class="cls-9" x="103.2" y="11" width="11.5" height="11.5"/>
    <rect class="cls-9" x="91.8" y="11" width="11.5" height="11.5"/>
    <rect class="cls-9" x="80.3" y="11" width="11.5" height="11.5"/>
    <rect class="cls-9" x="68.9" y="11" width="11.5" height="11.5"/>
    <rect class="cls-9" x="57.4" y="11" width="11.5" height="11.5"/>
    <rect class="cls-9" x="45.9" y="11" width="11.5" height="11.5"/>
    <rect class="cls-9" x="34.5" y="11" width="11.5" height="11.5"/>
    <rect class="cls-9" x="23" y="11" width="11.5" height="11.5"/>
    <rect class="cls-4" x="11.6" y="11" width="11.5" height="11.5"/>
    <rect class="cls-4" x="206.3" y="-.5" width="11.5" height="11.5"/>
    <rect class="cls-4" x="194.9" y="-.5" width="11.5" height="11.5"/>
    <rect class="cls-4" x="183.4" y="-.5" width="11.5" height="11.5"/>
    <rect class="cls-4" x="171.9" y="-.5" width="11.5" height="11.5"/>
    <rect class="cls-4" x="160.5" y="-.5" width="11.5" height="11.5"/>
    <rect class="cls-4" x="149" y="-.5" width="11.5" height="11.5"/>
    <rect class="cls-4" x="137.6" y="-.5" width="11.5" height="11.5"/>
    <rect class="cls-4" x="126.1" y="-.5" width="11.5" height="11.5"/>
    <rect class="cls-4" x="114.7" y="-.5" width="11.5" height="11.5"/>
    <rect class="cls-4" x="103.2" y="-.5" width="11.5" height="11.5"/>
    <rect class="cls-4" x="91.8" y="-.5" width="11.5" height="11.5"/>
    <rect class="cls-4" x="80.3" y="-.5" width="11.5" height="11.5"/>
    <rect class="cls-4" x="68.9" y="-.5" width="11.5" height="11.5"/>
    <rect class="cls-4" x="57.4" y="-.5" width="11.5" height="11.5"/>
    <rect class="cls-4" x="45.9" y="-.5" width="11.5" height="11.5"/>
    <rect class="cls-4" x="34.5" y="-.5" width="11.5" height="11.5"/>
    <rect class="cls-4" x="23" y="-.5" width="11.5" height="11.5"/>
  </g>
  <g>
    <rect class="cls-4" x="81.1" y="80.6" width="3.3" height="3.3"/>
    <rect class="cls-4" x="77.8" y="80.6" width="3.3" height="3.3"/>
    <rect class="cls-4" x="74.5" y="80.6" width="3.3" height="3.3"/>
    <rect class="cls-4" x="71.2" y="80.6" width="3.3" height="3.3"/>
    <rect class="cls-4" x="67.9" y="80.6" width="3.3" height="3.3"/>
    <rect class="cls-4" x="64.6" y="80.6" width="3.3" height="3.3"/>
    <rect class="cls-4" x="61.3" y="80.6" width="3.3" height="3.3"/>
    <rect class="cls-4" x="94.4" y="77.3" width="3.3" height="3.3"/>
    <rect class="cls-4" x="91.1" y="77.3" width="3.3" height="3.3"/>
    <rect class="cls-4" x="87.8" y="77.3" width="3.3" height="3.3"/>
    <rect class="cls-4" x="84.4" y="77.3" width="3.3" height="3.3"/>
    <rect class="cls-5" x="81.1" y="77.3" width="3.3" height="3.3"/>
    <rect class="cls-5" x="77.8" y="77.3" width="3.3" height="3.3"/>
    <rect class="cls-5" x="74.5" y="77.3" width="3.3" height="3.3"/>
    <rect class="cls-5" x="71.2" y="77.3" width="3.3" height="3.3"/>
    <rect class="cls-5" x="67.9" y="77.3" width="3.3" height="3.3"/>
    <rect class="cls-5" x="64.6" y="77.3" width="3.3" height="3.3"/>
    <rect class="cls-5" x="61.3" y="77.3" width="3.3" height="3.3"/>
    <rect class="cls-4" x="58" y="77.3" width="3.3" height="3.3"/>
    <rect class="cls-4" x="54.7" y="77.3" width="3.3" height="3.3"/>
    <rect class="cls-4" x="51.4" y="77.3" width="3.3" height="3.3"/>
    <rect class="cls-4" x="48" y="77.3" width="3.3" height="3.3"/>
    <rect class="cls-4" x="101" y="74" width="3.3" height="3.3"/>
    <rect class="cls-4" x="97.7" y="74" width="3.3" height="3.3"/>
    <rect class="cls-5" x="94.4" y="74" width="3.3" height="3.3"/>
    <rect class="cls-5" x="91.1" y="74" width="3.3" height="3.3"/>
    <rect class="cls-5" x="87.8" y="74" width="3.3" height="3.3"/>
    <rect class="cls-5" x="84.4" y="74" width="3.3" height="3.3"/>
    <rect class="cls-5" x="81.1" y="74" width="3.3" height="3.3"/>
    <rect class="cls-10" x="77.8" y="74" width="3.3" height="3.3"/>
    <rect class="cls-10" x="74.5" y="74" width="3.3" height="3.3"/>
    <rect class="cls-10" x="71.2" y="74" width="3.3" height="3.3"/>
    <rect class="cls-10" x="67.9" y="74" width="3.3" height="3.3"/>
    <rect class="cls-10" x="64.6" y="74" width="3.3" height="3.3"/>
    <rect class="cls-5" x="61.3" y="74" width="3.3" height="3.3"/>
    <rect class="cls-5" x="58" y="74" width="3.3" height="3.3"/>
    <rect class="cls-5" x="54.7" y="74" width="3.3" height="3.3"/>
    <rect class="cls-5" x="51.4" y="74" width="3.3" height="3.3"/>
    <rect class="cls-5" x="48" y="74" width="3.3" height="3.3"/>
    <rect class="cls-4" x="44.7" y="74" width="3.3" height="3.3"/>
    <rect class="cls-4" x="41.4" y="74" width="3.3" height="3.3"/>
    <rect class="cls-4" x="104.3" y="70.7" width="3.3" height="3.3"/>
    <rect class="cls-5" x="101" y="70.7" width="3.3" height="3.3"/>
    <rect class="cls-5" x="97.7" y="70.7" width="3.3" height="3.3"/>
    <rect class="cls-5" x="94.4" y="70.7" width="3.3" height="3.3"/>
    <rect class="cls-10" x="91.1" y="70.7" width="3.3" height="3.3"/>
    <rect class="cls-10" x="87.8" y="70.7" width="3.3" height="3.3"/>
    <rect class="cls-10" x="84.4" y="70.7" width="3.3" height="3.3"/>
    <rect class="cls-10" x="81.1" y="70.7" width="3.3" height="3.3"/>
    <rect class="cls-10" x="77.8" y="70.7" width="3.3" height="3.3"/>
    <rect class="cls-10" x="74.5" y="70.7" width="3.3" height="3.3"/>
    <rect class="cls-10" x="71.2" y="70.7" width="3.3" height="3.3"/>
    <rect class="cls-10" x="67.9" y="70.7" width="3.3" height="3.3"/>
    <rect class="cls-10" x="64.6" y="70.7" width="3.3" height="3.3"/>
    <rect class="cls-10" x="61.3" y="70.7" width="3.3" height="3.3"/>
    <rect class="cls-10" x="58" y="70.7" width="3.3" height="3.3"/>
    <rect class="cls-10" x="54.7" y="70.7" width="3.3" height="3.3"/>
    <rect class="cls-10" x="51.4" y="70.7" width="3.3" height="3.3"/>
    <rect class="cls-5" x="48" y="70.7" width="3.3" height="3.3"/>
    <rect class="cls-5" x="44.7" y="70.7" width="3.3" height="3.3"/>
    <rect class="cls-5" x="41.4" y="70.7" width="3.3" height="3.3"/>
    <rect class="cls-4" x="38.1" y="70.7" width="3.3" height="3.3"/>
    <rect class="cls-4" x="107.6" y="67.3" width="3.3" height="3.3"/>
    <rect class="cls-5" x="104.3" y="67.3" width="3.3" height="3.3"/>
    <rect class="cls-5" x="101" y="67.3" width="3.3" height="3.3"/>
    <rect class="cls-5" x="97.7" y="67.3" width="3.3" height="3.3"/>
    <rect class="cls-10" x="94.4" y="67.3" width="3.3" height="3.3"/>
    <rect class="cls-10" x="91.1" y="67.3" width="3.3" height="3.3"/>
    <rect class="cls-10" x="87.8" y="67.3" width="3.3" height="3.3"/>
    <rect class="cls-10" x="84.4" y="67.3" width="3.3" height="3.3"/>
    <rect class="cls-10" x="81.1" y="67.3" width="3.3" height="3.3"/>
    <rect class="cls-2" x="77.8" y="67.3" width="3.3" height="3.3"/>
    <rect class="cls-2" x="74.5" y="67.3" width="3.3" height="3.3"/>
    <rect class="cls-2" x="71.2" y="67.3" width="3.3" height="3.3"/>
    <rect class="cls-2" x="67.9" y="67.3" width="3.3" height="3.3"/>
    <rect class="cls-2" x="64.6" y="67.3" width="3.3" height="3.3"/>
    <rect class="cls-10" x="61.3" y="67.3" width="3.3" height="3.3"/>
    <rect class="cls-10" x="58" y="67.3" width="3.3" height="3.3"/>
    <rect class="cls-10" x="54.7" y="67.3" width="3.3" height="3.3"/>
    <rect class="cls-10" x="51.4" y="67.3" width="3.3" height="3.3"/>
    <rect class="cls-10" x="48" y="67.3" width="3.3" height="3.3"/>
    <rect class="cls-10" x="44.7" y="67.3" width="3.3" height="3.3"/>
    <rect class="cls-10" x="41.4" y="67.3" width="3.3" height="3.3"/>
    <rect class="cls-10" x="38.1" y="67.3" width="3.3" height="3.3"/>
    <rect class="cls-4" x="34.8" y="67.3" width="3.3" height="3.3"/>
    <rect class="cls-4" x="107.6" y="64" width="3.3" height="3.3"/>
    <rect class="cls-5" x="104.3" y="64" width="3.3" height="3.3"/>
    <rect class="cls-5" x="101" y="64" width="3.3" height="3.3"/>
    <rect class="cls-5" x="97.7" y="64" width="3.3" height="3.3"/>
    <rect class="cls-5" x="94.4" y="64" width="3.3" height="3.3"/>
    <rect class="cls-10" x="91.1" y="64" width="3.3" height="3.3"/>
    <rect class="cls-2" x="87.8" y="64" width="3.3" height="3.3"/>
    <rect class="cls-2" x="84.4" y="64" width="3.3" height="3.3"/>
    <rect class="cls-2" x="81.1" y="64" width="3.3" height="3.3"/>
    <rect class="cls-2" x="77.8" y="64" width="3.3" height="3.3"/>
    <rect class="cls-2" x="74.5" y="64" width="3.3" height="3.3"/>
    <rect class="cls-2" x="71.2" y="64" width="3.3" height="3.3"/>
    <rect class="cls-2" x="67.9" y="64" width="3.3" height="3.3"/>
    <rect class="cls-2" x="64.6" y="64" width="3.3" height="3.3"/>
    <rect class="cls-2" x="61.3" y="64" width="3.3" height="3.3"/>
    <rect class="cls-2" x="58" y="64" width="3.3" height="3.3"/>
    <rect class="cls-2" x="54.7" y="64" width="3.3" height="3.3"/>
    <rect class="cls-10" x="51.4" y="64" width="3.3" height="3.3"/>
    <rect class="cls-10" x="48" y="64" width="3.3" height="3.3"/>
    <rect class="cls-10" x="44.7" y="64" width="3.3" height="3.3"/>
    <rect class="cls-10" x="41.4" y="64" width="3.3" height="3.3"/>
    <rect class="cls-6" x="38.1" y="64" width="3.3" height="3.3"/>
    <rect class="cls-4" x="34.8" y="64" width="3.3" height="3.3"/>
    <rect class="cls-4" x="107.6" y="60.7" width="3.3" height="3.3"/>
    <rect class="cls-5" x="104.3" y="60.7" width="3.3" height="3.3"/>
    <rect class="cls-5" x="101" y="60.7" width="3.3" height="3.3"/>
    <rect class="cls-5" x="97.7" y="60.7" width="3.3" height="3.3"/>
    <rect class="cls-4" x="94.4" y="60.7" width="3.3" height="3.3"/>
    <rect class="cls-7" x="91.1" y="60.7" width="3.3" height="3.3"/>
    <rect class="cls-2" x="87.8" y="60.7" width="3.3" height="3.3"/>
    <rect class="cls-2" x="84.4" y="60.7" width="3.3" height="3.3"/>
    <rect class="cls-2" x="81.1" y="60.7" width="3.3" height="3.3"/>
    <rect class="cls-2" x="77.8" y="60.7" width="3.3" height="3.3"/>
    <rect class="cls-10" x="74.5" y="60.7" width="3.3" height="3.3"/>
    <rect class="cls-10" x="71.2" y="60.7" width="3.3" height="3.3"/>
    <rect class="cls-10" x="67.9" y="60.7" width="3.3" height="3.3"/>
    <rect class="cls-2" x="64.6" y="60.7" width="3.3" height="3.3"/>
    <rect class="cls-2" x="61.3" y="60.7" width="3.3" height="3.3"/>
    <rect class="cls-2" x="58" y="60.7" width="3.3" height="3.3"/>
    <rect class="cls-2" x="54.7" y="60.7" width="3.3" height="3.3"/>
    <rect class="cls-3" x="51.4" y="60.7" width="3.3" height="3.3"/>
    <rect class="cls-4" x="48" y="60.7" width="3.3" height="3.3"/>
    <rect class="cls-6" x="44.7" y="60.7" width="3.3" height="3.3"/>
    <rect class="cls-6" x="41.4" y="60.7" width="3.3" height="3.3"/>
    <rect class="cls-6" x="38.1" y="60.7" width="3.3" height="3.3"/>
    <rect class="cls-4" x="34.8" y="60.7" width="3.3" height="3.3"/>
    <rect class="cls-4" x="104.3" y="57.4" width="3.3" height="3.3"/>
    <rect class="cls-4" x="101" y="57.4" width="3.3" height="3.3"/>
    <rect class="cls-4" x="97.7" y="57.4" width="3.3" height="3.3"/>
    <rect class="cls-4" x="94.4" y="57.4" width="3.3" height="3.3"/>
    <rect class="cls-7" x="91.1" y="57.4" width="3.3" height="3.3"/>
    <rect class="cls-2" x="87.8" y="57.4" width="3.3" height="3.3"/>
    <rect class="cls-10" x="84.4" y="57.4" width="3.3" height="3.3"/>
    <rect class="cls-10" x="81.1" y="57.4" width="3.3" height="3.3"/>
    <rect class="cls-10" x="77.8" y="57.4" width="3.3" height="3.3"/>
    <rect class="cls-10" x="74.5" y="57.4" width="3.3" height="3.3"/>
    <rect class="cls-10" x="71.2" y="57.4" width="3.3" height="3.3"/>
    <rect class="cls-10" x="67.9" y="57.4" width="3.3" height="3.3"/>
    <rect class="cls-10" x="64.6" y="57.4" width="3.3" height="3.3"/>
    <rect class="cls-10" x="61.3" y="57.4" width="3.3" height="3.3"/>
    <rect class="cls-10" x="58" y="57.4" width="3.3" height="3.3"/>
    <rect class="cls-2" x="54.7" y="57.4" width="3.3" height="3.3"/>
    <rect class="cls-3" x="51.4" y="57.4" width="3.3" height="3.3"/>
    <rect class="cls-4" x="48" y="57.4" width="3.3" height="3.3"/>
    <rect class="cls-4" x="44.7" y="57.4" width="3.3" height="3.3"/>
    <rect class="cls-4" x="41.4" y="57.4" width="3.3" height="3.3"/>
    <rect class="cls-4" x="38.1" y="57.4" width="3.3" height="3.3"/>
    <rect class="cls-4" x="94.4" y="54.1" width="3.3" height="3.3"/>
    <rect class="cls-7" x="91.1" y="54.1" width="3.3" height="3.3"/>
    <rect class="cls-10" x="87.8" y="54.1" width="3.3" height="3.3"/>
    <rect class="cls-10" x="84.4" y="54.1" width="3.3" height="3.3"/>
    <rect class="cls-10" x="81.1" y="54.1" width="3.3" height="3.3"/>
    <rect class="cls-10" x="77.8" y="54.1" width="3.3" height="3.3"/>
    <rect class="cls-10" x="74.5" y="54.1" width="3.3" height="3.3"/>
    <rect class="cls-10" x="71.2" y="54.1" width="3.3" height="3.3"/>
    <rect class="cls-10" x="67.9" y="54.1" width="3.3" height="3.3"/>
    <rect class="cls-10" x="64.6" y="54.1" width="3.3" height="3.3"/>
    <rect class="cls-10" x="61.3" y="54.1" width="3.3" height="3.3"/>
    <rect class="cls-10" x="58" y="54.1" width="3.3" height="3.3"/>
    <rect class="cls-10" x="54.7" y="54.1" width="3.3" height="3.3"/>
    <rect class="cls-3" x="51.4" y="54.1" width="3.3" height="3.3"/>
    <rect class="cls-4" x="48" y="54.1" width="3.3" height="3.3"/>
    <rect class="cls-4" x="94.4" y="50.8" width="3.3" height="3.3"/>
    <rect class="cls-5" x="91.1" y="50.8" width="3.3" height="3.3"/>
    <rect class="cls-10" x="87.8" y="50.8" width="3.3" height="3.3"/>
    <rect class="cls-10" x="84.4" y="50.8" width="3.3" height="3.3"/>
    <rect class="cls-10" x="81.1" y="50.8" width="3.3" height="3.3"/>
    <rect class="cls-10" x="77.8" y="50.8" width="3.3" height="3.3"/>
    <rect class="cls-10" x="74.5" y="50.8" width="3.3" height="3.3"/>
    <rect class="cls-10" x="71.2" y="50.8" width="3.3" height="3.3"/>
    <rect class="cls-10" x="67.9" y="50.8" width="3.3" height="3.3"/>
    <rect class="cls-10" x="64.6" y="50.8" width="3.3" height="3.3"/>
    <rect class="cls-10" x="61.3" y="50.8" width="3.3" height="3.3"/>
    <rect class="cls-10" x="58" y="50.8" width="3.3" height="3.3"/>
    <rect class="cls-10" x="54.7" y="50.8" width="3.3" height="3.3"/>
    <rect class="cls-6" x="51.4" y="50.8" width="3.3" height="3.3"/>
    <rect class="cls-4" x="48" y="50.8" width="3.3" height="3.3"/>
    <rect class="cls-4" x="94.4" y="47.5" width="3.3" height="3.3"/>
    <rect class="cls-5" x="91.1" y="47.5" width="3.3" height="3.3"/>
    <rect class="cls-5" x="87.8" y="47.5" width="3.3" height="3.3"/>
    <rect class="cls-10" x="84.4" y="47.5" width="3.3" height="3.3"/>
    <rect class="cls-10" x="81.1" y="47.5" width="3.3" height="3.3"/>
    <rect class="cls-10" x="77.8" y="47.5" width="3.3" height="3.3"/>
    <rect class="cls-10" x="74.5" y="47.5" width="3.3" height="3.3"/>
    <rect class="cls-10" x="71.2" y="47.5" width="3.3" height="3.3"/>
    <rect class="cls-10" x="67.9" y="47.5" width="3.3" height="3.3"/>
    <rect class="cls-10" x="64.6" y="47.5" width="3.3" height="3.3"/>
    <rect class="cls-10" x="61.3" y="47.5" width="3.3" height="3.3"/>
    <rect class="cls-10" x="58" y="47.5" width="3.3" height="3.3"/>
    <rect class="cls-10" x="54.7" y="47.5" width="3.3" height="3.3"/>
    <rect class="cls-6" x="51.4" y="47.5" width="3.3" height="3.3"/>
    <rect class="cls-4" x="48" y="47.5" width="3.3" height="3.3"/>
    <rect class="cls-4" x="91.1" y="44.2" width="3.3" height="3.3"/>
    <rect class="cls-5" x="87.8" y="44.2" width="3.3" height="3.3"/>
    <rect class="cls-10" x="84.4" y="44.2" width="3.3" height="3.3"/>
    <rect class="cls-10" x="81.1" y="44.2" width="3.3" height="3.3"/>
    <rect class="cls-10" x="77.8" y="44.2" width="3.3" height="3.3"/>
    <rect class="cls-10" x="74.5" y="44.2" width="3.3" height="3.3"/>
    <rect class="cls-10" x="71.2" y="44.2" width="3.3" height="3.3"/>
    <rect class="cls-10" x="67.9" y="44.2" width="3.3" height="3.3"/>
    <rect class="cls-10" x="64.6" y="44.2" width="3.3" height="3.3"/>
    <rect class="cls-10" x="61.3" y="44.2" width="3.3" height="3.3"/>
    <rect class="cls-10" x="58" y="44.2" width="3.3" height="3.3"/>
    <rect class="cls-6" x="54.7" y="44.2" width="3.3" height="3.3"/>
    <rect class="cls-4" x="51.4" y="44.2" width="3.3" height="3.3"/>
    <rect class="cls-4" x="91.1" y="40.9" width="3.3" height="3.3"/>
    <rect class="cls-5" x="87.8" y="40.9" width="3.3" height="3.3"/>
    <rect class="cls-5" x="84.4" y="40.9" width="3.3" height="3.3"/>
    <rect class="cls-10" x="81.1" y="40.9" width="3.3" height="3.3"/>
    <rect class="cls-6" x="77.8" y="40.9" width="3.3" height="3.3"/>
    <rect class="cls-6" x="74.5" y="40.9" width="3.3" height="3.3"/>
    <rect class="cls-6" x="71.2" y="40.9" width="3.3" height="3.3"/>
    <rect class="cls-10" x="67.9" y="40.9" width="3.3" height="3.3"/>
    <rect class="cls-10" x="64.6" y="40.9" width="3.3" height="3.3"/>
    <rect class="cls-10" x="61.3" y="40.9" width="3.3" height="3.3"/>
    <rect class="cls-6" x="58" y="40.9" width="3.3" height="3.3"/>
    <rect class="cls-6" x="54.7" y="40.9" width="3.3" height="3.3"/>
    <rect class="cls-4" x="51.4" y="40.9" width="3.3" height="3.3"/>
    <rect class="cls-4" x="87.8" y="37.6" width="3.3" height="3.3"/>
    <rect class="cls-5" x="84.4" y="37.6" width="3.3" height="3.3"/>
    <rect class="cls-10" x="81.1" y="37.6" width="3.3" height="3.3"/>
    <rect class="cls-6" x="77.8" y="37.6" width="3.3" height="3.3"/>
    <rect class="cls-4" x="74.5" y="37.6" width="3.3" height="3.3"/>
    <rect class="cls-4" x="71.2" y="37.6" width="3.3" height="3.3"/>
    <rect class="cls-4" x="67.9" y="37.6" width="3.3" height="3.3"/>
    <rect class="cls-10" x="64.6" y="37.6" width="3.3" height="3.3"/>
    <rect class="cls-10" x="61.3" y="37.6" width="3.3" height="3.3"/>
    <rect class="cls-6" x="58" y="37.6" width="3.3" height="3.3"/>
    <rect class="cls-4" x="54.7" y="37.6" width="3.3" height="3.3"/>
    <rect class="cls-4" x="87.8" y="34.3" width="3.3" height="3.3"/>
    <rect class="cls-6" x="84.4" y="34.3" width="3.3" height="3.3"/>
    <rect class="cls-6" x="81.1" y="34.3" width="3.3" height="3.3"/>
    <rect class="cls-6" x="77.8" y="34.3" width="3.3" height="3.3"/>
    <rect class="cls-4" x="74.5" y="34.3" width="3.3" height="3.3"/>
    <rect class="cls-4" x="67.9" y="34.3" width="3.3" height="3.3"/>
    <rect class="cls-6" x="64.6" y="34.3" width="3.3" height="3.3"/>
    <rect class="cls-6" x="61.3" y="34.3" width="3.3" height="3.3"/>
    <rect class="cls-6" x="58" y="34.3" width="3.3" height="3.3"/>
    <rect class="cls-4" x="54.7" y="34.3" width="3.3" height="3.3"/>
    <rect class="cls-4" x="84.4" y="30.9" width="3.3" height="3.3"/>
    <rect class="cls-4" x="81.1" y="30.9" width="3.3" height="3.3"/>
    <rect class="cls-4" x="77.8" y="30.9" width="3.3" height="3.3"/>
    <rect class="cls-4" x="64.6" y="30.9" width="3.3" height="3.3"/>
    <rect class="cls-4" x="61.3" y="30.9" width="3.3" height="3.3"/>
    <rect class="cls-4" x="58" y="30.9" width="3.3" height="3.3"/>
  </g>
</svg>