<?xml version="1.0" encoding="UTF-8"?>
<svg id="Layer_1" data-name="Layer 1" xmlns="http://www.w3.org/2000/svg" version="1.1" viewBox="0 0 240.8 114.1">
  <defs>
    <style>
      .cls-1 {
        fill: #cfbf5f;
      }

      .cls-1, .cls-2, .cls-3, .cls-4, .cls-5, .cls-6, .cls-7, .cls-8, .cls-9, .cls-10, .cls-11, .cls-12, .cls-13 {
        stroke-width: 0px;
      }

      .cls-2 {
        fill: #e6da78;
      }

      .cls-3 {
        fill: #eaeaea;
      }

      .cls-4 {
        fill: #0acfb3;
      }

      .cls-5 {
        fill: #afacac;
      }

      .cls-6 {
        fill: #07a1ad;
      }

      .cls-7 {
        fill: #f3e897;
      }

      .cls-8 {
        fill: #0effba;
      }

      .cls-9 {
        fill: #2d1a47;
      }

      .cls-10 {
        fill: #000;
      }

      .cls-11 {
        fill: #f2f2f2;
      }

      .cls-12 {
        fill: #ccc;
      }

      .cls-13 {
        fill: #fff;
      }
    </style>
  </defs>
  <g>
    <rect class="cls-10" x="206.4" y="102.9" width="11.5" height="11.5"/>
    <rect class="cls-10" x="194.9" y="102.9" width="11.5" height="11.5"/>
    <rect class="cls-10" x="183.4" y="102.9" width="11.5" height="11.5"/>
    <rect class="cls-10" x="172" y="102.9" width="11.5" height="11.5"/>
    <rect class="cls-10" x="160.5" y="102.9" width="11.5" height="11.5"/>
    <rect class="cls-10" x="149" y="102.9" width="11.5" height="11.5"/>
    <rect class="cls-10" x="137.6" y="102.9" width="11.5" height="11.5"/>
    <rect class="cls-10" x="126.1" y="102.9" width="11.5" height="11.5"/>
    <rect class="cls-10" x="114.7" y="102.9" width="11.5" height="11.5"/>
    <rect class="cls-10" x="103.2" y="102.9" width="11.5" height="11.5"/>
    <rect class="cls-10" x="91.7" y="102.9" width="11.5" height="11.5"/>
    <rect class="cls-10" x="80.3" y="102.9" width="11.5" height="11.5"/>
    <rect class="cls-10" x="68.8" y="102.9" width="11.5" height="11.5"/>
    <rect class="cls-10" x="57.3" y="102.9" width="11.5" height="11.5"/>
    <rect class="cls-10" x="45.9" y="102.9" width="11.5" height="11.5"/>
    <rect class="cls-10" x="34.4" y="102.9" width="11.5" height="11.5"/>
    <rect class="cls-10" x="22.9" y="102.9" width="11.5" height="11.5"/>
    <rect class="cls-10" x="217.8" y="91.4" width="11.5" height="11.5"/>
    <rect class="cls-12" x="206.4" y="91.4" width="11.5" height="11.5"/>
    <rect class="cls-12" x="194.9" y="91.4" width="11.5" height="11.5"/>
    <rect class="cls-12" x="183.4" y="91.4" width="11.5" height="11.5"/>
    <rect class="cls-12" x="172" y="91.4" width="11.5" height="11.5"/>
    <rect class="cls-12" x="160.5" y="91.4" width="11.5" height="11.5"/>
    <rect class="cls-12" x="149" y="91.4" width="11.5" height="11.5"/>
    <rect class="cls-12" x="137.6" y="91.4" width="11.5" height="11.5"/>
    <rect class="cls-12" x="126.1" y="91.4" width="11.5" height="11.5"/>
    <rect class="cls-12" x="114.7" y="91.4" width="11.5" height="11.5"/>
    <rect class="cls-12" x="103.2" y="91.4" width="11.5" height="11.5"/>
    <rect class="cls-12" x="91.7" y="91.4" width="11.5" height="11.5"/>
    <rect class="cls-12" x="80.3" y="91.4" width="11.5" height="11.5"/>
    <rect class="cls-12" x="68.8" y="91.4" width="11.5" height="11.5"/>
    <rect class="cls-12" x="57.3" y="91.4" width="11.5" height="11.5"/>
    <rect class="cls-12" x="45.9" y="91.4" width="11.5" height="11.5"/>
    <rect class="cls-12" x="34.4" y="91.4" width="11.5" height="11.5"/>
    <rect class="cls-12" x="22.9" y="91.4" width="11.5" height="11.5"/>
    <rect class="cls-10" x="11.5" y="91.4" width="11.5" height="11.5"/>
    <rect class="cls-10" x="229.3" y="80" width="11.5" height="11.5"/>
    <rect class="cls-12" x="217.8" y="80" width="11.5" height="11.5"/>
    <rect class="cls-3" x="206.4" y="80" width="11.5" height="11.5"/>
    <rect class="cls-3" x="194.9" y="80" width="11.5" height="11.5"/>
    <rect class="cls-3" x="183.4" y="80" width="11.5" height="11.5"/>
    <rect class="cls-3" x="172" y="80" width="11.5" height="11.5"/>
    <rect class="cls-3" x="160.5" y="80" width="11.5" height="11.5"/>
    <rect class="cls-3" x="149" y="80" width="11.5" height="11.5"/>
    <rect class="cls-3" x="137.6" y="80" width="11.5" height="11.5"/>
    <rect class="cls-3" x="126.1" y="80" width="11.5" height="11.5"/>
    <rect class="cls-3" x="114.7" y="80" width="11.5" height="11.5"/>
    <rect class="cls-3" x="103.2" y="80" width="11.5" height="11.5"/>
    <rect class="cls-3" x="91.7" y="80" width="11.5" height="11.5"/>
    <rect class="cls-3" x="80.3" y="80" width="11.5" height="11.5"/>
    <rect class="cls-3" x="68.8" y="80" width="11.5" height="11.5"/>
    <rect class="cls-3" x="57.3" y="80" width="11.5" height="11.5"/>
    <rect class="cls-3" x="45.9" y="80" width="11.5" height="11.5"/>
    <rect class="cls-3" x="34.4" y="80" width="11.5" height="11.5"/>
    <rect class="cls-3" x="22.9" y="80" width="11.5" height="11.5"/>
    <rect class="cls-13" x="11.5" y="80" width="11.5" height="11.5"/>
    <rect class="cls-10" y="80" width="11.5" height="11.5"/>
    <rect class="cls-10" x="229.3" y="68.5" width="11.5" height="11.5"/>
    <rect class="cls-12" x="217.8" y="68.5" width="11.5" height="11.5"/>
    <rect class="cls-3" x="206.4" y="68.5" width="11.5" height="11.5"/>
    <rect class="cls-3" x="194.9" y="68.5" width="11.5" height="11.5"/>
    <rect class="cls-3" x="183.4" y="68.5" width="11.5" height="11.5"/>
    <rect class="cls-3" x="172" y="68.5" width="11.5" height="11.5"/>
    <rect class="cls-3" x="160.5" y="68.5" width="11.5" height="11.5"/>
    <rect class="cls-3" x="149" y="68.5" width="11.5" height="11.5"/>
    <rect class="cls-3" x="137.6" y="68.5" width="11.5" height="11.5"/>
    <rect class="cls-3" x="126.1" y="68.5" width="11.5" height="11.5"/>
    <rect class="cls-3" x="114.7" y="68.5" width="11.5" height="11.5"/>
    <rect class="cls-3" x="103.2" y="68.5" width="11.5" height="11.5"/>
    <rect class="cls-3" x="91.7" y="68.5" width="11.5" height="11.5"/>
    <rect class="cls-3" x="80.3" y="68.5" width="11.5" height="11.5"/>
    <rect class="cls-3" x="68.8" y="68.5" width="11.5" height="11.5"/>
    <rect class="cls-3" x="57.3" y="68.5" width="11.5" height="11.5"/>
    <rect class="cls-3" x="45.9" y="68.5" width="11.5" height="11.5"/>
    <rect class="cls-3" x="34.4" y="68.5" width="11.5" height="11.5"/>
    <rect class="cls-3" x="22.9" y="68.5" width="11.5" height="11.5"/>
    <rect class="cls-13" x="11.5" y="68.5" width="11.5" height="11.5"/>
    <rect class="cls-10" y="68.5" width="11.5" height="11.5"/>
    <rect class="cls-10" x="229.3" y="57" width="11.5" height="11.5"/>
    <rect class="cls-12" x="217.8" y="57" width="11.5" height="11.5"/>
    <rect class="cls-3" x="206.4" y="57" width="11.5" height="11.5"/>
    <rect class="cls-3" x="194.9" y="57" width="11.5" height="11.5"/>
    <rect class="cls-3" x="183.4" y="57" width="11.5" height="11.5"/>
    <rect class="cls-3" x="172" y="57" width="11.5" height="11.5"/>
    <rect class="cls-3" x="160.5" y="57" width="11.5" height="11.5"/>
    <rect class="cls-3" x="149" y="57" width="11.5" height="11.5"/>
    <rect class="cls-3" x="137.6" y="57" width="11.5" height="11.5"/>
    <rect class="cls-3" x="126.1" y="57" width="11.5" height="11.5"/>
    <rect class="cls-3" x="114.7" y="57" width="11.5" height="11.5"/>
    <rect class="cls-3" x="103.2" y="57" width="11.5" height="11.5"/>
    <rect class="cls-3" x="91.7" y="57" width="11.5" height="11.5"/>
    <rect class="cls-3" x="80.3" y="57" width="11.5" height="11.5"/>
    <rect class="cls-3" x="68.8" y="57" width="11.5" height="11.5"/>
    <rect class="cls-3" x="57.3" y="57" width="11.5" height="11.5"/>
    <rect class="cls-3" x="45.9" y="57" width="11.5" height="11.5"/>
    <rect class="cls-3" x="34.4" y="57" width="11.5" height="11.5"/>
    <rect class="cls-3" x="22.9" y="57" width="11.5" height="11.5"/>
    <rect class="cls-13" x="11.5" y="57" width="11.5" height="11.5"/>
    <rect class="cls-10" y="57" width="11.5" height="11.5"/>
    <rect class="cls-10" x="229.3" y="45.6" width="11.5" height="11.5"/>
    <rect class="cls-12" x="217.8" y="45.6" width="11.5" height="11.5"/>
    <rect class="cls-3" x="206.4" y="45.6" width="11.5" height="11.5"/>
    <rect class="cls-3" x="194.9" y="45.6" width="11.5" height="11.5"/>
    <rect class="cls-3" x="183.4" y="45.6" width="11.5" height="11.5"/>
    <rect class="cls-3" x="172" y="45.6" width="11.5" height="11.5"/>
    <rect class="cls-3" x="160.5" y="45.6" width="11.5" height="11.5"/>
    <rect class="cls-3" x="149" y="45.6" width="11.5" height="11.5"/>
    <rect class="cls-3" x="137.6" y="45.6" width="11.5" height="11.5"/>
    <rect class="cls-3" x="126.1" y="45.6" width="11.5" height="11.5"/>
    <rect class="cls-3" x="114.7" y="45.6" width="11.5" height="11.5"/>
    <rect class="cls-3" x="103.2" y="45.6" width="11.5" height="11.5"/>
    <rect class="cls-3" x="91.7" y="45.6" width="11.5" height="11.5"/>
    <rect class="cls-3" x="80.3" y="45.6" width="11.5" height="11.5"/>
    <rect class="cls-3" x="68.8" y="45.6" width="11.5" height="11.5"/>
    <rect class="cls-3" x="57.3" y="45.6" width="11.5" height="11.5"/>
    <rect class="cls-3" x="45.9" y="45.6" width="11.5" height="11.5"/>
    <rect class="cls-3" x="34.4" y="45.6" width="11.5" height="11.5"/>
    <rect class="cls-3" x="22.9" y="45.6" width="11.5" height="11.5"/>
    <rect class="cls-13" x="11.5" y="45.6" width="11.5" height="11.5"/>
    <rect class="cls-10" y="45.6" width="11.5" height="11.5"/>
    <rect class="cls-10" x="229.3" y="34.1" width="11.5" height="11.5"/>
    <rect class="cls-12" x="217.8" y="34.1" width="11.5" height="11.5"/>
    <rect class="cls-3" x="206.4" y="34.1" width="11.5" height="11.5"/>
    <rect class="cls-3" x="194.9" y="34.1" width="11.5" height="11.5"/>
    <rect class="cls-3" x="183.4" y="34.1" width="11.5" height="11.5"/>
    <rect class="cls-3" x="172" y="34.1" width="11.5" height="11.5"/>
    <rect class="cls-3" x="160.5" y="34.1" width="11.5" height="11.5"/>
    <rect class="cls-3" x="149" y="34.1" width="11.5" height="11.5"/>
    <rect class="cls-3" x="137.6" y="34.1" width="11.5" height="11.5"/>
    <rect class="cls-3" x="126.1" y="34.1" width="11.5" height="11.5"/>
    <rect class="cls-3" x="114.7" y="34.1" width="11.5" height="11.5"/>
    <rect class="cls-3" x="103.2" y="34.1" width="11.5" height="11.5"/>
    <rect class="cls-3" x="91.7" y="34.1" width="11.5" height="11.5"/>
    <rect class="cls-3" x="80.3" y="34.1" width="11.5" height="11.5"/>
    <rect class="cls-3" x="68.8" y="34.1" width="11.5" height="11.5"/>
    <rect class="cls-3" x="57.3" y="34.1" width="11.5" height="11.5"/>
    <rect class="cls-3" x="45.9" y="34.1" width="11.5" height="11.5"/>
    <rect class="cls-3" x="34.4" y="34.1" width="11.5" height="11.5"/>
    <rect class="cls-3" x="22.9" y="34.1" width="11.5" height="11.5"/>
    <rect class="cls-13" x="11.5" y="34.1" width="11.5" height="11.5"/>
    <rect class="cls-10" y="34.1" width="11.5" height="11.5"/>
    <rect class="cls-10" x="229.3" y="22.6" width="11.5" height="11.5"/>
    <rect class="cls-12" x="217.8" y="22.6" width="11.5" height="11.5"/>
    <rect class="cls-3" x="206.4" y="22.6" width="11.5" height="11.5"/>
    <rect class="cls-3" x="194.9" y="22.6" width="11.5" height="11.5"/>
    <rect class="cls-3" x="183.4" y="22.6" width="11.5" height="11.5"/>
    <rect class="cls-3" x="172" y="22.6" width="11.5" height="11.5"/>
    <rect class="cls-3" x="160.5" y="22.6" width="11.5" height="11.5"/>
    <rect class="cls-3" x="149" y="22.6" width="11.5" height="11.5"/>
    <rect class="cls-3" x="137.6" y="22.6" width="11.5" height="11.5"/>
    <rect class="cls-3" x="126.1" y="22.6" width="11.5" height="11.5"/>
    <rect class="cls-3" x="114.7" y="22.6" width="11.5" height="11.5"/>
    <rect class="cls-3" x="103.2" y="22.6" width="11.5" height="11.5"/>
    <rect class="cls-3" x="91.7" y="22.6" width="11.5" height="11.5"/>
    <rect class="cls-3" x="80.3" y="22.6" width="11.5" height="11.5"/>
    <rect class="cls-3" x="68.8" y="22.6" width="11.5" height="11.5"/>
    <rect class="cls-3" x="57.3" y="22.6" width="11.5" height="11.5"/>
    <rect class="cls-3" x="45.9" y="22.6" width="11.5" height="11.5"/>
    <rect class="cls-3" x="34.4" y="22.6" width="11.5" height="11.5"/>
    <rect class="cls-3" x="22.9" y="22.6" width="11.5" height="11.5"/>
    <rect class="cls-13" x="11.5" y="22.6" width="11.5" height="11.5"/>
    <rect class="cls-10" y="22.6" width="11.5" height="11.5"/>
    <rect class="cls-10" x="217.8" y="11.2" width="11.5" height="11.5"/>
    <rect class="cls-13" x="206.4" y="11.2" width="11.5" height="11.5"/>
    <rect class="cls-13" x="194.9" y="11.2" width="11.5" height="11.5"/>
    <rect class="cls-13" x="183.4" y="11.2" width="11.5" height="11.5"/>
    <rect class="cls-13" x="172" y="11.2" width="11.5" height="11.5"/>
    <rect class="cls-13" x="160.5" y="11.2" width="11.5" height="11.5"/>
    <rect class="cls-13" x="149" y="11.2" width="11.5" height="11.5"/>
    <rect class="cls-13" x="137.6" y="11.2" width="11.5" height="11.5"/>
    <rect class="cls-13" x="126.1" y="11.2" width="11.5" height="11.5"/>
    <rect class="cls-13" x="114.7" y="11.2" width="11.5" height="11.5"/>
    <rect class="cls-13" x="103.2" y="11.2" width="11.5" height="11.5"/>
    <rect class="cls-13" x="91.7" y="11.2" width="11.5" height="11.5"/>
    <rect class="cls-13" x="80.3" y="11.2" width="11.5" height="11.5"/>
    <rect class="cls-13" x="68.8" y="11.2" width="11.5" height="11.5"/>
    <rect class="cls-13" x="57.3" y="11.2" width="11.5" height="11.5"/>
    <rect class="cls-13" x="45.9" y="11.2" width="11.5" height="11.5"/>
    <rect class="cls-13" x="34.4" y="11.2" width="11.5" height="11.5"/>
    <rect class="cls-13" x="22.9" y="11.2" width="11.5" height="11.5"/>
    <rect class="cls-10" x="11.5" y="11.2" width="11.5" height="11.5"/>
    <rect class="cls-10" x="206.4" y="-.3" width="11.5" height="11.5"/>
    <rect class="cls-10" x="194.9" y="-.3" width="11.5" height="11.5"/>
    <rect class="cls-10" x="183.4" y="-.3" width="11.5" height="11.5"/>
    <rect class="cls-10" x="172" y="-.3" width="11.5" height="11.5"/>
    <rect class="cls-10" x="160.5" y="-.3" width="11.5" height="11.5"/>
    <rect class="cls-10" x="149" y="-.3" width="11.5" height="11.5"/>
    <rect class="cls-10" x="137.6" y="-.3" width="11.5" height="11.5"/>
    <rect class="cls-10" x="126.1" y="-.3" width="11.5" height="11.5"/>
    <rect class="cls-10" x="114.7" y="-.3" width="11.5" height="11.5"/>
    <rect class="cls-10" x="103.2" y="-.3" width="11.5" height="11.5"/>
    <rect class="cls-10" x="91.7" y="-.3" width="11.5" height="11.5"/>
    <rect class="cls-10" x="80.3" y="-.3" width="11.5" height="11.5"/>
    <rect class="cls-10" x="68.8" y="-.3" width="11.5" height="11.5"/>
    <rect class="cls-10" x="57.3" y="-.3" width="11.5" height="11.5"/>
    <rect class="cls-10" x="45.9" y="-.3" width="11.5" height="11.5"/>
    <rect class="cls-10" x="34.4" y="-.3" width="11.5" height="11.5"/>
    <rect class="cls-10" x="22.9" y="-.3" width="11.5" height="11.5"/>
  </g>
  <g>
    <rect class="cls-10" x="79.9" y="83.3" width="2.8" height="2.8"/>
    <rect class="cls-10" x="77.1" y="83.3" width="2.8" height="2.8"/>
    <rect class="cls-10" x="74.3" y="83.3" width="2.8" height="2.8"/>
    <rect class="cls-10" x="71.5" y="83.3" width="2.8" height="2.8"/>
    <rect class="cls-10" x="68.8" y="83.3" width="2.8" height="2.8"/>
    <rect class="cls-10" x="66" y="83.3" width="2.8" height="2.8"/>
    <rect class="cls-10" x="63.2" y="83.3" width="2.8" height="2.8"/>
    <rect class="cls-10" x="60.5" y="83.3" width="2.8" height="2.8"/>
    <rect class="cls-10" x="57.7" y="83.3" width="2.8" height="2.8"/>
    <rect class="cls-10" x="54.9" y="83.3" width="2.8" height="2.8"/>
    <rect class="cls-10" x="52.2" y="83.3" width="2.8" height="2.8"/>
    <rect class="cls-10" x="49.4" y="83.3" width="2.8" height="2.8"/>
    <rect class="cls-10" x="46.6" y="83.3" width="2.8" height="2.8"/>
    <rect class="cls-10" x="43.8" y="83.3" width="2.8" height="2.8"/>
    <rect class="cls-10" x="41.1" y="83.3" width="2.8" height="2.8"/>
    <rect class="cls-10" x="93.7" y="80.6" width="2.8" height="2.8"/>
    <rect class="cls-10" x="90.9" y="80.6" width="2.8" height="2.8"/>
    <rect class="cls-10" x="79.9" y="80.6" width="2.8" height="2.8"/>
    <rect class="cls-6" x="77.1" y="80.6" width="2.8" height="2.8"/>
    <rect class="cls-4" x="74.3" y="80.6" width="2.8" height="2.8"/>
    <rect class="cls-4" x="71.5" y="80.6" width="2.8" height="2.8"/>
    <rect class="cls-4" x="68.8" y="80.6" width="2.8" height="2.8"/>
    <rect class="cls-4" x="66" y="80.6" width="2.8" height="2.8"/>
    <rect class="cls-4" x="63.2" y="80.6" width="2.8" height="2.8"/>
    <rect class="cls-4" x="60.5" y="80.6" width="2.8" height="2.8"/>
    <rect class="cls-4" x="57.7" y="80.6" width="2.8" height="2.8"/>
    <rect class="cls-4" x="54.9" y="80.6" width="2.8" height="2.8"/>
    <rect class="cls-4" x="52.2" y="80.6" width="2.8" height="2.8"/>
    <rect class="cls-4" x="49.4" y="80.6" width="2.8" height="2.8"/>
    <rect class="cls-4" x="46.6" y="80.6" width="2.8" height="2.8"/>
    <rect class="cls-8" x="43.8" y="80.6" width="2.8" height="2.8"/>
    <rect class="cls-10" x="41.1" y="80.6" width="2.8" height="2.8"/>
    <rect class="cls-10" x="96.5" y="77.8" width="2.8" height="2.8"/>
    <rect class="cls-6" x="93.7" y="77.8" width="2.8" height="2.8"/>
    <rect class="cls-6" x="90.9" y="77.8" width="2.8" height="2.8"/>
    <rect class="cls-10" x="88.2" y="77.8" width="2.8" height="2.8"/>
    <rect class="cls-10" x="85.4" y="77.8" width="2.8" height="2.8"/>
    <rect class="cls-10" x="79.9" y="77.8" width="2.8" height="2.8"/>
    <rect class="cls-10" x="77.1" y="77.8" width="2.8" height="2.8"/>
    <rect class="cls-10" x="74.3" y="77.8" width="2.8" height="2.8"/>
    <rect class="cls-10" x="71.5" y="77.8" width="2.8" height="2.8"/>
    <rect class="cls-10" x="68.8" y="77.8" width="2.8" height="2.8"/>
    <rect class="cls-10" x="66" y="77.8" width="2.8" height="2.8"/>
    <rect class="cls-10" x="63.2" y="77.8" width="2.8" height="2.8"/>
    <rect class="cls-10" x="60.5" y="77.8" width="2.8" height="2.8"/>
    <rect class="cls-10" x="57.7" y="77.8" width="2.8" height="2.8"/>
    <rect class="cls-10" x="54.9" y="77.8" width="2.8" height="2.8"/>
    <rect class="cls-10" x="52.2" y="77.8" width="2.8" height="2.8"/>
    <rect class="cls-10" x="49.4" y="77.8" width="2.8" height="2.8"/>
    <rect class="cls-10" x="46.6" y="77.8" width="2.8" height="2.8"/>
    <rect class="cls-10" x="43.8" y="77.8" width="2.8" height="2.8"/>
    <rect class="cls-10" x="41.1" y="77.8" width="2.8" height="2.8"/>
    <rect class="cls-10" x="99.2" y="75" width="2.8" height="2.8"/>
    <rect class="cls-6" x="96.5" y="75" width="2.8" height="2.8"/>
    <rect class="cls-10" x="93.7" y="75" width="2.8" height="2.8"/>
    <rect class="cls-10" x="90.9" y="75" width="2.8" height="2.8"/>
    <rect class="cls-6" x="88.2" y="75" width="2.8" height="2.8"/>
    <rect class="cls-6" x="85.4" y="75" width="2.8" height="2.8"/>
    <rect class="cls-10" x="82.6" y="75" width="2.8" height="2.8"/>
    <rect class="cls-10" x="77.1" y="75" width="2.8" height="2.8"/>
    <rect class="cls-6" x="74.3" y="75" width="2.8" height="2.8"/>
    <rect class="cls-4" x="71.5" y="75" width="2.8" height="2.8"/>
    <rect class="cls-4" x="68.8" y="75" width="2.8" height="2.8"/>
    <rect class="cls-4" x="66" y="75" width="2.8" height="2.8"/>
    <rect class="cls-4" x="63.2" y="75" width="2.8" height="2.8"/>
    <rect class="cls-4" x="60.5" y="75" width="2.8" height="2.8"/>
    <rect class="cls-4" x="57.7" y="75" width="2.8" height="2.8"/>
    <rect class="cls-4" x="54.9" y="75" width="2.8" height="2.8"/>
    <rect class="cls-4" x="52.2" y="75" width="2.8" height="2.8"/>
    <rect class="cls-4" x="49.4" y="75" width="2.8" height="2.8"/>
    <rect class="cls-8" x="46.6" y="75" width="2.8" height="2.8"/>
    <rect class="cls-10" x="43.8" y="75" width="2.8" height="2.8"/>
    <rect class="cls-10" x="99.2" y="72.3" width="2.8" height="2.8"/>
    <rect class="cls-6" x="96.5" y="72.3" width="2.8" height="2.8"/>
    <rect class="cls-10" x="93.7" y="72.3" width="2.8" height="2.8"/>
    <rect class="cls-10" x="88.2" y="72.3" width="2.8" height="2.8"/>
    <rect class="cls-6" x="85.4" y="72.3" width="2.8" height="2.8"/>
    <rect class="cls-10" x="82.6" y="72.3" width="2.8" height="2.8"/>
    <rect class="cls-10" x="77.1" y="72.3" width="2.8" height="2.8"/>
    <rect class="cls-6" x="74.3" y="72.3" width="2.8" height="2.8"/>
    <rect class="cls-4" x="71.5" y="72.3" width="2.8" height="2.8"/>
    <rect class="cls-4" x="68.8" y="72.3" width="2.8" height="2.8"/>
    <rect class="cls-4" x="66" y="72.3" width="2.8" height="2.8"/>
    <rect class="cls-2" x="63.2" y="72.3" width="2.8" height="2.8"/>
    <rect class="cls-2" x="60.5" y="72.3" width="2.8" height="2.8"/>
    <rect class="cls-2" x="57.7" y="72.3" width="2.8" height="2.8"/>
    <rect class="cls-4" x="54.9" y="72.3" width="2.8" height="2.8"/>
    <rect class="cls-4" x="52.2" y="72.3" width="2.8" height="2.8"/>
    <rect class="cls-4" x="49.4" y="72.3" width="2.8" height="2.8"/>
    <rect class="cls-8" x="46.6" y="72.3" width="2.8" height="2.8"/>
    <rect class="cls-10" x="43.8" y="72.3" width="2.8" height="2.8"/>
    <rect class="cls-10" x="99.2" y="69.5" width="2.8" height="2.8"/>
    <rect class="cls-6" x="96.5" y="69.5" width="2.8" height="2.8"/>
    <rect class="cls-10" x="93.7" y="69.5" width="2.8" height="2.8"/>
    <rect class="cls-10" x="88.2" y="69.5" width="2.8" height="2.8"/>
    <rect class="cls-6" x="85.4" y="69.5" width="2.8" height="2.8"/>
    <rect class="cls-10" x="82.6" y="69.5" width="2.8" height="2.8"/>
    <rect class="cls-10" x="77.1" y="69.5" width="2.8" height="2.8"/>
    <rect class="cls-6" x="74.3" y="69.5" width="2.8" height="2.8"/>
    <rect class="cls-4" x="71.5" y="69.5" width="2.8" height="2.8"/>
    <rect class="cls-4" x="68.8" y="69.5" width="2.8" height="2.8"/>
    <rect class="cls-2" x="66" y="69.5" width="2.8" height="2.8"/>
    <rect class="cls-1" x="63.2" y="69.5" width="2.8" height="2.8"/>
    <rect class="cls-7" x="60.5" y="69.5" width="2.8" height="2.8"/>
    <rect class="cls-2" x="57.7" y="69.5" width="2.8" height="2.8"/>
    <rect class="cls-2" x="54.9" y="69.5" width="2.8" height="2.8"/>
    <rect class="cls-4" x="52.2" y="69.5" width="2.8" height="2.8"/>
    <rect class="cls-4" x="49.4" y="69.5" width="2.8" height="2.8"/>
    <rect class="cls-8" x="46.6" y="69.5" width="2.8" height="2.8"/>
    <rect class="cls-10" x="43.8" y="69.5" width="2.8" height="2.8"/>
    <rect class="cls-10" x="99.2" y="66.7" width="2.8" height="2.8"/>
    <rect class="cls-6" x="96.5" y="66.7" width="2.8" height="2.8"/>
    <rect class="cls-10" x="93.7" y="66.7" width="2.8" height="2.8"/>
    <rect class="cls-10" x="88.2" y="66.7" width="2.8" height="2.8"/>
    <rect class="cls-6" x="85.4" y="66.7" width="2.8" height="2.8"/>
    <rect class="cls-10" x="82.6" y="66.7" width="2.8" height="2.8"/>
    <rect class="cls-10" x="77.1" y="66.7" width="2.8" height="2.8"/>
    <rect class="cls-6" x="74.3" y="66.7" width="2.8" height="2.8"/>
    <rect class="cls-4" x="71.5" y="66.7" width="2.8" height="2.8"/>
    <rect class="cls-4" x="68.8" y="66.7" width="2.8" height="2.8"/>
    <rect class="cls-1" x="66" y="66.7" width="2.8" height="2.8"/>
    <rect class="cls-2" x="63.2" y="66.7" width="2.8" height="2.8"/>
    <rect class="cls-2" x="60.5" y="66.7" width="2.8" height="2.8"/>
    <rect class="cls-7" x="57.7" y="66.7" width="2.8" height="2.8"/>
    <rect class="cls-2" x="54.9" y="66.7" width="2.8" height="2.8"/>
    <rect class="cls-4" x="52.2" y="66.7" width="2.8" height="2.8"/>
    <rect class="cls-4" x="49.4" y="66.7" width="2.8" height="2.8"/>
    <rect class="cls-8" x="46.6" y="66.7" width="2.8" height="2.8"/>
    <rect class="cls-10" x="43.8" y="66.7" width="2.8" height="2.8"/>
    <rect class="cls-10" x="99.2" y="64" width="2.8" height="2.8"/>
    <rect class="cls-6" x="96.5" y="64" width="2.8" height="2.8"/>
    <rect class="cls-10" x="93.7" y="64" width="2.8" height="2.8"/>
    <rect class="cls-10" x="88.2" y="64" width="2.8" height="2.8"/>
    <rect class="cls-6" x="85.4" y="64" width="2.8" height="2.8"/>
    <rect class="cls-10" x="82.6" y="64" width="2.8" height="2.8"/>
    <rect class="cls-10" x="77.1" y="64" width="2.8" height="2.8"/>
    <rect class="cls-6" x="74.3" y="64" width="2.8" height="2.8"/>
    <rect class="cls-4" x="71.5" y="64" width="2.8" height="2.8"/>
    <rect class="cls-4" x="68.8" y="64" width="2.8" height="2.8"/>
    <rect class="cls-1" x="66" y="64" width="2.8" height="2.8"/>
    <rect class="cls-2" x="63.2" y="64" width="2.8" height="2.8"/>
    <rect class="cls-2" x="60.5" y="64" width="2.8" height="2.8"/>
    <rect class="cls-7" x="57.7" y="64" width="2.8" height="2.8"/>
    <rect class="cls-2" x="54.9" y="64" width="2.8" height="2.8"/>
    <rect class="cls-4" x="52.2" y="64" width="2.8" height="2.8"/>
    <rect class="cls-4" x="49.4" y="64" width="2.8" height="2.8"/>
    <rect class="cls-8" x="46.6" y="64" width="2.8" height="2.8"/>
    <rect class="cls-10" x="43.8" y="64" width="2.8" height="2.8"/>
    <rect class="cls-10" x="99.2" y="61.2" width="2.8" height="2.8"/>
    <rect class="cls-6" x="96.5" y="61.2" width="2.8" height="2.8"/>
    <rect class="cls-10" x="93.7" y="61.2" width="2.8" height="2.8"/>
    <rect class="cls-10" x="88.2" y="61.2" width="2.8" height="2.8"/>
    <rect class="cls-6" x="85.4" y="61.2" width="2.8" height="2.8"/>
    <rect class="cls-10" x="82.6" y="61.2" width="2.8" height="2.8"/>
    <rect class="cls-10" x="79.9" y="61.2" width="2.8" height="2.8"/>
    <rect class="cls-10" x="77.1" y="61.2" width="2.8" height="2.8"/>
    <rect class="cls-6" x="74.3" y="61.2" width="2.8" height="2.8"/>
    <rect class="cls-4" x="71.5" y="61.2" width="2.8" height="2.8"/>
    <rect class="cls-4" x="68.8" y="61.2" width="2.8" height="2.8"/>
    <rect class="cls-1" x="66" y="61.2" width="2.8" height="2.8"/>
    <rect class="cls-1" x="63.2" y="61.2" width="2.8" height="2.8"/>
    <rect class="cls-2" x="60.5" y="61.2" width="2.8" height="2.8"/>
    <rect class="cls-2" x="57.7" y="61.2" width="2.8" height="2.8"/>
    <rect class="cls-2" x="54.9" y="61.2" width="2.8" height="2.8"/>
    <rect class="cls-4" x="52.2" y="61.2" width="2.8" height="2.8"/>
    <rect class="cls-4" x="49.4" y="61.2" width="2.8" height="2.8"/>
    <rect class="cls-8" x="46.6" y="61.2" width="2.8" height="2.8"/>
    <rect class="cls-10" x="43.8" y="61.2" width="2.8" height="2.8"/>
    <rect class="cls-10" x="99.2" y="58.4" width="2.8" height="2.8"/>
    <rect class="cls-9" x="96.5" y="58.4" width="2.8" height="2.8"/>
    <rect class="cls-10" x="93.7" y="58.4" width="2.8" height="2.8"/>
    <rect class="cls-10" x="88.2" y="58.4" width="2.8" height="2.8"/>
    <rect class="cls-6" x="85.4" y="58.4" width="2.8" height="2.8"/>
    <rect class="cls-10" x="82.6" y="58.4" width="2.8" height="2.8"/>
    <rect class="cls-6" x="79.9" y="58.4" width="2.8" height="2.8"/>
    <rect class="cls-10" x="77.1" y="58.4" width="2.8" height="2.8"/>
    <rect class="cls-6" x="74.3" y="58.4" width="2.8" height="2.8"/>
    <rect class="cls-4" x="71.5" y="58.4" width="2.8" height="2.8"/>
    <rect class="cls-4" x="68.8" y="58.4" width="2.8" height="2.8"/>
    <rect class="cls-4" x="66" y="58.4" width="2.8" height="2.8"/>
    <rect class="cls-1" x="63.2" y="58.4" width="2.8" height="2.8"/>
    <rect class="cls-2" x="60.5" y="58.4" width="2.8" height="2.8"/>
    <rect class="cls-2" x="57.7" y="58.4" width="2.8" height="2.8"/>
    <rect class="cls-4" x="54.9" y="58.4" width="2.8" height="2.8"/>
    <rect class="cls-4" x="52.2" y="58.4" width="2.8" height="2.8"/>
    <rect class="cls-4" x="49.4" y="58.4" width="2.8" height="2.8"/>
    <rect class="cls-8" x="46.6" y="58.4" width="2.8" height="2.8"/>
    <rect class="cls-10" x="43.8" y="58.4" width="2.8" height="2.8"/>
    <rect class="cls-10" x="96.5" y="55.7" width="2.8" height="2.8"/>
    <rect class="cls-5" x="93.7" y="55.7" width="2.8" height="2.8"/>
    <rect class="cls-10" x="90.9" y="55.7" width="2.8" height="2.8"/>
    <rect class="cls-10" x="88.2" y="55.7" width="2.8" height="2.8"/>
    <rect class="cls-6" x="85.4" y="55.7" width="2.8" height="2.8"/>
    <rect class="cls-6" x="82.6" y="55.7" width="2.8" height="2.8"/>
    <rect class="cls-4" x="79.9" y="55.7" width="2.8" height="2.8"/>
    <rect class="cls-10" x="77.1" y="55.7" width="2.8" height="2.8"/>
    <rect class="cls-6" x="74.3" y="55.7" width="2.8" height="2.8"/>
    <rect class="cls-4" x="71.5" y="55.7" width="2.8" height="2.8"/>
    <rect class="cls-4" x="68.8" y="55.7" width="2.8" height="2.8"/>
    <rect class="cls-4" x="66" y="55.7" width="2.8" height="2.8"/>
    <rect class="cls-1" x="63.2" y="55.7" width="2.8" height="2.8"/>
    <rect class="cls-2" x="60.5" y="55.7" width="2.8" height="2.8"/>
    <rect class="cls-2" x="57.7" y="55.7" width="2.8" height="2.8"/>
    <rect class="cls-4" x="54.9" y="55.7" width="2.8" height="2.8"/>
    <rect class="cls-4" x="52.2" y="55.7" width="2.8" height="2.8"/>
    <rect class="cls-4" x="49.4" y="55.7" width="2.8" height="2.8"/>
    <rect class="cls-8" x="46.6" y="55.7" width="2.8" height="2.8"/>
    <rect class="cls-10" x="43.8" y="55.7" width="2.8" height="2.8"/>
    <rect class="cls-10" x="99.2" y="52.9" width="2.8" height="2.8"/>
    <rect class="cls-5" x="96.5" y="52.9" width="2.8" height="2.8"/>
    <rect class="cls-12" x="93.7" y="52.9" width="2.8" height="2.8"/>
    <rect class="cls-12" x="90.9" y="52.9" width="2.8" height="2.8"/>
    <rect class="cls-11" x="88.2" y="52.9" width="2.8" height="2.8"/>
    <rect class="cls-10" x="85.4" y="52.9" width="2.8" height="2.8"/>
    <rect class="cls-8" x="82.6" y="52.9" width="2.8" height="2.8"/>
    <rect class="cls-4" x="79.9" y="52.9" width="2.8" height="2.8"/>
    <rect class="cls-10" x="77.1" y="52.9" width="2.8" height="2.8"/>
    <rect class="cls-6" x="74.3" y="52.9" width="2.8" height="2.8"/>
    <rect class="cls-4" x="71.5" y="52.9" width="2.8" height="2.8"/>
    <rect class="cls-4" x="68.8" y="52.9" width="2.8" height="2.8"/>
    <rect class="cls-4" x="66" y="52.9" width="2.8" height="2.8"/>
    <rect class="cls-4" x="63.2" y="52.9" width="2.8" height="2.8"/>
    <rect class="cls-1" x="60.5" y="52.9" width="2.8" height="2.8"/>
    <rect class="cls-4" x="57.7" y="52.9" width="2.8" height="2.8"/>
    <rect class="cls-4" x="54.9" y="52.9" width="2.8" height="2.8"/>
    <rect class="cls-4" x="52.2" y="52.9" width="2.8" height="2.8"/>
    <rect class="cls-4" x="49.4" y="52.9" width="2.8" height="2.8"/>
    <rect class="cls-8" x="46.6" y="52.9" width="2.8" height="2.8"/>
    <rect class="cls-10" x="43.8" y="52.9" width="2.8" height="2.8"/>
    <rect class="cls-10" x="99.2" y="50.1" width="2.8" height="2.8"/>
    <rect class="cls-5" x="96.5" y="50.1" width="2.8" height="2.8"/>
    <rect class="cls-12" x="93.7" y="50.1" width="2.8" height="2.8"/>
    <rect class="cls-13" x="90.9" y="50.1" width="2.8" height="2.8"/>
    <rect class="cls-11" x="88.2" y="50.1" width="2.8" height="2.8"/>
    <rect class="cls-10" x="85.4" y="50.1" width="2.8" height="2.8"/>
    <rect class="cls-10" x="82.6" y="50.1" width="2.8" height="2.8"/>
    <rect class="cls-8" x="79.9" y="50.1" width="2.8" height="2.8"/>
    <rect class="cls-10" x="77.1" y="50.1" width="2.8" height="2.8"/>
    <rect class="cls-6" x="74.3" y="50.1" width="2.8" height="2.8"/>
    <rect class="cls-4" x="71.5" y="50.1" width="2.8" height="2.8"/>
    <rect class="cls-4" x="68.8" y="50.1" width="2.8" height="2.8"/>
    <rect class="cls-4" x="66" y="50.1" width="2.8" height="2.8"/>
    <rect class="cls-4" x="63.2" y="50.1" width="2.8" height="2.8"/>
    <rect class="cls-4" x="60.5" y="50.1" width="2.8" height="2.8"/>
    <rect class="cls-4" x="57.7" y="50.1" width="2.8" height="2.8"/>
    <rect class="cls-4" x="54.9" y="50.1" width="2.8" height="2.8"/>
    <rect class="cls-4" x="52.2" y="50.1" width="2.8" height="2.8"/>
    <rect class="cls-4" x="49.4" y="50.1" width="2.8" height="2.8"/>
    <rect class="cls-8" x="46.6" y="50.1" width="2.8" height="2.8"/>
    <rect class="cls-10" x="43.8" y="50.1" width="2.8" height="2.8"/>
    <rect class="cls-10" x="99.2" y="47.3" width="2.8" height="2.8"/>
    <rect class="cls-5" x="96.5" y="47.3" width="2.8" height="2.8"/>
    <rect class="cls-12" x="93.7" y="47.3" width="2.8" height="2.8"/>
    <rect class="cls-13" x="90.9" y="47.3" width="2.8" height="2.8"/>
    <rect class="cls-11" x="88.2" y="47.3" width="2.8" height="2.8"/>
    <rect class="cls-10" x="85.4" y="47.3" width="2.8" height="2.8"/>
    <rect class="cls-10" x="79.9" y="47.3" width="2.8" height="2.8"/>
    <rect class="cls-10" x="77.1" y="47.3" width="2.8" height="2.8"/>
    <rect class="cls-6" x="74.3" y="47.3" width="2.8" height="2.8"/>
    <rect class="cls-4" x="71.5" y="47.3" width="2.8" height="2.8"/>
    <rect class="cls-9" x="68.8" y="47.3" width="2.8" height="2.8"/>
    <rect class="cls-9" x="66" y="47.3" width="2.8" height="2.8"/>
    <rect class="cls-9" x="63.2" y="47.3" width="2.8" height="2.8"/>
    <rect class="cls-9" x="60.5" y="47.3" width="2.8" height="2.8"/>
    <rect class="cls-9" x="57.7" y="47.3" width="2.8" height="2.8"/>
    <rect class="cls-9" x="54.9" y="47.3" width="2.8" height="2.8"/>
    <rect class="cls-9" x="52.2" y="47.3" width="2.8" height="2.8"/>
    <rect class="cls-4" x="49.4" y="47.3" width="2.8" height="2.8"/>
    <rect class="cls-8" x="46.6" y="47.3" width="2.8" height="2.8"/>
    <rect class="cls-10" x="43.8" y="47.3" width="2.8" height="2.8"/>
    <rect class="cls-10" x="96.5" y="44.6" width="2.8" height="2.8"/>
    <rect class="cls-12" x="93.7" y="44.6" width="2.8" height="2.8"/>
    <rect class="cls-11" x="90.9" y="44.6" width="2.8" height="2.8"/>
    <rect class="cls-10" x="88.2" y="44.6" width="2.8" height="2.8"/>
    <rect class="cls-10" x="77.1" y="44.6" width="2.8" height="2.8"/>
    <rect class="cls-6" x="74.3" y="44.6" width="2.8" height="2.8"/>
    <rect class="cls-9" x="71.5" y="44.6" width="2.8" height="2.8"/>
    <rect class="cls-12" x="68.8" y="44.6" width="2.8" height="2.8"/>
    <rect class="cls-12" x="66" y="44.6" width="2.8" height="2.8"/>
    <rect class="cls-12" x="63.2" y="44.6" width="2.8" height="2.8"/>
    <rect class="cls-12" x="60.5" y="44.6" width="2.8" height="2.8"/>
    <rect class="cls-12" x="57.7" y="44.6" width="2.8" height="2.8"/>
    <rect class="cls-12" x="54.9" y="44.6" width="2.8" height="2.8"/>
    <rect class="cls-12" x="52.2" y="44.6" width="2.8" height="2.8"/>
    <rect class="cls-9" x="49.4" y="44.6" width="2.8" height="2.8"/>
    <rect class="cls-8" x="46.6" y="44.6" width="2.8" height="2.8"/>
    <rect class="cls-10" x="43.8" y="44.6" width="2.8" height="2.8"/>
    <rect class="cls-10" x="93.7" y="41.8" width="2.8" height="2.8"/>
    <rect class="cls-11" x="90.9" y="41.8" width="2.8" height="2.8"/>
    <rect class="cls-11" x="88.2" y="41.8" width="2.8" height="2.8"/>
    <rect class="cls-10" x="85.4" y="41.8" width="2.8" height="2.8"/>
    <rect class="cls-10" x="77.1" y="41.8" width="2.8" height="2.8"/>
    <rect class="cls-6" x="74.3" y="41.8" width="2.8" height="2.8"/>
    <rect class="cls-9" x="71.5" y="41.8" width="2.8" height="2.8"/>
    <rect class="cls-11" x="68.8" y="41.8" width="2.8" height="2.8"/>
    <rect class="cls-11" x="66" y="41.8" width="2.8" height="2.8"/>
    <rect class="cls-11" x="63.2" y="41.8" width="2.8" height="2.8"/>
    <rect class="cls-11" x="60.5" y="41.8" width="2.8" height="2.8"/>
    <rect class="cls-11" x="57.7" y="41.8" width="2.8" height="2.8"/>
    <rect class="cls-11" x="54.9" y="41.8" width="2.8" height="2.8"/>
    <rect class="cls-11" x="52.2" y="41.8" width="2.8" height="2.8"/>
    <rect class="cls-9" x="49.4" y="41.8" width="2.8" height="2.8"/>
    <rect class="cls-8" x="46.6" y="41.8" width="2.8" height="2.8"/>
    <rect class="cls-10" x="43.8" y="41.8" width="2.8" height="2.8"/>
    <rect class="cls-10" x="90.9" y="39" width="2.8" height="2.8"/>
    <rect class="cls-11" x="88.2" y="39" width="2.8" height="2.8"/>
    <rect class="cls-11" x="85.4" y="39" width="2.8" height="2.8"/>
    <rect class="cls-10" x="82.6" y="39" width="2.8" height="2.8"/>
    <rect class="cls-10" x="77.1" y="39" width="2.8" height="2.8"/>
    <rect class="cls-6" x="74.3" y="39" width="2.8" height="2.8"/>
    <rect class="cls-9" x="71.5" y="39" width="2.8" height="2.8"/>
    <rect class="cls-11" x="68.8" y="39" width="2.8" height="2.8"/>
    <rect class="cls-11" x="66" y="39" width="2.8" height="2.8"/>
    <rect class="cls-11" x="63.2" y="39" width="2.8" height="2.8"/>
    <rect class="cls-11" x="60.5" y="39" width="2.8" height="2.8"/>
    <rect class="cls-11" x="57.7" y="39" width="2.8" height="2.8"/>
    <rect class="cls-11" x="54.9" y="39" width="2.8" height="2.8"/>
    <rect class="cls-11" x="52.2" y="39" width="2.8" height="2.8"/>
    <rect class="cls-9" x="49.4" y="39" width="2.8" height="2.8"/>
    <rect class="cls-8" x="46.6" y="39" width="2.8" height="2.8"/>
    <rect class="cls-10" x="43.8" y="39" width="2.8" height="2.8"/>
    <rect class="cls-10" x="88.2" y="36.3" width="2.8" height="2.8"/>
    <rect class="cls-11" x="85.4" y="36.3" width="2.8" height="2.8"/>
    <rect class="cls-10" x="82.6" y="36.3" width="2.8" height="2.8"/>
    <rect class="cls-10" x="77.1" y="36.3" width="2.8" height="2.8"/>
    <rect class="cls-6" x="74.3" y="36.3" width="2.8" height="2.8"/>
    <rect class="cls-9" x="71.5" y="36.3" width="2.8" height="2.8"/>
    <rect class="cls-13" x="68.8" y="36.3" width="2.8" height="2.8"/>
    <rect class="cls-13" x="66" y="36.3" width="2.8" height="2.8"/>
    <rect class="cls-13" x="63.2" y="36.3" width="2.8" height="2.8"/>
    <rect class="cls-13" x="60.5" y="36.3" width="2.8" height="2.8"/>
    <rect class="cls-13" x="57.7" y="36.3" width="2.8" height="2.8"/>
    <rect class="cls-13" x="54.9" y="36.3" width="2.8" height="2.8"/>
    <rect class="cls-13" x="52.2" y="36.3" width="2.8" height="2.8"/>
    <rect class="cls-9" x="49.4" y="36.3" width="2.8" height="2.8"/>
    <rect class="cls-8" x="46.6" y="36.3" width="2.8" height="2.8"/>
    <rect class="cls-10" x="43.8" y="36.3" width="2.8" height="2.8"/>
    <rect class="cls-10" x="85.4" y="33.5" width="2.8" height="2.8"/>
    <rect class="cls-10" x="82.6" y="33.5" width="2.8" height="2.8"/>
    <rect class="cls-10" x="77.1" y="33.5" width="2.8" height="2.8"/>
    <rect class="cls-6" x="74.3" y="33.5" width="2.8" height="2.8"/>
    <rect class="cls-4" x="71.5" y="33.5" width="2.8" height="2.8"/>
    <rect class="cls-9" x="68.8" y="33.5" width="2.8" height="2.8"/>
    <rect class="cls-9" x="66" y="33.5" width="2.8" height="2.8"/>
    <rect class="cls-9" x="63.2" y="33.5" width="2.8" height="2.8"/>
    <rect class="cls-9" x="60.5" y="33.5" width="2.8" height="2.8"/>
    <rect class="cls-9" x="57.7" y="33.5" width="2.8" height="2.8"/>
    <rect class="cls-9" x="54.9" y="33.5" width="2.8" height="2.8"/>
    <rect class="cls-9" x="52.2" y="33.5" width="2.8" height="2.8"/>
    <rect class="cls-8" x="49.4" y="33.5" width="2.8" height="2.8"/>
    <rect class="cls-8" x="46.6" y="33.5" width="2.8" height="2.8"/>
    <rect class="cls-10" x="43.8" y="33.5" width="2.8" height="2.8"/>
    <rect class="cls-10" x="74.3" y="30.7" width="2.8" height="2.8"/>
    <rect class="cls-8" x="71.5" y="30.7" width="2.8" height="2.8"/>
    <rect class="cls-8" x="68.8" y="30.7" width="2.8" height="2.8"/>
    <rect class="cls-8" x="66" y="30.7" width="2.8" height="2.8"/>
    <rect class="cls-8" x="63.2" y="30.7" width="2.8" height="2.8"/>
    <rect class="cls-8" x="60.5" y="30.7" width="2.8" height="2.8"/>
    <rect class="cls-8" x="57.7" y="30.7" width="2.8" height="2.8"/>
    <rect class="cls-8" x="54.9" y="30.7" width="2.8" height="2.8"/>
    <rect class="cls-8" x="52.2" y="30.7" width="2.8" height="2.8"/>
    <rect class="cls-8" x="49.4" y="30.7" width="2.8" height="2.8"/>
    <rect class="cls-10" x="46.6" y="30.7" width="2.8" height="2.8"/>
    <rect class="cls-10" x="71.5" y="28" width="2.8" height="2.8"/>
    <rect class="cls-10" x="68.8" y="28" width="2.8" height="2.8"/>
    <rect class="cls-10" x="66" y="28" width="2.8" height="2.8"/>
    <rect class="cls-10" x="63.2" y="28" width="2.8" height="2.8"/>
    <rect class="cls-10" x="60.5" y="28" width="2.8" height="2.8"/>
    <rect class="cls-10" x="57.7" y="28" width="2.8" height="2.8"/>
    <rect class="cls-10" x="54.9" y="28" width="2.8" height="2.8"/>
    <rect class="cls-10" x="52.2" y="28" width="2.8" height="2.8"/>
    <rect class="cls-10" x="49.4" y="28" width="2.8" height="2.8"/>
  </g>
</svg>