<?xml version="1.0" encoding="UTF-8"?>
<svg id="Layer_1" data-name="Layer 1" xmlns="http://www.w3.org/2000/svg" version="1.1" viewBox="0 0 240.8 114.1">
  <defs>
    <style>
      .cls-1 {
        fill: #eaeaea;
      }

      .cls-1, .cls-2, .cls-3, .cls-4, .cls-5, .cls-6, .cls-7 {
        stroke-width: 0px;
      }

      .cls-2 {
        fill: #0acfb3;
      }

      .cls-3 {
        fill: #50eacd;
      }

      .cls-4 {
        fill: #000;
      }

      .cls-5 {
        fill: #00af91;
      }

      .cls-6 {
        fill: #ccc;
      }

      .cls-7 {
        fill: #fff;
      }
    </style>
  </defs>
  <g>
    <rect class="cls-4" x="206.1" y="102.7" width="11.4" height="11.4"/>
    <rect class="cls-4" x="194.7" y="102.7" width="11.4" height="11.4"/>
    <rect class="cls-4" x="183.3" y="102.7" width="11.4" height="11.4"/>
    <rect class="cls-4" x="171.9" y="102.7" width="11.4" height="11.4"/>
    <rect class="cls-4" x="160.5" y="102.7" width="11.4" height="11.4"/>
    <rect class="cls-4" x="149.1" y="102.7" width="11.4" height="11.4"/>
    <rect class="cls-4" x="137.7" y="102.7" width="11.4" height="11.4"/>
    <rect class="cls-4" x="126.2" y="102.7" width="11.4" height="11.4"/>
    <rect class="cls-4" x="114.8" y="102.7" width="11.4" height="11.4"/>
    <rect class="cls-4" x="103.4" y="102.7" width="11.4" height="11.4"/>
    <rect class="cls-4" x="92" y="102.7" width="11.4" height="11.4"/>
    <rect class="cls-4" x="80.6" y="102.7" width="11.4" height="11.4"/>
    <rect class="cls-4" x="69.2" y="102.7" width="11.4" height="11.4"/>
    <rect class="cls-4" x="57.8" y="102.7" width="11.4" height="11.4"/>
    <rect class="cls-4" x="46.4" y="102.7" width="11.4" height="11.4"/>
    <rect class="cls-4" x="35" y="102.7" width="11.4" height="11.4"/>
    <rect class="cls-4" x="23.6" y="102.7" width="11.4" height="11.4"/>
    <rect class="cls-4" x="217.5" y="91.3" width="11.4" height="11.4"/>
    <rect class="cls-6" x="206.1" y="91.3" width="11.4" height="11.4"/>
    <rect class="cls-6" x="194.7" y="91.3" width="11.4" height="11.4"/>
    <rect class="cls-6" x="183.3" y="91.3" width="11.4" height="11.4"/>
    <rect class="cls-6" x="171.9" y="91.3" width="11.4" height="11.4"/>
    <rect class="cls-6" x="160.5" y="91.3" width="11.4" height="11.4"/>
    <rect class="cls-6" x="149.1" y="91.3" width="11.4" height="11.4"/>
    <rect class="cls-6" x="137.7" y="91.3" width="11.4" height="11.4"/>
    <rect class="cls-6" x="126.2" y="91.3" width="11.4" height="11.4"/>
    <rect class="cls-6" x="114.8" y="91.3" width="11.4" height="11.4"/>
    <rect class="cls-6" x="103.4" y="91.3" width="11.4" height="11.4"/>
    <rect class="cls-6" x="92" y="91.3" width="11.4" height="11.4"/>
    <rect class="cls-6" x="80.6" y="91.3" width="11.4" height="11.4"/>
    <rect class="cls-6" x="69.2" y="91.3" width="11.4" height="11.4"/>
    <rect class="cls-6" x="57.8" y="91.3" width="11.4" height="11.4"/>
    <rect class="cls-6" x="46.4" y="91.3" width="11.4" height="11.4"/>
    <rect class="cls-6" x="35" y="91.3" width="11.4" height="11.4"/>
    <rect class="cls-6" x="23.6" y="91.3" width="11.4" height="11.4"/>
    <rect class="cls-4" x="12.1" y="91.3" width="11.4" height="11.4"/>
    <rect class="cls-4" x="228.9" y="79.9" width="11.4" height="11.4"/>
    <rect class="cls-6" x="217.5" y="79.9" width="11.4" height="11.4"/>
    <rect class="cls-1" x="206.1" y="79.9" width="11.4" height="11.4"/>
    <rect class="cls-1" x="194.7" y="79.9" width="11.4" height="11.4"/>
    <rect class="cls-1" x="183.3" y="79.9" width="11.4" height="11.4"/>
    <rect class="cls-1" x="171.9" y="79.9" width="11.4" height="11.4"/>
    <rect class="cls-1" x="160.5" y="79.9" width="11.4" height="11.4"/>
    <rect class="cls-1" x="149.1" y="79.9" width="11.4" height="11.4"/>
    <rect class="cls-1" x="137.7" y="79.9" width="11.4" height="11.4"/>
    <rect class="cls-1" x="126.2" y="79.9" width="11.4" height="11.4"/>
    <rect class="cls-1" x="114.8" y="79.9" width="11.4" height="11.4"/>
    <rect class="cls-1" x="103.4" y="79.9" width="11.4" height="11.4"/>
    <rect class="cls-1" x="92" y="79.9" width="11.4" height="11.4"/>
    <rect class="cls-1" x="80.6" y="79.9" width="11.4" height="11.4"/>
    <rect class="cls-1" x="69.2" y="79.9" width="11.4" height="11.4"/>
    <rect class="cls-1" x="57.8" y="79.9" width="11.4" height="11.4"/>
    <rect class="cls-1" x="46.4" y="79.9" width="11.4" height="11.4"/>
    <rect class="cls-1" x="35" y="79.9" width="11.4" height="11.4"/>
    <rect class="cls-1" x="23.6" y="79.9" width="11.4" height="11.4"/>
    <rect class="cls-7" x="12.1" y="79.9" width="11.4" height="11.4"/>
    <rect class="cls-4" x=".7" y="79.9" width="11.4" height="11.4"/>
    <rect class="cls-4" x="228.9" y="68.5" width="11.4" height="11.4"/>
    <rect class="cls-6" x="217.5" y="68.5" width="11.4" height="11.4"/>
    <rect class="cls-1" x="206.1" y="68.5" width="11.4" height="11.4"/>
    <rect class="cls-1" x="194.7" y="68.5" width="11.4" height="11.4"/>
    <rect class="cls-1" x="183.3" y="68.5" width="11.4" height="11.4"/>
    <rect class="cls-1" x="171.9" y="68.5" width="11.4" height="11.4"/>
    <rect class="cls-1" x="160.5" y="68.5" width="11.4" height="11.4"/>
    <rect class="cls-1" x="149.1" y="68.5" width="11.4" height="11.4"/>
    <rect class="cls-1" x="137.7" y="68.5" width="11.4" height="11.4"/>
    <rect class="cls-1" x="126.2" y="68.5" width="11.4" height="11.4"/>
    <rect class="cls-1" x="114.8" y="68.5" width="11.4" height="11.4"/>
    <rect class="cls-1" x="103.4" y="68.5" width="11.4" height="11.4"/>
    <rect class="cls-1" x="92" y="68.5" width="11.4" height="11.4"/>
    <rect class="cls-1" x="80.6" y="68.5" width="11.4" height="11.4"/>
    <rect class="cls-1" x="69.2" y="68.5" width="11.4" height="11.4"/>
    <rect class="cls-1" x="57.8" y="68.5" width="11.4" height="11.4"/>
    <rect class="cls-1" x="46.4" y="68.5" width="11.4" height="11.4"/>
    <rect class="cls-1" x="35" y="68.5" width="11.4" height="11.4"/>
    <rect class="cls-1" x="23.6" y="68.5" width="11.4" height="11.4"/>
    <rect class="cls-7" x="12.1" y="68.5" width="11.4" height="11.4"/>
    <rect class="cls-4" x=".7" y="68.5" width="11.4" height="11.4"/>
    <rect class="cls-4" x="228.9" y="57" width="11.4" height="11.4"/>
    <rect class="cls-6" x="217.5" y="57" width="11.4" height="11.4"/>
    <rect class="cls-1" x="206.1" y="57" width="11.4" height="11.4"/>
    <rect class="cls-1" x="194.7" y="57" width="11.4" height="11.4"/>
    <rect class="cls-1" x="183.3" y="57" width="11.4" height="11.4"/>
    <rect class="cls-1" x="171.9" y="57" width="11.4" height="11.4"/>
    <rect class="cls-1" x="160.5" y="57" width="11.4" height="11.4"/>
    <rect class="cls-1" x="149.1" y="57" width="11.4" height="11.4"/>
    <rect class="cls-1" x="137.7" y="57" width="11.4" height="11.4"/>
    <rect class="cls-1" x="126.2" y="57" width="11.4" height="11.4"/>
    <rect class="cls-1" x="114.8" y="57" width="11.4" height="11.4"/>
    <rect class="cls-1" x="103.4" y="57" width="11.4" height="11.4"/>
    <rect class="cls-1" x="92" y="57" width="11.4" height="11.4"/>
    <rect class="cls-1" x="80.6" y="57" width="11.4" height="11.4"/>
    <rect class="cls-1" x="69.2" y="57" width="11.4" height="11.4"/>
    <rect class="cls-1" x="57.8" y="57" width="11.4" height="11.4"/>
    <rect class="cls-1" x="46.4" y="57" width="11.4" height="11.4"/>
    <rect class="cls-1" x="35" y="57" width="11.4" height="11.4"/>
    <rect class="cls-1" x="23.6" y="57" width="11.4" height="11.4"/>
    <rect class="cls-7" x="12.1" y="57" width="11.4" height="11.4"/>
    <rect class="cls-4" x=".7" y="57" width="11.4" height="11.4"/>
    <rect class="cls-4" x="228.9" y="45.6" width="11.4" height="11.4"/>
    <rect class="cls-6" x="217.5" y="45.6" width="11.4" height="11.4"/>
    <rect class="cls-1" x="206.1" y="45.6" width="11.4" height="11.4"/>
    <rect class="cls-1" x="194.7" y="45.6" width="11.4" height="11.4"/>
    <rect class="cls-1" x="183.3" y="45.6" width="11.4" height="11.4"/>
    <rect class="cls-1" x="171.9" y="45.6" width="11.4" height="11.4"/>
    <rect class="cls-1" x="160.5" y="45.6" width="11.4" height="11.4"/>
    <rect class="cls-1" x="149.1" y="45.6" width="11.4" height="11.4"/>
    <rect class="cls-1" x="137.7" y="45.6" width="11.4" height="11.4"/>
    <rect class="cls-1" x="126.2" y="45.6" width="11.4" height="11.4"/>
    <rect class="cls-1" x="114.8" y="45.6" width="11.4" height="11.4"/>
    <rect class="cls-1" x="103.4" y="45.6" width="11.4" height="11.4"/>
    <rect class="cls-1" x="92" y="45.6" width="11.4" height="11.4"/>
    <rect class="cls-1" x="80.6" y="45.6" width="11.4" height="11.4"/>
    <rect class="cls-1" x="69.2" y="45.6" width="11.4" height="11.4"/>
    <rect class="cls-1" x="57.8" y="45.6" width="11.4" height="11.4"/>
    <rect class="cls-1" x="46.4" y="45.6" width="11.4" height="11.4"/>
    <rect class="cls-1" x="35" y="45.6" width="11.4" height="11.4"/>
    <rect class="cls-1" x="23.6" y="45.6" width="11.4" height="11.4"/>
    <rect class="cls-7" x="12.1" y="45.6" width="11.4" height="11.4"/>
    <rect class="cls-4" x=".7" y="45.6" width="11.4" height="11.4"/>
    <rect class="cls-4" x="228.9" y="34.2" width="11.4" height="11.4"/>
    <rect class="cls-6" x="217.5" y="34.2" width="11.4" height="11.4"/>
    <rect class="cls-1" x="206.1" y="34.2" width="11.4" height="11.4"/>
    <rect class="cls-1" x="194.7" y="34.2" width="11.4" height="11.4"/>
    <rect class="cls-1" x="183.3" y="34.2" width="11.4" height="11.4"/>
    <rect class="cls-1" x="171.9" y="34.2" width="11.4" height="11.4"/>
    <rect class="cls-1" x="160.5" y="34.2" width="11.4" height="11.4"/>
    <rect class="cls-1" x="149.1" y="34.2" width="11.4" height="11.4"/>
    <rect class="cls-1" x="137.7" y="34.2" width="11.4" height="11.4"/>
    <rect class="cls-1" x="126.2" y="34.2" width="11.4" height="11.4"/>
    <rect class="cls-1" x="114.8" y="34.2" width="11.4" height="11.4"/>
    <rect class="cls-1" x="103.4" y="34.2" width="11.4" height="11.4"/>
    <rect class="cls-1" x="92" y="34.2" width="11.4" height="11.4"/>
    <rect class="cls-1" x="80.6" y="34.2" width="11.4" height="11.4"/>
    <rect class="cls-1" x="69.2" y="34.2" width="11.4" height="11.4"/>
    <rect class="cls-1" x="57.8" y="34.2" width="11.4" height="11.4"/>
    <rect class="cls-1" x="46.4" y="34.2" width="11.4" height="11.4"/>
    <rect class="cls-1" x="35" y="34.2" width="11.4" height="11.4"/>
    <rect class="cls-1" x="23.6" y="34.2" width="11.4" height="11.4"/>
    <rect class="cls-7" x="12.1" y="34.2" width="11.4" height="11.4"/>
    <rect class="cls-4" x=".7" y="34.2" width="11.4" height="11.4"/>
    <rect class="cls-4" x="228.9" y="22.8" width="11.4" height="11.4"/>
    <rect class="cls-6" x="217.5" y="22.8" width="11.4" height="11.4"/>
    <rect class="cls-1" x="206.1" y="22.8" width="11.4" height="11.4"/>
    <rect class="cls-1" x="194.7" y="22.8" width="11.4" height="11.4"/>
    <rect class="cls-1" x="183.3" y="22.8" width="11.4" height="11.4"/>
    <rect class="cls-1" x="171.9" y="22.8" width="11.4" height="11.4"/>
    <rect class="cls-1" x="160.5" y="22.8" width="11.4" height="11.4"/>
    <rect class="cls-1" x="149.1" y="22.8" width="11.4" height="11.4"/>
    <rect class="cls-1" x="137.7" y="22.8" width="11.4" height="11.4"/>
    <rect class="cls-1" x="126.2" y="22.8" width="11.4" height="11.4"/>
    <rect class="cls-1" x="114.8" y="22.8" width="11.4" height="11.4"/>
    <rect class="cls-1" x="103.4" y="22.8" width="11.4" height="11.4"/>
    <rect class="cls-1" x="92" y="22.8" width="11.4" height="11.4"/>
    <rect class="cls-1" x="80.6" y="22.8" width="11.4" height="11.4"/>
    <rect class="cls-1" x="69.2" y="22.8" width="11.4" height="11.4"/>
    <rect class="cls-1" x="57.8" y="22.8" width="11.4" height="11.4"/>
    <rect class="cls-1" x="46.4" y="22.8" width="11.4" height="11.4"/>
    <rect class="cls-1" x="35" y="22.8" width="11.4" height="11.4"/>
    <rect class="cls-1" x="23.6" y="22.8" width="11.4" height="11.4"/>
    <rect class="cls-7" x="12.1" y="22.8" width="11.4" height="11.4"/>
    <rect class="cls-4" x=".7" y="22.8" width="11.4" height="11.4"/>
    <rect class="cls-4" x="217.5" y="11.4" width="11.4" height="11.4"/>
    <rect class="cls-7" x="206.1" y="11.4" width="11.4" height="11.4"/>
    <rect class="cls-7" x="194.7" y="11.4" width="11.4" height="11.4"/>
    <rect class="cls-7" x="183.3" y="11.4" width="11.4" height="11.4"/>
    <rect class="cls-7" x="171.9" y="11.4" width="11.4" height="11.4"/>
    <rect class="cls-7" x="160.5" y="11.4" width="11.4" height="11.4"/>
    <rect class="cls-7" x="149.1" y="11.4" width="11.4" height="11.4"/>
    <rect class="cls-7" x="137.7" y="11.4" width="11.4" height="11.4"/>
    <rect class="cls-7" x="126.2" y="11.4" width="11.4" height="11.4"/>
    <rect class="cls-7" x="114.8" y="11.4" width="11.4" height="11.4"/>
    <rect class="cls-7" x="103.4" y="11.4" width="11.4" height="11.4"/>
    <rect class="cls-7" x="92" y="11.4" width="11.4" height="11.4"/>
    <rect class="cls-7" x="80.6" y="11.4" width="11.4" height="11.4"/>
    <rect class="cls-7" x="69.2" y="11.4" width="11.4" height="11.4"/>
    <rect class="cls-7" x="57.8" y="11.4" width="11.4" height="11.4"/>
    <rect class="cls-7" x="46.4" y="11.4" width="11.4" height="11.4"/>
    <rect class="cls-7" x="35" y="11.4" width="11.4" height="11.4"/>
    <rect class="cls-7" x="23.6" y="11.4" width="11.4" height="11.4"/>
    <rect class="cls-4" x="12.1" y="11.4" width="11.4" height="11.4"/>
    <rect class="cls-4" x="206.1" width="11.4" height="11.4"/>
    <rect class="cls-4" x="194.7" width="11.4" height="11.4"/>
    <rect class="cls-4" x="183.3" width="11.4" height="11.4"/>
    <rect class="cls-4" x="171.9" width="11.4" height="11.4"/>
    <rect class="cls-4" x="160.5" width="11.4" height="11.4"/>
    <rect class="cls-4" x="149.1" width="11.4" height="11.4"/>
    <rect class="cls-4" x="137.7" width="11.4" height="11.4"/>
    <rect class="cls-4" x="126.2" width="11.4" height="11.4"/>
    <rect class="cls-4" x="114.8" width="11.4" height="11.4"/>
    <rect class="cls-4" x="103.4" width="11.4" height="11.4"/>
    <rect class="cls-4" x="92" width="11.4" height="11.4"/>
    <rect class="cls-4" x="80.6" width="11.4" height="11.4"/>
    <rect class="cls-4" x="69.2" width="11.4" height="11.4"/>
    <rect class="cls-4" x="57.8" width="11.4" height="11.4"/>
    <rect class="cls-4" x="46.4" width="11.4" height="11.4"/>
    <rect class="cls-4" x="35" width="11.4" height="11.4"/>
    <rect class="cls-4" x="23.6" width="11.4" height="11.4"/>
  </g>
  <g>
    <rect class="cls-4" x="101.5" y="56.6" width="3.3" height="3.3"/>
    <rect class="cls-4" x="98.2" y="53.3" width="3.3" height="3.3"/>
    <rect class="cls-5" x="98.2" y="56.6" width="3.3" height="3.3"/>
    <rect class="cls-4" x="98.2" y="59.9" width="3.3" height="3.3"/>
    <rect class="cls-4" x="94.9" y="50" width="3.3" height="3.3"/>
    <rect class="cls-5" x="94.9" y="53.3" width="3.3" height="3.3"/>
    <rect class="cls-2" x="94.9" y="56.6" width="3.3" height="3.3"/>
    <rect class="cls-4" x="94.9" y="59.9" width="3.3" height="3.3"/>
    <rect class="cls-4" x="91.6" y="46.7" width="3.3" height="3.3"/>
    <rect class="cls-5" x="91.6" y="50" width="3.3" height="3.3"/>
    <rect class="cls-2" x="91.6" y="53.3" width="3.3" height="3.3"/>
    <rect class="cls-2" x="91.6" y="56.6" width="3.3" height="3.3"/>
    <rect class="cls-4" x="91.6" y="59.9" width="3.3" height="3.3"/>
    <rect class="cls-4" x="88.3" y="43.4" width="3.3" height="3.3"/>
    <rect class="cls-5" x="88.3" y="46.7" width="3.3" height="3.3"/>
    <rect class="cls-2" x="88.3" y="50" width="3.3" height="3.3"/>
    <rect class="cls-2" x="88.3" y="53.3" width="3.3" height="3.3"/>
    <rect class="cls-2" x="88.3" y="56.6" width="3.3" height="3.3"/>
    <rect class="cls-4" x="88.3" y="59.9" width="3.3" height="3.3"/>
    <rect class="cls-4" x="85" y="40.1" width="3.3" height="3.3"/>
    <rect class="cls-5" x="85" y="43.4" width="3.3" height="3.3"/>
    <rect class="cls-2" x="85" y="46.7" width="3.3" height="3.3"/>
    <rect class="cls-2" x="85" y="50" width="3.3" height="3.3"/>
    <rect class="cls-2" x="85" y="53.3" width="3.3" height="3.3"/>
    <rect class="cls-2" x="85" y="56.6" width="3.3" height="3.3"/>
    <rect class="cls-4" x="85" y="59.9" width="3.3" height="3.3"/>
    <rect class="cls-4" x="81.7" y="36.8" width="3.3" height="3.3"/>
    <rect class="cls-5" x="81.7" y="40.1" width="3.3" height="3.3"/>
    <rect class="cls-2" x="81.7" y="43.4" width="3.3" height="3.3"/>
    <rect class="cls-2" x="81.7" y="46.7" width="3.3" height="3.3"/>
    <rect class="cls-2" x="81.7" y="50" width="3.3" height="3.3"/>
    <rect class="cls-2" x="81.7" y="53.3" width="3.3" height="3.3"/>
    <rect class="cls-2" x="81.7" y="56.6" width="3.3" height="3.3"/>
    <rect class="cls-4" x="81.7" y="59.9" width="3.3" height="3.3"/>
    <rect class="cls-4" x="81.7" y="63.2" width="3.3" height="3.3"/>
    <rect class="cls-4" x="81.7" y="66.5" width="3.3" height="3.3"/>
    <rect class="cls-4" x="81.7" y="69.8" width="3.3" height="3.3"/>
    <rect class="cls-4" x="81.7" y="73.1" width="3.3" height="3.3"/>
    <rect class="cls-4" x="81.7" y="76.4" width="3.3" height="3.3"/>
    <rect class="cls-4" x="81.7" y="79.6" width="3.3" height="3.3"/>
    <rect class="cls-4" x="81.7" y="82.9" width="3.3" height="3.3"/>
    <rect class="cls-4" x="78.4" y="33.5" width="3.3" height="3.3"/>
    <rect class="cls-5" x="78.4" y="36.8" width="3.3" height="3.3"/>
    <rect class="cls-2" x="78.4" y="40.1" width="3.3" height="3.3"/>
    <rect class="cls-2" x="78.4" y="43.4" width="3.3" height="3.3"/>
    <rect class="cls-2" x="78.4" y="46.7" width="3.3" height="3.3"/>
    <rect class="cls-2" x="78.4" y="50" width="3.3" height="3.3"/>
    <rect class="cls-2" x="78.4" y="53.3" width="3.3" height="3.3"/>
    <rect class="cls-2" x="78.4" y="56.6" width="3.3" height="3.3"/>
    <rect class="cls-5" x="78.4" y="59.9" width="3.3" height="3.3"/>
    <rect class="cls-5" x="78.4" y="63.2" width="3.3" height="3.3"/>
    <rect class="cls-5" x="78.4" y="66.5" width="3.3" height="3.3"/>
    <rect class="cls-5" x="78.4" y="69.8" width="3.3" height="3.3"/>
    <rect class="cls-5" x="78.4" y="73.1" width="3.3" height="3.3"/>
    <rect class="cls-5" x="78.4" y="76.4" width="3.3" height="3.3"/>
    <rect class="cls-5" x="78.4" y="79.6" width="3.3" height="3.3"/>
    <rect class="cls-4" x="78.4" y="82.9" width="3.3" height="3.3"/>
    <rect class="cls-4" x="75.1" y="30.2" width="3.3" height="3.3"/>
    <rect class="cls-5" x="75.1" y="33.5" width="3.3" height="3.3"/>
    <rect class="cls-2" x="75.1" y="36.8" width="3.3" height="3.3"/>
    <rect class="cls-2" x="75.1" y="40.1" width="3.3" height="3.3"/>
    <rect class="cls-2" x="75.1" y="43.4" width="3.3" height="3.3"/>
    <rect class="cls-2" x="75.1" y="46.7" width="3.3" height="3.3"/>
    <rect class="cls-2" x="75.1" y="50" width="3.3" height="3.3"/>
    <rect class="cls-2" x="75.1" y="53.3" width="3.3" height="3.3"/>
    <rect class="cls-2" x="75.1" y="56.6" width="3.3" height="3.3"/>
    <rect class="cls-2" x="75.1" y="59.9" width="3.3" height="3.3"/>
    <rect class="cls-2" x="75.1" y="63.2" width="3.3" height="3.3"/>
    <rect class="cls-2" x="75.1" y="66.5" width="3.3" height="3.3"/>
    <rect class="cls-2" x="75.1" y="69.8" width="3.3" height="3.3"/>
    <rect class="cls-2" x="75.1" y="73.1" width="3.3" height="3.3"/>
    <rect class="cls-2" x="75.1" y="76.4" width="3.3" height="3.3"/>
    <rect class="cls-2" x="75.1" y="79.6" width="3.3" height="3.3"/>
    <rect class="cls-4" x="75.1" y="82.9" width="3.3" height="3.3"/>
    <rect class="cls-4" x="71.8" y="26.9" width="3.3" height="3.3"/>
    <rect class="cls-5" x="71.8" y="30.2" width="3.3" height="3.3"/>
    <rect class="cls-2" x="71.8" y="33.5" width="3.3" height="3.3"/>
    <rect class="cls-2" x="71.8" y="36.8" width="3.3" height="3.3"/>
    <rect class="cls-2" x="71.8" y="40.1" width="3.3" height="3.3"/>
    <rect class="cls-2" x="71.8" y="43.4" width="3.3" height="3.3"/>
    <rect class="cls-2" x="71.8" y="46.7" width="3.3" height="3.3"/>
    <rect class="cls-2" x="71.8" y="50" width="3.3" height="3.3"/>
    <rect class="cls-2" x="71.8" y="53.3" width="3.3" height="3.3"/>
    <rect class="cls-2" x="71.8" y="56.6" width="3.3" height="3.3"/>
    <rect class="cls-2" x="71.8" y="59.9" width="3.3" height="3.3"/>
    <rect class="cls-2" x="71.8" y="63.2" width="3.3" height="3.3"/>
    <rect class="cls-2" x="71.8" y="66.5" width="3.3" height="3.3"/>
    <rect class="cls-2" x="71.8" y="69.8" width="3.3" height="3.3"/>
    <rect class="cls-2" x="71.8" y="73.1" width="3.3" height="3.3"/>
    <rect class="cls-2" x="71.8" y="76.4" width="3.3" height="3.3"/>
    <rect class="cls-2" x="71.8" y="79.6" width="3.3" height="3.3"/>
    <rect class="cls-4" x="71.8" y="82.9" width="3.3" height="3.3"/>
    <rect class="cls-4" x="68.5" y="30.2" width="3.3" height="3.3"/>
    <rect class="cls-2" x="68.5" y="33.5" width="3.3" height="3.3"/>
    <rect class="cls-2" x="68.5" y="36.8" width="3.3" height="3.3"/>
    <rect class="cls-2" x="68.5" y="40.1" width="3.3" height="3.3"/>
    <rect class="cls-2" x="68.5" y="43.4" width="3.3" height="3.3"/>
    <rect class="cls-2" x="68.5" y="46.7" width="3.3" height="3.3"/>
    <rect class="cls-2" x="68.5" y="50" width="3.3" height="3.3"/>
    <rect class="cls-2" x="68.5" y="53.3" width="3.3" height="3.3"/>
    <rect class="cls-2" x="68.5" y="56.6" width="3.3" height="3.3"/>
    <rect class="cls-2" x="68.5" y="59.9" width="3.3" height="3.3"/>
    <rect class="cls-2" x="68.5" y="63.2" width="3.3" height="3.3"/>
    <rect class="cls-2" x="68.5" y="66.5" width="3.3" height="3.3"/>
    <rect class="cls-2" x="68.5" y="69.8" width="3.3" height="3.3"/>
    <rect class="cls-2" x="68.5" y="73.1" width="3.3" height="3.3"/>
    <rect class="cls-2" x="68.5" y="76.4" width="3.3" height="3.3"/>
    <rect class="cls-2" x="68.5" y="79.6" width="3.3" height="3.3"/>
    <rect class="cls-4" x="68.5" y="82.9" width="3.3" height="3.3"/>
    <rect class="cls-4" x="65.2" y="33.5" width="3.3" height="3.3"/>
    <rect class="cls-2" x="65.2" y="36.8" width="3.3" height="3.3"/>
    <rect class="cls-2" x="65.2" y="40.1" width="3.3" height="3.3"/>
    <rect class="cls-2" x="65.2" y="43.4" width="3.3" height="3.3"/>
    <rect class="cls-2" x="65.2" y="46.7" width="3.3" height="3.3"/>
    <rect class="cls-2" x="65.2" y="50" width="3.3" height="3.3"/>
    <rect class="cls-2" x="65.2" y="53.3" width="3.3" height="3.3"/>
    <rect class="cls-2" x="65.2" y="56.6" width="3.3" height="3.3"/>
    <rect class="cls-3" x="65.2" y="59.9" width="3.3" height="3.3"/>
    <rect class="cls-3" x="65.2" y="63.2" width="3.3" height="3.3"/>
    <rect class="cls-3" x="65.2" y="66.5" width="3.3" height="3.3"/>
    <rect class="cls-3" x="65.2" y="69.8" width="3.3" height="3.3"/>
    <rect class="cls-3" x="65.2" y="73.1" width="3.3" height="3.3"/>
    <rect class="cls-3" x="65.2" y="76.4" width="3.3" height="3.3"/>
    <rect class="cls-3" x="65.2" y="79.6" width="3.3" height="3.3"/>
    <rect class="cls-4" x="65.2" y="82.9" width="3.3" height="3.3"/>
    <rect class="cls-4" x="61.9" y="36.8" width="3.3" height="3.3"/>
    <rect class="cls-2" x="61.9" y="40.1" width="3.3" height="3.3"/>
    <rect class="cls-2" x="61.9" y="43.4" width="3.3" height="3.3"/>
    <rect class="cls-2" x="61.9" y="46.7" width="3.3" height="3.3"/>
    <rect class="cls-2" x="61.9" y="50" width="3.3" height="3.3"/>
    <rect class="cls-2" x="61.9" y="53.3" width="3.3" height="3.3"/>
    <rect class="cls-3" x="61.9" y="56.6" width="3.3" height="3.3"/>
    <rect class="cls-4" x="61.9" y="59.9" width="3.3" height="3.3"/>
    <rect class="cls-4" x="61.9" y="63.2" width="3.3" height="3.3"/>
    <rect class="cls-4" x="61.9" y="66.5" width="3.3" height="3.3"/>
    <rect class="cls-4" x="61.9" y="69.8" width="3.3" height="3.3"/>
    <rect class="cls-4" x="61.9" y="73.1" width="3.3" height="3.3"/>
    <rect class="cls-4" x="61.9" y="76.4" width="3.3" height="3.3"/>
    <rect class="cls-4" x="61.9" y="79.6" width="3.3" height="3.3"/>
    <rect class="cls-4" x="61.9" y="82.9" width="3.3" height="3.3"/>
    <rect class="cls-4" x="58.6" y="40.1" width="3.3" height="3.3"/>
    <rect class="cls-2" x="58.6" y="43.4" width="3.3" height="3.3"/>
    <rect class="cls-2" x="58.6" y="46.7" width="3.3" height="3.3"/>
    <rect class="cls-2" x="58.6" y="50" width="3.3" height="3.3"/>
    <rect class="cls-2" x="58.6" y="53.3" width="3.3" height="3.3"/>
    <rect class="cls-3" x="58.6" y="56.6" width="3.3" height="3.3"/>
    <rect class="cls-4" x="58.6" y="59.9" width="3.3" height="3.3"/>
    <rect class="cls-4" x="55.3" y="43.4" width="3.3" height="3.3"/>
    <rect class="cls-2" x="55.3" y="46.7" width="3.3" height="3.3"/>
    <rect class="cls-2" x="55.3" y="50" width="3.3" height="3.3"/>
    <rect class="cls-2" x="55.3" y="53.3" width="3.3" height="3.3"/>
    <rect class="cls-3" x="55.3" y="56.6" width="3.3" height="3.3"/>
    <rect class="cls-4" x="55.3" y="59.9" width="3.3" height="3.3"/>
    <rect class="cls-4" x="52" y="46.7" width="3.3" height="3.3"/>
    <rect class="cls-2" x="52" y="50" width="3.3" height="3.3"/>
    <rect class="cls-2" x="52" y="53.3" width="3.3" height="3.3"/>
    <rect class="cls-3" x="52" y="56.6" width="3.3" height="3.3"/>
    <rect class="cls-4" x="52" y="59.9" width="3.3" height="3.3"/>
    <rect class="cls-4" x="48.7" y="50" width="3.3" height="3.3"/>
    <rect class="cls-2" x="48.7" y="53.3" width="3.3" height="3.3"/>
    <rect class="cls-3" x="48.7" y="56.6" width="3.3" height="3.3"/>
    <rect class="cls-4" x="48.7" y="59.9" width="3.3" height="3.3"/>
    <rect class="cls-4" x="45.4" y="53.3" width="3.3" height="3.3"/>
    <rect class="cls-3" x="45.4" y="56.6" width="3.3" height="3.3"/>
    <rect class="cls-4" x="45.4" y="59.9" width="3.3" height="3.3"/>
    <rect class="cls-4" x="42.1" y="56.6" width="3.3" height="3.3"/>
  </g>
</svg>