<?xml version="1.0" encoding="UTF-8"?>
<svg id="Layer_1" data-name="Layer 1" xmlns="http://www.w3.org/2000/svg" version="1.1" viewBox="0 0 240.8 114.1">
  <defs>
    <style>
      .cls-1 {
        fill: #ce8479;
      }

      .cls-1, .cls-2, .cls-3, .cls-4, .cls-5, .cls-6, .cls-7, .cls-8, .cls-9, .cls-10, .cls-11, .cls-12 {
        stroke-width: 0px;
      }

      .cls-2 {
        fill: #eaeaea;
      }

      .cls-3 {
        fill: #f0bab3;
      }

      .cls-4 {
        fill: #5b2c2b;
      }

      .cls-5 {
        fill: #000;
      }

      .cls-6 {
        fill: #0273a7;
      }

      .cls-7 {
        fill: #703a37;
      }

      .cls-8 {
        fill: #ccc;
      }

      .cls-9 {
        fill: #b3695d;
      }

      .cls-10 {
        fill: #fff;
      }

      .cls-11 {
        fill: #006185;
      }

      .cls-12 {
        fill: #0091c3;
      }
    </style>
  </defs>
  <g>
    <rect class="cls-5" x="206.1" y="102.7" width="11.4" height="11.4"/>
    <rect class="cls-5" x="194.7" y="102.7" width="11.4" height="11.4"/>
    <rect class="cls-5" x="183.3" y="102.7" width="11.4" height="11.4"/>
    <rect class="cls-5" x="171.8" y="102.7" width="11.4" height="11.4"/>
    <rect class="cls-5" x="160.4" y="102.7" width="11.4" height="11.4"/>
    <rect class="cls-5" x="149" y="102.7" width="11.4" height="11.4"/>
    <rect class="cls-5" x="137.6" y="102.7" width="11.4" height="11.4"/>
    <rect class="cls-5" x="126.2" y="102.7" width="11.4" height="11.4"/>
    <rect class="cls-5" x="114.8" y="102.7" width="11.4" height="11.4"/>
    <rect class="cls-5" x="103.4" y="102.7" width="11.4" height="11.4"/>
    <rect class="cls-5" x="92" y="102.7" width="11.4" height="11.4"/>
    <rect class="cls-5" x="80.6" y="102.7" width="11.4" height="11.4"/>
    <rect class="cls-5" x="69.2" y="102.7" width="11.4" height="11.4"/>
    <rect class="cls-5" x="57.7" y="102.7" width="11.4" height="11.4"/>
    <rect class="cls-5" x="46.3" y="102.7" width="11.4" height="11.4"/>
    <rect class="cls-5" x="34.9" y="102.7" width="11.4" height="11.4"/>
    <rect class="cls-5" x="23.5" y="102.7" width="11.4" height="11.4"/>
    <rect class="cls-5" x="217.5" y="91.3" width="11.4" height="11.4"/>
    <rect class="cls-8" x="206.1" y="91.3" width="11.4" height="11.4"/>
    <rect class="cls-8" x="194.7" y="91.3" width="11.4" height="11.4"/>
    <rect class="cls-8" x="183.3" y="91.3" width="11.4" height="11.4"/>
    <rect class="cls-8" x="171.8" y="91.3" width="11.4" height="11.4"/>
    <rect class="cls-8" x="160.4" y="91.3" width="11.4" height="11.4"/>
    <rect class="cls-8" x="149" y="91.3" width="11.4" height="11.4"/>
    <rect class="cls-8" x="137.6" y="91.3" width="11.4" height="11.4"/>
    <rect class="cls-8" x="126.2" y="91.3" width="11.4" height="11.4"/>
    <rect class="cls-8" x="114.8" y="91.3" width="11.4" height="11.4"/>
    <rect class="cls-8" x="103.4" y="91.3" width="11.4" height="11.4"/>
    <rect class="cls-8" x="92" y="91.3" width="11.4" height="11.4"/>
    <rect class="cls-8" x="80.6" y="91.3" width="11.4" height="11.4"/>
    <rect class="cls-8" x="69.2" y="91.3" width="11.4" height="11.4"/>
    <rect class="cls-8" x="57.7" y="91.3" width="11.4" height="11.4"/>
    <rect class="cls-8" x="46.3" y="91.3" width="11.4" height="11.4"/>
    <rect class="cls-8" x="34.9" y="91.3" width="11.4" height="11.4"/>
    <rect class="cls-8" x="23.5" y="91.3" width="11.4" height="11.4"/>
    <rect class="cls-5" x="12.1" y="91.3" width="11.4" height="11.4"/>
    <rect class="cls-5" x="228.9" y="79.9" width="11.4" height="11.4"/>
    <rect class="cls-8" x="217.5" y="79.9" width="11.4" height="11.4"/>
    <rect class="cls-2" x="206.1" y="79.9" width="11.4" height="11.4"/>
    <rect class="cls-2" x="194.7" y="79.9" width="11.4" height="11.4"/>
    <rect class="cls-2" x="183.3" y="79.9" width="11.4" height="11.4"/>
    <rect class="cls-2" x="171.8" y="79.9" width="11.4" height="11.4"/>
    <rect class="cls-2" x="160.4" y="79.9" width="11.4" height="11.4"/>
    <rect class="cls-2" x="149" y="79.9" width="11.4" height="11.4"/>
    <rect class="cls-2" x="137.6" y="79.9" width="11.4" height="11.4"/>
    <rect class="cls-2" x="126.2" y="79.9" width="11.4" height="11.4"/>
    <rect class="cls-2" x="114.8" y="79.9" width="11.4" height="11.4"/>
    <rect class="cls-2" x="103.4" y="79.9" width="11.4" height="11.4"/>
    <rect class="cls-2" x="92" y="79.9" width="11.4" height="11.4"/>
    <rect class="cls-2" x="80.6" y="79.9" width="11.4" height="11.4"/>
    <rect class="cls-2" x="69.2" y="79.9" width="11.4" height="11.4"/>
    <rect class="cls-2" x="57.7" y="79.9" width="11.4" height="11.4"/>
    <rect class="cls-2" x="46.3" y="79.9" width="11.4" height="11.4"/>
    <rect class="cls-2" x="34.9" y="79.9" width="11.4" height="11.4"/>
    <rect class="cls-2" x="23.5" y="79.9" width="11.4" height="11.4"/>
    <rect class="cls-10" x="12.1" y="79.9" width="11.4" height="11.4"/>
    <rect class="cls-5" x=".7" y="79.9" width="11.4" height="11.4"/>
    <rect class="cls-5" x="228.9" y="68.5" width="11.4" height="11.4"/>
    <rect class="cls-8" x="217.5" y="68.5" width="11.4" height="11.4"/>
    <rect class="cls-2" x="206.1" y="68.5" width="11.4" height="11.4"/>
    <rect class="cls-2" x="194.7" y="68.5" width="11.4" height="11.4"/>
    <rect class="cls-2" x="183.3" y="68.5" width="11.4" height="11.4"/>
    <rect class="cls-2" x="171.8" y="68.5" width="11.4" height="11.4"/>
    <rect class="cls-2" x="160.4" y="68.5" width="11.4" height="11.4"/>
    <rect class="cls-2" x="149" y="68.5" width="11.4" height="11.4"/>
    <rect class="cls-2" x="137.6" y="68.5" width="11.4" height="11.4"/>
    <rect class="cls-2" x="126.2" y="68.5" width="11.4" height="11.4"/>
    <rect class="cls-2" x="114.8" y="68.5" width="11.4" height="11.4"/>
    <rect class="cls-2" x="103.4" y="68.5" width="11.4" height="11.4"/>
    <rect class="cls-2" x="92" y="68.5" width="11.4" height="11.4"/>
    <rect class="cls-2" x="80.6" y="68.5" width="11.4" height="11.4"/>
    <rect class="cls-2" x="69.2" y="68.5" width="11.4" height="11.4"/>
    <rect class="cls-2" x="57.7" y="68.5" width="11.4" height="11.4"/>
    <rect class="cls-2" x="46.3" y="68.5" width="11.4" height="11.4"/>
    <rect class="cls-2" x="34.9" y="68.5" width="11.4" height="11.4"/>
    <rect class="cls-2" x="23.5" y="68.5" width="11.4" height="11.4"/>
    <rect class="cls-10" x="12.1" y="68.5" width="11.4" height="11.4"/>
    <rect class="cls-5" x=".7" y="68.5" width="11.4" height="11.4"/>
    <rect class="cls-5" x="228.9" y="57" width="11.4" height="11.4"/>
    <rect class="cls-8" x="217.5" y="57" width="11.4" height="11.4"/>
    <rect class="cls-2" x="206.1" y="57" width="11.4" height="11.4"/>
    <rect class="cls-2" x="194.7" y="57" width="11.4" height="11.4"/>
    <rect class="cls-2" x="183.3" y="57" width="11.4" height="11.4"/>
    <rect class="cls-2" x="171.8" y="57" width="11.4" height="11.4"/>
    <rect class="cls-2" x="160.4" y="57" width="11.4" height="11.4"/>
    <rect class="cls-2" x="149" y="57" width="11.4" height="11.4"/>
    <rect class="cls-2" x="137.6" y="57" width="11.4" height="11.4"/>
    <rect class="cls-2" x="126.2" y="57" width="11.4" height="11.4"/>
    <rect class="cls-2" x="114.8" y="57" width="11.4" height="11.4"/>
    <rect class="cls-2" x="103.4" y="57" width="11.4" height="11.4"/>
    <rect class="cls-2" x="92" y="57" width="11.4" height="11.4"/>
    <rect class="cls-2" x="80.6" y="57" width="11.4" height="11.4"/>
    <rect class="cls-2" x="69.2" y="57" width="11.4" height="11.4"/>
    <rect class="cls-2" x="57.7" y="57" width="11.4" height="11.4"/>
    <rect class="cls-2" x="46.3" y="57" width="11.4" height="11.4"/>
    <rect class="cls-2" x="34.9" y="57" width="11.4" height="11.4"/>
    <rect class="cls-2" x="23.5" y="57" width="11.4" height="11.4"/>
    <rect class="cls-10" x="12.1" y="57" width="11.4" height="11.4"/>
    <rect class="cls-5" x=".7" y="57" width="11.4" height="11.4"/>
    <rect class="cls-5" x="228.9" y="45.6" width="11.4" height="11.4"/>
    <rect class="cls-8" x="217.5" y="45.6" width="11.4" height="11.4"/>
    <rect class="cls-2" x="206.1" y="45.6" width="11.4" height="11.4"/>
    <rect class="cls-2" x="194.7" y="45.6" width="11.4" height="11.4"/>
    <rect class="cls-2" x="183.3" y="45.6" width="11.4" height="11.4"/>
    <rect class="cls-2" x="171.8" y="45.6" width="11.4" height="11.4"/>
    <rect class="cls-2" x="160.4" y="45.6" width="11.4" height="11.4"/>
    <rect class="cls-2" x="149" y="45.6" width="11.4" height="11.4"/>
    <rect class="cls-2" x="137.6" y="45.6" width="11.4" height="11.4"/>
    <rect class="cls-2" x="126.2" y="45.6" width="11.4" height="11.4"/>
    <rect class="cls-2" x="114.8" y="45.6" width="11.4" height="11.4"/>
    <rect class="cls-2" x="103.4" y="45.6" width="11.4" height="11.4"/>
    <rect class="cls-2" x="92" y="45.6" width="11.4" height="11.4"/>
    <rect class="cls-2" x="80.6" y="45.6" width="11.4" height="11.4"/>
    <rect class="cls-2" x="69.2" y="45.6" width="11.4" height="11.4"/>
    <rect class="cls-2" x="57.7" y="45.6" width="11.4" height="11.4"/>
    <rect class="cls-2" x="46.3" y="45.6" width="11.4" height="11.4"/>
    <rect class="cls-2" x="34.9" y="45.6" width="11.4" height="11.4"/>
    <rect class="cls-2" x="23.5" y="45.6" width="11.4" height="11.4"/>
    <rect class="cls-10" x="12.1" y="45.6" width="11.4" height="11.4"/>
    <rect class="cls-5" x=".7" y="45.6" width="11.4" height="11.4"/>
    <rect class="cls-5" x="228.9" y="34.2" width="11.4" height="11.4"/>
    <rect class="cls-8" x="217.5" y="34.2" width="11.4" height="11.4"/>
    <rect class="cls-2" x="206.1" y="34.2" width="11.4" height="11.4"/>
    <rect class="cls-2" x="194.7" y="34.2" width="11.4" height="11.4"/>
    <rect class="cls-2" x="183.3" y="34.2" width="11.4" height="11.4"/>
    <rect class="cls-2" x="171.8" y="34.2" width="11.4" height="11.4"/>
    <rect class="cls-2" x="160.4" y="34.2" width="11.4" height="11.4"/>
    <rect class="cls-2" x="149" y="34.2" width="11.4" height="11.4"/>
    <rect class="cls-2" x="137.6" y="34.2" width="11.4" height="11.4"/>
    <rect class="cls-2" x="126.2" y="34.2" width="11.4" height="11.4"/>
    <rect class="cls-2" x="114.8" y="34.2" width="11.4" height="11.4"/>
    <rect class="cls-2" x="103.4" y="34.2" width="11.4" height="11.4"/>
    <rect class="cls-2" x="92" y="34.2" width="11.4" height="11.4"/>
    <rect class="cls-2" x="80.6" y="34.2" width="11.4" height="11.4"/>
    <rect class="cls-2" x="69.2" y="34.2" width="11.4" height="11.4"/>
    <rect class="cls-2" x="57.7" y="34.2" width="11.4" height="11.4"/>
    <rect class="cls-2" x="46.3" y="34.2" width="11.4" height="11.4"/>
    <rect class="cls-2" x="34.9" y="34.2" width="11.4" height="11.4"/>
    <rect class="cls-2" x="23.5" y="34.2" width="11.4" height="11.4"/>
    <rect class="cls-10" x="12.1" y="34.2" width="11.4" height="11.4"/>
    <rect class="cls-5" x=".7" y="34.2" width="11.4" height="11.4"/>
    <rect class="cls-5" x="228.9" y="22.8" width="11.4" height="11.4"/>
    <rect class="cls-8" x="217.5" y="22.8" width="11.4" height="11.4"/>
    <rect class="cls-2" x="206.1" y="22.8" width="11.4" height="11.4"/>
    <rect class="cls-2" x="194.7" y="22.8" width="11.4" height="11.4"/>
    <rect class="cls-2" x="183.3" y="22.8" width="11.4" height="11.4"/>
    <rect class="cls-2" x="171.8" y="22.8" width="11.4" height="11.4"/>
    <rect class="cls-2" x="160.4" y="22.8" width="11.4" height="11.4"/>
    <rect class="cls-2" x="149" y="22.8" width="11.4" height="11.4"/>
    <rect class="cls-2" x="137.6" y="22.8" width="11.4" height="11.4"/>
    <rect class="cls-2" x="126.2" y="22.8" width="11.4" height="11.4"/>
    <rect class="cls-2" x="114.8" y="22.8" width="11.4" height="11.4"/>
    <rect class="cls-2" x="103.4" y="22.8" width="11.4" height="11.4"/>
    <rect class="cls-2" x="92" y="22.8" width="11.4" height="11.4"/>
    <rect class="cls-2" x="80.6" y="22.8" width="11.4" height="11.4"/>
    <rect class="cls-2" x="69.2" y="22.8" width="11.4" height="11.4"/>
    <rect class="cls-2" x="57.7" y="22.8" width="11.4" height="11.4"/>
    <rect class="cls-2" x="46.3" y="22.8" width="11.4" height="11.4"/>
    <rect class="cls-2" x="34.9" y="22.8" width="11.4" height="11.4"/>
    <rect class="cls-2" x="23.5" y="22.8" width="11.4" height="11.4"/>
    <rect class="cls-10" x="12.1" y="22.8" width="11.4" height="11.4"/>
    <rect class="cls-5" x=".7" y="22.8" width="11.4" height="11.4"/>
    <rect class="cls-5" x="217.5" y="11.4" width="11.4" height="11.4"/>
    <rect class="cls-10" x="206.1" y="11.4" width="11.4" height="11.4"/>
    <rect class="cls-10" x="194.7" y="11.4" width="11.4" height="11.4"/>
    <rect class="cls-10" x="183.3" y="11.4" width="11.4" height="11.4"/>
    <rect class="cls-10" x="171.8" y="11.4" width="11.4" height="11.4"/>
    <rect class="cls-10" x="160.4" y="11.4" width="11.4" height="11.4"/>
    <rect class="cls-10" x="149" y="11.4" width="11.4" height="11.4"/>
    <rect class="cls-10" x="137.6" y="11.4" width="11.4" height="11.4"/>
    <rect class="cls-10" x="126.2" y="11.4" width="11.4" height="11.4"/>
    <rect class="cls-10" x="114.8" y="11.4" width="11.4" height="11.4"/>
    <rect class="cls-10" x="103.4" y="11.4" width="11.4" height="11.4"/>
    <rect class="cls-10" x="92" y="11.4" width="11.4" height="11.4"/>
    <rect class="cls-10" x="80.6" y="11.4" width="11.4" height="11.4"/>
    <rect class="cls-10" x="69.2" y="11.4" width="11.4" height="11.4"/>
    <rect class="cls-10" x="57.7" y="11.4" width="11.4" height="11.4"/>
    <rect class="cls-10" x="46.3" y="11.4" width="11.4" height="11.4"/>
    <rect class="cls-10" x="34.9" y="11.4" width="11.4" height="11.4"/>
    <rect class="cls-10" x="23.5" y="11.4" width="11.4" height="11.4"/>
    <rect class="cls-5" x="12.1" y="11.4" width="11.4" height="11.4"/>
    <rect class="cls-5" x="206.1" width="11.4" height="11.4"/>
    <rect class="cls-5" x="194.7" width="11.4" height="11.4"/>
    <rect class="cls-5" x="183.3" width="11.4" height="11.4"/>
    <rect class="cls-5" x="171.8" width="11.4" height="11.4"/>
    <rect class="cls-5" x="160.4" width="11.4" height="11.4"/>
    <rect class="cls-5" x="149" width="11.4" height="11.4"/>
    <rect class="cls-5" x="137.6" width="11.4" height="11.4"/>
    <rect class="cls-5" x="126.2" width="11.4" height="11.4"/>
    <rect class="cls-5" x="114.8" width="11.4" height="11.4"/>
    <rect class="cls-5" x="103.4" width="11.4" height="11.4"/>
    <rect class="cls-5" x="92" width="11.4" height="11.4"/>
    <rect class="cls-5" x="80.6" width="11.4" height="11.4"/>
    <rect class="cls-5" x="69.2" width="11.4" height="11.4"/>
    <rect class="cls-5" x="57.7" width="11.4" height="11.4"/>
    <rect class="cls-5" x="46.3" width="11.4" height="11.4"/>
    <rect class="cls-5" x="34.9" width="11.4" height="11.4"/>
    <rect class="cls-5" x="23.5" width="11.4" height="11.4"/>
  </g>
  <g>
    <rect class="cls-5" x="94.3" y="84.6" width="3.3" height="3.3"/>
    <rect class="cls-5" x="91" y="84.6" width="3.3" height="3.3"/>
    <rect class="cls-5" x="87.7" y="84.6" width="3.3" height="3.3"/>
    <rect class="cls-5" x="84.4" y="84.6" width="3.3" height="3.3"/>
    <rect class="cls-5" x="81.1" y="84.6" width="3.3" height="3.3"/>
    <rect class="cls-5" x="77.8" y="84.6" width="3.3" height="3.3"/>
    <rect class="cls-5" x="74.5" y="84.6" width="3.3" height="3.3"/>
    <rect class="cls-5" x="71.2" y="84.6" width="3.3" height="3.3"/>
    <rect class="cls-5" x="68" y="84.6" width="3.3" height="3.3"/>
    <rect class="cls-5" x="64.7" y="84.6" width="3.3" height="3.3"/>
    <rect class="cls-5" x="61.4" y="84.6" width="3.3" height="3.3"/>
    <rect class="cls-5" x="58.1" y="84.6" width="3.3" height="3.3"/>
    <rect class="cls-5" x="54.8" y="84.6" width="3.3" height="3.3"/>
    <rect class="cls-5" x="51.5" y="84.6" width="3.3" height="3.3"/>
    <rect class="cls-5" x="94.3" y="81.3" width="3.3" height="3.3"/>
    <rect class="cls-11" x="91" y="81.3" width="3.3" height="3.3"/>
    <rect class="cls-11" x="87.7" y="81.3" width="3.3" height="3.3"/>
    <rect class="cls-11" x="84.4" y="81.3" width="3.3" height="3.3"/>
    <rect class="cls-6" x="81.1" y="81.3" width="3.3" height="3.3"/>
    <rect class="cls-6" x="77.8" y="81.3" width="3.3" height="3.3"/>
    <rect class="cls-6" x="74.5" y="81.3" width="3.3" height="3.3"/>
    <rect class="cls-6" x="71.2" y="81.3" width="3.3" height="3.3"/>
    <rect class="cls-6" x="68" y="81.3" width="3.3" height="3.3"/>
    <rect class="cls-6" x="64.7" y="81.3" width="3.3" height="3.3"/>
    <rect class="cls-6" x="61.4" y="81.3" width="3.3" height="3.3"/>
    <rect class="cls-6" x="58.1" y="81.3" width="3.3" height="3.3"/>
    <rect class="cls-12" x="54.8" y="81.3" width="3.3" height="3.3"/>
    <rect class="cls-5" x="51.5" y="81.3" width="3.3" height="3.3"/>
    <rect class="cls-5" x="91" y="78" width="3.3" height="3.3"/>
    <rect class="cls-11" x="87.7" y="78" width="3.3" height="3.3"/>
    <rect class="cls-11" x="84.4" y="78" width="3.3" height="3.3"/>
    <rect class="cls-11" x="81.1" y="78" width="3.3" height="3.3"/>
    <rect class="cls-11" x="77.8" y="78" width="3.3" height="3.3"/>
    <rect class="cls-6" x="74.5" y="78" width="3.3" height="3.3"/>
    <rect class="cls-6" x="71.2" y="78" width="3.3" height="3.3"/>
    <rect class="cls-6" x="68" y="78" width="3.3" height="3.3"/>
    <rect class="cls-6" x="64.7" y="78" width="3.3" height="3.3"/>
    <rect class="cls-6" x="61.4" y="78" width="3.3" height="3.3"/>
    <rect class="cls-12" x="58.1" y="78" width="3.3" height="3.3"/>
    <rect class="cls-5" x="54.8" y="78" width="3.3" height="3.3"/>
    <rect class="cls-5" x="87.7" y="74.7" width="3.3" height="3.3"/>
    <rect class="cls-5" x="84.4" y="74.7" width="3.3" height="3.3"/>
    <rect class="cls-5" x="81.1" y="74.7" width="3.3" height="3.3"/>
    <rect class="cls-9" x="77.8" y="74.7" width="3.3" height="3.3"/>
    <rect class="cls-9" x="74.5" y="74.7" width="3.3" height="3.3"/>
    <rect class="cls-1" x="71.2" y="74.7" width="3.3" height="3.3"/>
    <rect class="cls-1" x="68" y="74.7" width="3.3" height="3.3"/>
    <rect class="cls-5" x="64.7" y="74.7" width="3.3" height="3.3"/>
    <rect class="cls-5" x="61.4" y="74.7" width="3.3" height="3.3"/>
    <rect class="cls-5" x="58.1" y="74.7" width="3.3" height="3.3"/>
    <rect class="cls-5" x="81.1" y="71.4" width="3.3" height="3.3"/>
    <rect class="cls-9" x="77.8" y="71.4" width="3.3" height="3.3"/>
    <rect class="cls-9" x="74.5" y="71.4" width="3.3" height="3.3"/>
    <rect class="cls-9" x="71.2" y="71.4" width="3.3" height="3.3"/>
    <rect class="cls-1" x="68" y="71.4" width="3.3" height="3.3"/>
    <rect class="cls-5" x="64.7" y="71.4" width="3.3" height="3.3"/>
    <rect class="cls-5" x="84.4" y="68.1" width="3.3" height="3.3"/>
    <rect class="cls-9" x="81.1" y="68.1" width="3.3" height="3.3"/>
    <rect class="cls-1" x="77.8" y="68.1" width="3.3" height="3.3"/>
    <rect class="cls-1" x="74.5" y="68.1" width="3.3" height="3.3"/>
    <rect class="cls-1" x="71.2" y="68.1" width="3.3" height="3.3"/>
    <rect class="cls-1" x="68" y="68.1" width="3.3" height="3.3"/>
    <rect class="cls-1" x="64.7" y="68.1" width="3.3" height="3.3"/>
    <rect class="cls-5" x="61.4" y="68.1" width="3.3" height="3.3"/>
    <rect class="cls-5" x="58.1" y="68.1" width="3.3" height="3.3"/>
    <rect class="cls-5" x="87.7" y="64.8" width="3.3" height="3.3"/>
    <rect class="cls-9" x="84.4" y="64.8" width="3.3" height="3.3"/>
    <rect class="cls-1" x="81.1" y="64.8" width="3.3" height="3.3"/>
    <rect class="cls-1" x="77.8" y="64.8" width="3.3" height="3.3"/>
    <rect class="cls-10" x="74.5" y="64.8" width="3.3" height="3.3"/>
    <rect class="cls-10" x="71.2" y="64.8" width="3.3" height="3.3"/>
    <rect class="cls-1" x="68" y="64.8" width="3.3" height="3.3"/>
    <rect class="cls-1" x="64.7" y="64.8" width="3.3" height="3.3"/>
    <rect class="cls-1" x="61.4" y="64.8" width="3.3" height="3.3"/>
    <rect class="cls-1" x="58.1" y="64.8" width="3.3" height="3.3"/>
    <rect class="cls-5" x="54.8" y="64.8" width="3.3" height="3.3"/>
    <rect class="cls-5" x="91" y="61.5" width="3.3" height="3.3"/>
    <rect class="cls-9" x="87.7" y="61.5" width="3.3" height="3.3"/>
    <rect class="cls-1" x="84.4" y="61.5" width="3.3" height="3.3"/>
    <rect class="cls-1" x="81.1" y="61.5" width="3.3" height="3.3"/>
    <rect class="cls-10" x="77.8" y="61.5" width="3.3" height="3.3"/>
    <rect class="cls-10" x="74.5" y="61.5" width="3.3" height="3.3"/>
    <rect class="cls-10" x="71.2" y="61.5" width="3.3" height="3.3"/>
    <rect class="cls-10" x="68" y="61.5" width="3.3" height="3.3"/>
    <rect class="cls-1" x="64.7" y="61.5" width="3.3" height="3.3"/>
    <rect class="cls-1" x="61.4" y="61.5" width="3.3" height="3.3"/>
    <rect class="cls-1" x="58.1" y="61.5" width="3.3" height="3.3"/>
    <rect class="cls-1" x="54.8" y="61.5" width="3.3" height="3.3"/>
    <rect class="cls-5" x="51.5" y="61.5" width="3.3" height="3.3"/>
    <rect class="cls-5" x="91" y="58.2" width="3.3" height="3.3"/>
    <rect class="cls-9" x="87.7" y="58.2" width="3.3" height="3.3"/>
    <rect class="cls-1" x="84.4" y="58.2" width="3.3" height="3.3"/>
    <rect class="cls-1" x="81.1" y="58.2" width="3.3" height="3.3"/>
    <rect class="cls-1" x="77.8" y="58.2" width="3.3" height="3.3"/>
    <rect class="cls-1" x="74.5" y="58.2" width="3.3" height="3.3"/>
    <rect class="cls-1" x="71.2" y="58.2" width="3.3" height="3.3"/>
    <rect class="cls-1" x="68" y="58.2" width="3.3" height="3.3"/>
    <rect class="cls-1" x="64.7" y="58.2" width="3.3" height="3.3"/>
    <rect class="cls-1" x="61.4" y="58.2" width="3.3" height="3.3"/>
    <rect class="cls-1" x="58.1" y="58.2" width="3.3" height="3.3"/>
    <rect class="cls-1" x="54.8" y="58.2" width="3.3" height="3.3"/>
    <rect class="cls-5" x="51.5" y="58.2" width="3.3" height="3.3"/>
    <rect class="cls-5" x="94.3" y="54.9" width="3.3" height="3.3"/>
    <rect class="cls-9" x="91" y="54.9" width="3.3" height="3.3"/>
    <rect class="cls-9" x="87.7" y="54.9" width="3.3" height="3.3"/>
    <rect class="cls-1" x="84.4" y="54.9" width="3.3" height="3.3"/>
    <rect class="cls-1" x="81.1" y="54.9" width="3.3" height="3.3"/>
    <rect class="cls-1" x="77.8" y="54.9" width="3.3" height="3.3"/>
    <rect class="cls-1" x="74.5" y="54.9" width="3.3" height="3.3"/>
    <rect class="cls-1" x="71.2" y="54.9" width="3.3" height="3.3"/>
    <rect class="cls-1" x="68" y="54.9" width="3.3" height="3.3"/>
    <rect class="cls-1" x="64.7" y="54.9" width="3.3" height="3.3"/>
    <rect class="cls-1" x="61.4" y="54.9" width="3.3" height="3.3"/>
    <rect class="cls-1" x="58.1" y="54.9" width="3.3" height="3.3"/>
    <rect class="cls-1" x="54.8" y="54.9" width="3.3" height="3.3"/>
    <rect class="cls-1" x="51.5" y="54.9" width="3.3" height="3.3"/>
    <rect class="cls-5" x="48.2" y="54.9" width="3.3" height="3.3"/>
    <rect class="cls-5" x="94.3" y="51.6" width="3.3" height="3.3"/>
    <rect class="cls-9" x="91" y="51.6" width="3.3" height="3.3"/>
    <rect class="cls-9" x="87.7" y="51.6" width="3.3" height="3.3"/>
    <rect class="cls-1" x="84.4" y="51.6" width="3.3" height="3.3"/>
    <rect class="cls-5" x="81.1" y="51.6" width="3.3" height="3.3"/>
    <rect class="cls-1" x="77.8" y="51.6" width="3.3" height="3.3"/>
    <rect class="cls-1" x="74.5" y="51.6" width="3.3" height="3.3"/>
    <rect class="cls-1" x="71.2" y="51.6" width="3.3" height="3.3"/>
    <rect class="cls-5" x="68" y="51.6" width="3.3" height="3.3"/>
    <rect class="cls-1" x="64.7" y="51.6" width="3.3" height="3.3"/>
    <rect class="cls-1" x="61.4" y="51.6" width="3.3" height="3.3"/>
    <rect class="cls-1" x="58.1" y="51.6" width="3.3" height="3.3"/>
    <rect class="cls-1" x="54.8" y="51.6" width="3.3" height="3.3"/>
    <rect class="cls-1" x="51.5" y="51.6" width="3.3" height="3.3"/>
    <rect class="cls-5" x="48.2" y="51.6" width="3.3" height="3.3"/>
    <rect class="cls-5" x="94.3" y="48.3" width="3.3" height="3.3"/>
    <rect class="cls-9" x="91" y="48.3" width="3.3" height="3.3"/>
    <rect class="cls-9" x="87.7" y="48.3" width="3.3" height="3.3"/>
    <rect class="cls-1" x="84.4" y="48.3" width="3.3" height="3.3"/>
    <rect class="cls-5" x="81.1" y="48.3" width="3.3" height="3.3"/>
    <rect class="cls-1" x="77.8" y="48.3" width="3.3" height="3.3"/>
    <rect class="cls-1" x="74.5" y="48.3" width="3.3" height="3.3"/>
    <rect class="cls-1" x="71.2" y="48.3" width="3.3" height="3.3"/>
    <rect class="cls-5" x="68" y="48.3" width="3.3" height="3.3"/>
    <rect class="cls-1" x="64.7" y="48.3" width="3.3" height="3.3"/>
    <rect class="cls-1" x="61.4" y="48.3" width="3.3" height="3.3"/>
    <rect class="cls-1" x="58.1" y="48.3" width="3.3" height="3.3"/>
    <rect class="cls-1" x="54.8" y="48.3" width="3.3" height="3.3"/>
    <rect class="cls-1" x="51.5" y="48.3" width="3.3" height="3.3"/>
    <rect class="cls-5" x="48.2" y="48.3" width="3.3" height="3.3"/>
    <rect class="cls-5" x="91" y="45" width="3.3" height="3.3"/>
    <rect class="cls-9" x="87.7" y="45" width="3.3" height="3.3"/>
    <rect class="cls-1" x="84.4" y="45" width="3.3" height="3.3"/>
    <rect class="cls-1" x="81.1" y="45" width="3.3" height="3.3"/>
    <rect class="cls-1" x="77.8" y="45" width="3.3" height="3.3"/>
    <rect class="cls-1" x="74.5" y="45" width="3.3" height="3.3"/>
    <rect class="cls-1" x="71.2" y="45" width="3.3" height="3.3"/>
    <rect class="cls-1" x="68" y="45" width="3.3" height="3.3"/>
    <rect class="cls-1" x="64.7" y="45" width="3.3" height="3.3"/>
    <rect class="cls-1" x="61.4" y="45" width="3.3" height="3.3"/>
    <rect class="cls-1" x="58.1" y="45" width="3.3" height="3.3"/>
    <rect class="cls-1" x="54.8" y="45" width="3.3" height="3.3"/>
    <rect class="cls-5" x="51.5" y="45" width="3.3" height="3.3"/>
    <rect class="cls-5" x="91" y="41.7" width="3.3" height="3.3"/>
    <rect class="cls-9" x="87.7" y="41.7" width="3.3" height="3.3"/>
    <rect class="cls-4" x="84.4" y="41.7" width="3.3" height="3.3"/>
    <rect class="cls-7" x="81.1" y="41.7" width="3.3" height="3.3"/>
    <rect class="cls-1" x="77.8" y="41.7" width="3.3" height="3.3"/>
    <rect class="cls-1" x="74.5" y="41.7" width="3.3" height="3.3"/>
    <rect class="cls-1" x="71.2" y="41.7" width="3.3" height="3.3"/>
    <rect class="cls-4" x="68" y="41.7" width="3.3" height="3.3"/>
    <rect class="cls-7" x="64.7" y="41.7" width="3.3" height="3.3"/>
    <rect class="cls-1" x="61.4" y="41.7" width="3.3" height="3.3"/>
    <rect class="cls-1" x="58.1" y="41.7" width="3.3" height="3.3"/>
    <rect class="cls-1" x="54.8" y="41.7" width="3.3" height="3.3"/>
    <rect class="cls-5" x="51.5" y="41.7" width="3.3" height="3.3"/>
    <rect class="cls-5" x="91" y="38.4" width="3.3" height="3.3"/>
    <rect class="cls-9" x="87.7" y="38.4" width="3.3" height="3.3"/>
    <rect class="cls-1" x="84.4" y="38.4" width="3.3" height="3.3"/>
    <rect class="cls-1" x="81.1" y="38.4" width="3.3" height="3.3"/>
    <rect class="cls-1" x="77.8" y="38.4" width="3.3" height="3.3"/>
    <rect class="cls-1" x="74.5" y="38.4" width="3.3" height="3.3"/>
    <rect class="cls-1" x="71.2" y="38.4" width="3.3" height="3.3"/>
    <rect class="cls-1" x="68" y="38.4" width="3.3" height="3.3"/>
    <rect class="cls-1" x="64.7" y="38.4" width="3.3" height="3.3"/>
    <rect class="cls-1" x="61.4" y="38.4" width="3.3" height="3.3"/>
    <rect class="cls-3" x="58.1" y="38.4" width="3.3" height="3.3"/>
    <rect class="cls-1" x="54.8" y="38.4" width="3.3" height="3.3"/>
    <rect class="cls-5" x="51.5" y="38.4" width="3.3" height="3.3"/>
    <rect class="cls-5" x="91" y="35.1" width="3.3" height="3.3"/>
    <rect class="cls-9" x="87.7" y="35.1" width="3.3" height="3.3"/>
    <rect class="cls-1" x="84.4" y="35.1" width="3.3" height="3.3"/>
    <rect class="cls-1" x="81.1" y="35.1" width="3.3" height="3.3"/>
    <rect class="cls-1" x="77.8" y="35.1" width="3.3" height="3.3"/>
    <rect class="cls-1" x="74.5" y="35.1" width="3.3" height="3.3"/>
    <rect class="cls-1" x="71.2" y="35.1" width="3.3" height="3.3"/>
    <rect class="cls-1" x="68" y="35.1" width="3.3" height="3.3"/>
    <rect class="cls-1" x="64.7" y="35.1" width="3.3" height="3.3"/>
    <rect class="cls-3" x="61.4" y="35.1" width="3.3" height="3.3"/>
    <rect class="cls-3" x="58.1" y="35.1" width="3.3" height="3.3"/>
    <rect class="cls-1" x="54.8" y="35.1" width="3.3" height="3.3"/>
    <rect class="cls-5" x="51.5" y="35.1" width="3.3" height="3.3"/>
    <rect class="cls-5" x="87.7" y="31.8" width="3.3" height="3.3"/>
    <rect class="cls-1" x="84.4" y="31.8" width="3.3" height="3.3"/>
    <rect class="cls-1" x="81.1" y="31.8" width="3.3" height="3.3"/>
    <rect class="cls-1" x="77.8" y="31.8" width="3.3" height="3.3"/>
    <rect class="cls-1" x="74.5" y="31.8" width="3.3" height="3.3"/>
    <rect class="cls-1" x="71.2" y="31.8" width="3.3" height="3.3"/>
    <rect class="cls-1" x="68" y="31.8" width="3.3" height="3.3"/>
    <rect class="cls-3" x="64.7" y="31.8" width="3.3" height="3.3"/>
    <rect class="cls-3" x="61.4" y="31.8" width="3.3" height="3.3"/>
    <rect class="cls-1" x="58.1" y="31.8" width="3.3" height="3.3"/>
    <rect class="cls-5" x="54.8" y="31.8" width="3.3" height="3.3"/>
    <rect class="cls-5" x="84.4" y="28.5" width="3.3" height="3.3"/>
    <rect class="cls-1" x="81.1" y="28.5" width="3.3" height="3.3"/>
    <rect class="cls-1" x="77.8" y="28.5" width="3.3" height="3.3"/>
    <rect class="cls-1" x="74.5" y="28.5" width="3.3" height="3.3"/>
    <rect class="cls-1" x="71.2" y="28.5" width="3.3" height="3.3"/>
    <rect class="cls-1" x="68" y="28.5" width="3.3" height="3.3"/>
    <rect class="cls-1" x="64.7" y="28.5" width="3.3" height="3.3"/>
    <rect class="cls-1" x="61.4" y="28.5" width="3.3" height="3.3"/>
    <rect class="cls-5" x="58.1" y="28.5" width="3.3" height="3.3"/>
    <rect class="cls-5" x="81.1" y="25.2" width="3.3" height="3.3"/>
    <rect class="cls-5" x="77.8" y="25.2" width="3.3" height="3.3"/>
    <rect class="cls-5" x="74.5" y="25.2" width="3.3" height="3.3"/>
    <rect class="cls-5" x="71.2" y="25.2" width="3.3" height="3.3"/>
    <rect class="cls-5" x="68" y="25.2" width="3.3" height="3.3"/>
    <rect class="cls-5" x="64.7" y="25.2" width="3.3" height="3.3"/>
    <rect class="cls-5" x="61.4" y="25.2" width="3.3" height="3.3"/>
  </g>
</svg>